solid OpenSCAD_Model
  facet normal -0.995185 -0.098015 0
    outer loop
      vertex 0.0288219 1.20736 0
      vertex 0 1.5 16
      vertex 0 1.5 0
    endloop
  endfacet
  facet normal -0.995185 -0.098015 0
    outer loop
      vertex 0 1.5 16
      vertex 0.0288219 1.20736 0
      vertex 0.0288219 1.20736 16
    endloop
  endfacet
  facet normal 0 0 1
    outer loop
      vertex 32 22 16
      vertex 34 22.5 16
      vertex 33.9712 22.7926 16
    endloop
  endfacet
  facet normal 0 0 1
    outer loop
      vertex 34 22.5 16
      vertex 32 22 16
      vertex 34 1.5 16
    endloop
  endfacet
  facet normal 0 0 1
    outer loop
      vertex 32 22 16
      vertex 33.9712 22.7926 16
      vertex 33.8858 23.074 16
    endloop
  endfacet
  facet normal -0 0 1
    outer loop
      vertex 32 2 16
      vertex 34 1.5 16
      vertex 32 22 16
    endloop
  endfacet
  facet normal 0 0 1
    outer loop
      vertex 32 22 16
      vertex 33.8858 23.074 16
      vertex 33.7472 23.3334 16
    endloop
  endfacet
  facet normal 0 0 1
    outer loop
      vertex 34 1.5 16
      vertex 32 2 16
      vertex 33.9712 1.20736 16
    endloop
  endfacet
  facet normal 0 0 1
    outer loop
      vertex 32 22 16
      vertex 33.7472 23.3334 16
      vertex 33.5607 23.5607 16
    endloop
  endfacet
  facet normal 0 0 1
    outer loop
      vertex 33.9712 1.20736 16
      vertex 32 2 16
      vertex 33.8858 0.925975 16
    endloop
  endfacet
  facet normal 0 0 1
    outer loop
      vertex 32 22 16
      vertex 33.5607 23.5607 16
      vertex 33.3334 23.7472 16
    endloop
  endfacet
  facet normal 0 0 1
    outer loop
      vertex 33.8858 0.925975 16
      vertex 32 2 16
      vertex 33.7472 0.666644 16
    endloop
  endfacet
  facet normal 0 0 1
    outer loop
      vertex 32 22 16
      vertex 33.3334 23.7472 16
      vertex 33.074 23.8858 16
    endloop
  endfacet
  facet normal 0 0 1
    outer loop
      vertex 33.7472 0.666644 16
      vertex 32 2 16
      vertex 33.5607 0.43934 16
    endloop
  endfacet
  facet normal 0 0 1
    outer loop
      vertex 32 22 16
      vertex 33.074 23.8858 16
      vertex 32.7926 23.9712 16
    endloop
  endfacet
  facet normal 0 0 1
    outer loop
      vertex 33.5607 0.43934 16
      vertex 32 2 16
      vertex 33.3334 0.252795 16
    endloop
  endfacet
  facet normal 0 0 1
    outer loop
      vertex 32 22 16
      vertex 32.7926 23.9712 16
      vertex 32.5 24 16
    endloop
  endfacet
  facet normal 0 0 1
    outer loop
      vertex 33.3334 0.252795 16
      vertex 32 2 16
      vertex 33.074 0.114181 16
    endloop
  endfacet
  facet normal 0 0 1
    outer loop
      vertex 33.074 0.114181 16
      vertex 32 2 16
      vertex 32.7926 0.0288219 16
    endloop
  endfacet
  facet normal 0 0 1
    outer loop
      vertex 32.5 24 16
      vertex 2 22 16
      vertex 32 22 16
    endloop
  endfacet
  facet normal -0 0 1
    outer loop
      vertex 1.20736 23.9712 16
      vertex 2 22 16
      vertex 1.5 24 16
    endloop
  endfacet
  facet normal -0 0 1
    outer loop
      vertex 1.5 24 16
      vertex 2 22 16
      vertex 32.5 24 16
    endloop
  endfacet
  facet normal 0 0 1
    outer loop
      vertex 32.7926 0.0288219 16
      vertex 32 2 16
      vertex 32.5 0 16
    endloop
  endfacet
  facet normal -0 0 1
    outer loop
      vertex 2 2 16
      vertex 32.5 0 16
      vertex 32 2 16
    endloop
  endfacet
  facet normal 0 0 1
    outer loop
      vertex 2 2 16
      vertex 1.5 0 16
      vertex 32.5 0 16
    endloop
  endfacet
  facet normal 0 0 1
    outer loop
      vertex 2 22 16
      vertex 0 22.5 16
      vertex 2 2 16
    endloop
  endfacet
  facet normal -0 0 1
    outer loop
      vertex 0.925975 23.8858 16
      vertex 2 22 16
      vertex 1.20736 23.9712 16
    endloop
  endfacet
  facet normal 0 0 1
    outer loop
      vertex 0 1.5 16
      vertex 2 2 16
      vertex 0 22.5 16
    endloop
  endfacet
  facet normal -0 0 1
    outer loop
      vertex 0.666644 23.7472 16
      vertex 2 22 16
      vertex 0.925975 23.8858 16
    endloop
  endfacet
  facet normal 0 -0 1
    outer loop
      vertex 0.0288219 1.20736 16
      vertex 2 2 16
      vertex 0 1.5 16
    endloop
  endfacet
  facet normal -0 0 1
    outer loop
      vertex 0.43934 23.5607 16
      vertex 2 22 16
      vertex 0.666644 23.7472 16
    endloop
  endfacet
  facet normal 0 0 1
    outer loop
      vertex 2 2 16
      vertex 1.20736 0.0288219 16
      vertex 1.5 0 16
    endloop
  endfacet
  facet normal -0 0 1
    outer loop
      vertex 0.252795 23.3334 16
      vertex 2 22 16
      vertex 0.43934 23.5607 16
    endloop
  endfacet
  facet normal 0 0 1
    outer loop
      vertex 2 2 16
      vertex 0.925975 0.114181 16
      vertex 1.20736 0.0288219 16
    endloop
  endfacet
  facet normal -0 0 1
    outer loop
      vertex 0.114181 23.074 16
      vertex 2 22 16
      vertex 0.252795 23.3334 16
    endloop
  endfacet
  facet normal 0 0 1
    outer loop
      vertex 2 2 16
      vertex 0.666644 0.252795 16
      vertex 0.925975 0.114181 16
    endloop
  endfacet
  facet normal -0 0 1
    outer loop
      vertex 0.0288219 22.7926 16
      vertex 2 22 16
      vertex 0.114181 23.074 16
    endloop
  endfacet
  facet normal 0 0 1
    outer loop
      vertex 2 2 16
      vertex 0.43934 0.43934 16
      vertex 0.666644 0.252795 16
    endloop
  endfacet
  facet normal 0 0 1
    outer loop
      vertex 2 22 16
      vertex 0.0288219 22.7926 16
      vertex 0 22.5 16
    endloop
  endfacet
  facet normal 0 0 1
    outer loop
      vertex 2 2 16
      vertex 0.252795 0.666644 16
      vertex 0.43934 0.43934 16
    endloop
  endfacet
  facet normal 0 0 1
    outer loop
      vertex 2 2 16
      vertex 0.114181 0.925975 16
      vertex 0.252795 0.666644 16
    endloop
  endfacet
  facet normal 0 0 1
    outer loop
      vertex 2 2 16
      vertex 0.0288219 1.20736 16
      vertex 0.114181 0.925975 16
    endloop
  endfacet
  facet normal 0.995192 -0.0979413 0
    outer loop
      vertex 33.9712 1.20736 16
      vertex 34 1.5 0
      vertex 34 1.5 16
    endloop
  endfacet
  facet normal 0.995192 -0.0979413 0
    outer loop
      vertex 34 1.5 0
      vertex 33.9712 1.20736 16
      vertex 33.9712 1.20736 0
    endloop
  endfacet
  facet normal 0 -1 0
    outer loop
      vertex 1.5 0 0
      vertex 32.5 0 16
      vertex 1.5 0 16
    endloop
  endfacet
  facet normal 0 -1 -0
    outer loop
      vertex 32.5 0 16
      vertex 1.5 0 0
      vertex 32.5 0 0
    endloop
  endfacet
  facet normal 0.0980283 -0.995184 0
    outer loop
      vertex 32.5 0 0
      vertex 32.7926 0.0288219 16
      vertex 32.5 0 16
    endloop
  endfacet
  facet normal 0.0980283 -0.995184 0
    outer loop
      vertex 32.7926 0.0288219 16
      vertex 32.5 0 0
      vertex 32.7926 0.0288219 0
    endloop
  endfacet
  facet normal 0 1 -0
    outer loop
      vertex 32.5 24 0
      vertex 1.5 24 16
      vertex 32.5 24 16
    endloop
  endfacet
  facet normal 0 1 0
    outer loop
      vertex 1.5 24 16
      vertex 32.5 24 0
      vertex 1.5 24 0
    endloop
  endfacet
  facet normal -1 0 0
    outer loop
      vertex 0 17 10
      vertex 0 22.5 0
      vertex 0 17 4
    endloop
  endfacet
  facet normal -1 0 0
    outer loop
      vertex 0 22.5 0
      vertex 0 7 4
      vertex 0 17 4
    endloop
  endfacet
  facet normal -1 -0 0
    outer loop
      vertex 0 7 4
      vertex 0 1.5 0
      vertex 0 7 10
    endloop
  endfacet
  facet normal -1 0 0
    outer loop
      vertex 0 1.5 0
      vertex 0 7 4
      vertex 0 22.5 0
    endloop
  endfacet
  facet normal -1 0 0
    outer loop
      vertex 0 22.5 0
      vertex 0 17 10
      vertex 0 22.5 16
    endloop
  endfacet
  facet normal -1 0 0
    outer loop
      vertex 0 7 10
      vertex 0 22.5 16
      vertex 0 17 10
    endloop
  endfacet
  facet normal -1 0 0
    outer loop
      vertex 0 7 10
      vertex 0 1.5 16
      vertex 0 22.5 16
    endloop
  endfacet
  facet normal -1 0 0
    outer loop
      vertex 0 1.5 16
      vertex 0 7 10
      vertex 0 1.5 0
    endloop
  endfacet
  facet normal 0 0 -1
    outer loop
      vertex 32.5 0 0
      vertex 34 1.5 0
      vertex 33.9712 1.20736 0
    endloop
  endfacet
  facet normal 0 0 -1
    outer loop
      vertex 34 1.5 0
      vertex 30.9978 19.3333 0
      vertex 34 22.5 0
    endloop
  endfacet
  facet normal 0 0 -1
    outer loop
      vertex 32.5 0 0
      vertex 33.9712 1.20736 0
      vertex 33.8858 0.925975 0
    endloop
  endfacet
  facet normal 0 -0 -1
    outer loop
      vertex 31.1087 19.5408 0
      vertex 34 22.5 0
      vertex 30.9978 19.3333 0
    endloop
  endfacet
  facet normal 0 0 -1
    outer loop
      vertex 32.5 0 0
      vertex 33.8858 0.925975 0
      vertex 33.7472 0.666644 0
    endloop
  endfacet
  facet normal 0 -0 -1
    outer loop
      vertex 31.1769 19.7659 0
      vertex 34 22.5 0
      vertex 31.1087 19.5408 0
    endloop
  endfacet
  facet normal 0 0 -1
    outer loop
      vertex 32.5 0 0
      vertex 33.7472 0.666644 0
      vertex 33.5607 0.43934 0
    endloop
  endfacet
  facet normal 0 0 -1
    outer loop
      vertex 31.1769 20.2341 0
      vertex 34 22.5 0
      vertex 31.2 20 0
    endloop
  endfacet
  facet normal 0 0 -1
    outer loop
      vertex 32.5 0 0
      vertex 33.5607 0.43934 0
      vertex 33.3334 0.252795 0
    endloop
  endfacet
  facet normal 0 0 -1
    outer loop
      vertex 31.1087 20.4592 0
      vertex 34 22.5 0
      vertex 31.1769 20.2341 0
    endloop
  endfacet
  facet normal 0 0 -1
    outer loop
      vertex 32.5 0 0
      vertex 33.3334 0.252795 0
      vertex 33.074 0.114181 0
    endloop
  endfacet
  facet normal 0 0 -1
    outer loop
      vertex 30.9978 20.6667 0
      vertex 34 22.5 0
      vertex 31.1087 20.4592 0
    endloop
  endfacet
  facet normal 0 0 -1
    outer loop
      vertex 32.5 0 0
      vertex 33.074 0.114181 0
      vertex 32.7926 0.0288219 0
    endloop
  endfacet
  facet normal 0 0 -1
    outer loop
      vertex 30.8485 20.8485 0
      vertex 34 22.5 0
      vertex 30.9978 20.6667 0
    endloop
  endfacet
  facet normal 0 0 -1
    outer loop
      vertex 29.5408 18.8913 0
      vertex 34 1.5 0
      vertex 32.5 0 0
    endloop
  endfacet
  facet normal 0 0 -1
    outer loop
      vertex 34 22.5 0
      vertex 32.5 24 0
      vertex 33.9712 22.7926 0
    endloop
  endfacet
  facet normal 0 0 -1
    outer loop
      vertex 33.9712 22.7926 0
      vertex 32.5 24 0
      vertex 33.8858 23.074 0
    endloop
  endfacet
  facet normal 0 0 -1
    outer loop
      vertex 33.8858 23.074 0
      vertex 32.5 24 0
      vertex 33.7472 23.3334 0
    endloop
  endfacet
  facet normal 0 -0 -1
    outer loop
      vertex 32.5 24 0
      vertex 34 22.5 0
      vertex 30.8485 20.8485 0
    endloop
  endfacet
  facet normal 0 -0 -1
    outer loop
      vertex 31.2 20 0
      vertex 34 22.5 0
      vertex 31.1769 19.7659 0
    endloop
  endfacet
  facet normal 0 0 -1
    outer loop
      vertex 34 1.5 0
      vertex 30.8485 19.1515 0
      vertex 30.9978 19.3333 0
    endloop
  endfacet
  facet normal 0 0 -1
    outer loop
      vertex 34 1.5 0
      vertex 30.6667 19.0022 0
      vertex 30.8485 19.1515 0
    endloop
  endfacet
  facet normal 0 0 -1
    outer loop
      vertex 34 1.5 0
      vertex 30.4592 18.8913 0
      vertex 30.6667 19.0022 0
    endloop
  endfacet
  facet normal 0 0 -1
    outer loop
      vertex 34 1.5 0
      vertex 30.2341 18.8231 0
      vertex 30.4592 18.8913 0
    endloop
  endfacet
  facet normal 0 0 -1
    outer loop
      vertex 34 1.5 0
      vertex 30 18.8 0
      vertex 30.2341 18.8231 0
    endloop
  endfacet
  facet normal 0 0 -1
    outer loop
      vertex 34 1.5 0
      vertex 29.7659 18.8231 0
      vertex 30 18.8 0
    endloop
  endfacet
  facet normal 0 0 -1
    outer loop
      vertex 34 1.5 0
      vertex 29.5408 18.8913 0
      vertex 29.7659 18.8231 0
    endloop
  endfacet
  facet normal 0 0 -1
    outer loop
      vertex 32.5 0 0
      vertex 29.3333 19.0022 0
      vertex 29.5408 18.8913 0
    endloop
  endfacet
  facet normal 0 0 -1
    outer loop
      vertex 32.5 0 0
      vertex 29.1515 19.1515 0
      vertex 29.3333 19.0022 0
    endloop
  endfacet
  facet normal 0 0 -1
    outer loop
      vertex 5.17694 4.23411 0
      vertex 29.1515 19.1515 0
      vertex 32.5 0 0
    endloop
  endfacet
  facet normal 0 0 -1
    outer loop
      vertex 5.10865 4.45922 0
      vertex 29.1515 19.1515 0
      vertex 5.17694 4.23411 0
    endloop
  endfacet
  facet normal -0 0 -1
    outer loop
      vertex 29.1515 19.1515 0
      vertex 5.10865 4.45922 0
      vertex 29.0022 19.3333 0
    endloop
  endfacet
  facet normal 0 0 -1
    outer loop
      vertex 4.99776 4.66668 0
      vertex 29.0022 19.3333 0
      vertex 5.10865 4.45922 0
    endloop
  endfacet
  facet normal 0 0 -1
    outer loop
      vertex 5.17694 4.23411 0
      vertex 32.5 0 0
      vertex 5.2 4 0
    endloop
  endfacet
  facet normal 0 0 -1
    outer loop
      vertex 32.5 0 0
      vertex 5.17694 3.76589 0
      vertex 5.2 4 0
    endloop
  endfacet
  facet normal 0 0 -1
    outer loop
      vertex 32.5 0 0
      vertex 5.10865 3.54078 0
      vertex 5.17694 3.76589 0
    endloop
  endfacet
  facet normal 0 0 -1
    outer loop
      vertex 32.5 0 0
      vertex 4.99776 3.33331 0
      vertex 5.10865 3.54078 0
    endloop
  endfacet
  facet normal 0 0 -1
    outer loop
      vertex 32.5 0 0
      vertex 4.84853 3.15147 0
      vertex 4.99776 3.33331 0
    endloop
  endfacet
  facet normal 0 0 -1
    outer loop
      vertex 32.5 0 0
      vertex 4.66668 3.00224 0
      vertex 4.84853 3.15147 0
    endloop
  endfacet
  facet normal 0 0 -1
    outer loop
      vertex 1.5 0 0
      vertex 4.66668 3.00224 0
      vertex 32.5 0 0
    endloop
  endfacet
  facet normal 0 0 -1
    outer loop
      vertex 4.66668 3.00224 0
      vertex 1.5 0 0
      vertex 4.45922 2.89134 0
    endloop
  endfacet
  facet normal 0 0 -1
    outer loop
      vertex 4.45922 2.89134 0
      vertex 1.5 0 0
      vertex 4.23411 2.82306 0
    endloop
  endfacet
  facet normal -0 0 -1
    outer loop
      vertex 2.89134 3.54078 0
      vertex 0 1.5 0
      vertex 2.82306 3.76589 0
    endloop
  endfacet
  facet normal -0 0 -1
    outer loop
      vertex 3.00224 3.33331 0
      vertex 0 1.5 0
      vertex 2.89134 3.54078 0
    endloop
  endfacet
  facet normal -0 0 -1
    outer loop
      vertex 3.15147 3.15147 0
      vertex 0 1.5 0
      vertex 3.00224 3.33331 0
    endloop
  endfacet
  facet normal 0 0 -1
    outer loop
      vertex 0 1.5 0
      vertex 3.15147 3.15147 0
      vertex 1.5 0 0
    endloop
  endfacet
  facet normal -0 0 -1
    outer loop
      vertex 3.33331 3.00224 0
      vertex 1.5 0 0
      vertex 3.15147 3.15147 0
    endloop
  endfacet
  facet normal -0 0 -1
    outer loop
      vertex 3.54078 2.89134 0
      vertex 1.5 0 0
      vertex 3.33331 3.00224 0
    endloop
  endfacet
  facet normal -0 0 -1
    outer loop
      vertex 3.76589 2.82306 0
      vertex 1.5 0 0
      vertex 3.54078 2.89134 0
    endloop
  endfacet
  facet normal -0 0 -1
    outer loop
      vertex 4 2.8 0
      vertex 1.5 0 0
      vertex 3.76589 2.82306 0
    endloop
  endfacet
  facet normal 0 0 -1
    outer loop
      vertex 4.23411 2.82306 0
      vertex 1.5 0 0
      vertex 4 2.8 0
    endloop
  endfacet
  facet normal 0 0 -1
    outer loop
      vertex 33.7472 23.3334 0
      vertex 32.5 24 0
      vertex 33.5607 23.5607 0
    endloop
  endfacet
  facet normal 0 0 -1
    outer loop
      vertex 33.5607 23.5607 0
      vertex 32.5 24 0
      vertex 33.3334 23.7472 0
    endloop
  endfacet
  facet normal 0 0 -1
    outer loop
      vertex 33.074 23.8858 0
      vertex 32.5 24 0
      vertex 32.7926 23.9712 0
    endloop
  endfacet
  facet normal 0 0 -1
    outer loop
      vertex 33.3334 23.7472 0
      vertex 32.5 24 0
      vertex 33.074 23.8858 0
    endloop
  endfacet
  facet normal 0 0 -1
    outer loop
      vertex 30.6667 20.9978 0
      vertex 32.5 24 0
      vertex 30.8485 20.8485 0
    endloop
  endfacet
  facet normal 0 0 -1
    outer loop
      vertex 30.4592 21.1087 0
      vertex 32.5 24 0
      vertex 30.6667 20.9978 0
    endloop
  endfacet
  facet normal 0 0 -1
    outer loop
      vertex 30.2341 21.1769 0
      vertex 32.5 24 0
      vertex 30.4592 21.1087 0
    endloop
  endfacet
  facet normal 0 0 -1
    outer loop
      vertex 30 21.2 0
      vertex 32.5 24 0
      vertex 30.2341 21.1769 0
    endloop
  endfacet
  facet normal 0 0 -1
    outer loop
      vertex 29.7659 21.1769 0
      vertex 32.5 24 0
      vertex 30 21.2 0
    endloop
  endfacet
  facet normal 0 0 -1
    outer loop
      vertex 29.5408 21.1087 0
      vertex 32.5 24 0
      vertex 29.7659 21.1769 0
    endloop
  endfacet
  facet normal 0 0 -1
    outer loop
      vertex 29.3333 20.9978 0
      vertex 32.5 24 0
      vertex 29.5408 21.1087 0
    endloop
  endfacet
  facet normal 0 0 -1
    outer loop
      vertex 1.5 24 0
      vertex 29.3333 20.9978 0
      vertex 29.1515 20.8485 0
    endloop
  endfacet
  facet normal -0 0 -1
    outer loop
      vertex 29.0022 19.3333 0
      vertex 4.99776 4.66668 0
      vertex 28.8913 19.5408 0
    endloop
  endfacet
  facet normal 0 0 -1
    outer loop
      vertex 4.84853 4.84853 0
      vertex 28.8913 19.5408 0
      vertex 4.99776 4.66668 0
    endloop
  endfacet
  facet normal -0 0 -1
    outer loop
      vertex 28.8913 19.5408 0
      vertex 4.84853 4.84853 0
      vertex 28.8231 19.7659 0
    endloop
  endfacet
  facet normal 0 0 -1
    outer loop
      vertex 1.5 24 0
      vertex 28.8231 19.7659 0
      vertex 4.84853 4.84853 0
    endloop
  endfacet
  facet normal 0 0 -1
    outer loop
      vertex 28.8231 19.7659 0
      vertex 1.5 24 0
      vertex 28.8 20 0
    endloop
  endfacet
  facet normal 0 0 -1
    outer loop
      vertex 28.8 20 0
      vertex 1.5 24 0
      vertex 28.8231 20.2341 0
    endloop
  endfacet
  facet normal 0 0 -1
    outer loop
      vertex 28.8231 20.2341 0
      vertex 1.5 24 0
      vertex 28.8913 20.4592 0
    endloop
  endfacet
  facet normal 0 0 -1
    outer loop
      vertex 28.8913 20.4592 0
      vertex 1.5 24 0
      vertex 29.0022 20.6667 0
    endloop
  endfacet
  facet normal 0 0 -1
    outer loop
      vertex 29.0022 20.6667 0
      vertex 1.5 24 0
      vertex 29.1515 20.8485 0
    endloop
  endfacet
  facet normal 0 0 -1
    outer loop
      vertex 1.5 24 0
      vertex 4.84853 4.84853 0
      vertex 4.66668 4.99776 0
    endloop
  endfacet
  facet normal 0 0 -1
    outer loop
      vertex 1.5 24 0
      vertex 4.66668 4.99776 0
      vertex 4.45922 5.10865 0
    endloop
  endfacet
  facet normal 0 0 -1
    outer loop
      vertex 0 22.5 0
      vertex 4.45922 5.10865 0
      vertex 4.23411 5.17694 0
    endloop
  endfacet
  facet normal 0 0 -1
    outer loop
      vertex 0 22.5 0
      vertex 4.23411 5.17694 0
      vertex 4 5.2 0
    endloop
  endfacet
  facet normal 0 0 -1
    outer loop
      vertex 0 22.5 0
      vertex 4 5.2 0
      vertex 3.76589 5.17694 0
    endloop
  endfacet
  facet normal 0 0 -1
    outer loop
      vertex 0 22.5 0
      vertex 3.76589 5.17694 0
      vertex 3.54078 5.10865 0
    endloop
  endfacet
  facet normal 0 0 -1
    outer loop
      vertex 0 22.5 0
      vertex 3.54078 5.10865 0
      vertex 3.33331 4.99776 0
    endloop
  endfacet
  facet normal -0 0 -1
    outer loop
      vertex 2.82306 3.76589 0
      vertex 0 1.5 0
      vertex 2.8 4 0
    endloop
  endfacet
  facet normal -0 0 -1
    outer loop
      vertex 2.8 4 0
      vertex 0 1.5 0
      vertex 2.82306 4.23411 0
    endloop
  endfacet
  facet normal 0 0 -1
    outer loop
      vertex 29.3333 20.9978 0
      vertex 1.5 24 0
      vertex 32.5 24 0
    endloop
  endfacet
  facet normal 0 0 -1
    outer loop
      vertex 0 22.5 0
      vertex 3.33331 4.99776 0
      vertex 3.15147 4.84853 0
    endloop
  endfacet
  facet normal 0 0 -1
    outer loop
      vertex 0 22.5 0
      vertex 3.15147 4.84853 0
      vertex 3.00224 4.66668 0
    endloop
  endfacet
  facet normal 0 0 -1
    outer loop
      vertex 0 1.5 0
      vertex 3.00224 4.66668 0
      vertex 2.89134 4.45922 0
    endloop
  endfacet
  facet normal -0 0 -1
    outer loop
      vertex 2.82306 4.23411 0
      vertex 0 1.5 0
      vertex 2.89134 4.45922 0
    endloop
  endfacet
  facet normal 0 0 -1
    outer loop
      vertex 0 1.5 0
      vertex 1.5 0 0
      vertex 1.20736 0.0288219 0
    endloop
  endfacet
  facet normal -0 0 -1
    outer loop
      vertex 3.00224 4.66668 0
      vertex 0 1.5 0
      vertex 0 22.5 0
    endloop
  endfacet
  facet normal 0 0 -1
    outer loop
      vertex 0 1.5 0
      vertex 1.20736 0.0288219 0
      vertex 0.925975 0.114181 0
    endloop
  endfacet
  facet normal 0 0 -1
    outer loop
      vertex 4.45922 5.10865 0
      vertex 0 22.5 0
      vertex 1.5 24 0
    endloop
  endfacet
  facet normal 0 0 -1
    outer loop
      vertex 0 1.5 0
      vertex 0.925975 0.114181 0
      vertex 0.666644 0.252795 0
    endloop
  endfacet
  facet normal 0 0 -1
    outer loop
      vertex 1.5 24 0
      vertex 0 22.5 0
      vertex 1.20736 23.9712 0
    endloop
  endfacet
  facet normal 0 0 -1
    outer loop
      vertex 0 1.5 0
      vertex 0.666644 0.252795 0
      vertex 0.43934 0.43934 0
    endloop
  endfacet
  facet normal 0 0 -1
    outer loop
      vertex 1.20736 23.9712 0
      vertex 0 22.5 0
      vertex 0.925975 23.8858 0
    endloop
  endfacet
  facet normal 0 0 -1
    outer loop
      vertex 0 1.5 0
      vertex 0.43934 0.43934 0
      vertex 0.252795 0.666644 0
    endloop
  endfacet
  facet normal 0 0 -1
    outer loop
      vertex 0.925975 23.8858 0
      vertex 0 22.5 0
      vertex 0.666644 23.7472 0
    endloop
  endfacet
  facet normal 0 0 -1
    outer loop
      vertex 0 1.5 0
      vertex 0.252795 0.666644 0
      vertex 0.114181 0.925975 0
    endloop
  endfacet
  facet normal 0 0 -1
    outer loop
      vertex 0.666644 23.7472 0
      vertex 0 22.5 0
      vertex 0.43934 23.5607 0
    endloop
  endfacet
  facet normal 0 0 -1
    outer loop
      vertex 0 1.5 0
      vertex 0.114181 0.925975 0
      vertex 0.0288219 1.20736 0
    endloop
  endfacet
  facet normal 0 0 -1
    outer loop
      vertex 0.43934 23.5607 0
      vertex 0 22.5 0
      vertex 0.252795 23.3334 0
    endloop
  endfacet
  facet normal 0 0 -1
    outer loop
      vertex 0.252795 23.3334 0
      vertex 0 22.5 0
      vertex 0.114181 23.074 0
    endloop
  endfacet
  facet normal 0 0 -1
    outer loop
      vertex 0.114181 23.074 0
      vertex 0 22.5 0
      vertex 0.0288219 22.7926 0
    endloop
  endfacet
  facet normal -0.995184 0.0980283 0
    outer loop
      vertex 0 22.5 0
      vertex 0.0288219 22.7926 16
      vertex 0.0288219 22.7926 0
    endloop
  endfacet
  facet normal -0.995184 0.0980283 0
    outer loop
      vertex 0.0288219 22.7926 16
      vertex 0 22.5 0
      vertex 0 22.5 16
    endloop
  endfacet
  facet normal 1 0 0
    outer loop
      vertex 34 22.5 16
      vertex 34 17 10
      vertex 34 22.5 0
    endloop
  endfacet
  facet normal 1 0 0
    outer loop
      vertex 34 22.5 16
      vertex 34 7 10
      vertex 34 17 10
    endloop
  endfacet
  facet normal 1 0 0
    outer loop
      vertex 34 1.5 0
      vertex 34 7 10
      vertex 34 1.5 16
    endloop
  endfacet
  facet normal 1 -0 0
    outer loop
      vertex 34 1.5 16
      vertex 34 7 10
      vertex 34 22.5 16
    endloop
  endfacet
  facet normal 1 -0 0
    outer loop
      vertex 34 17 4
      vertex 34 22.5 0
      vertex 34 17 10
    endloop
  endfacet
  facet normal 1 -0 0
    outer loop
      vertex 34 7 4
      vertex 34 22.5 0
      vertex 34 17 4
    endloop
  endfacet
  facet normal 1 0 0
    outer loop
      vertex 34 7 4
      vertex 34 1.5 0
      vertex 34 22.5 0
    endloop
  endfacet
  facet normal 1 0 0
    outer loop
      vertex 34 7 10
      vertex 34 1.5 0
      vertex 34 7 4
    endloop
  endfacet
  facet normal 0.634403 -0.773003 0
    outer loop
      vertex 33.3334 0.252795 0
      vertex 33.5607 0.43934 16
      vertex 33.3334 0.252795 16
    endloop
  endfacet
  facet normal 0.634403 -0.773003 0
    outer loop
      vertex 33.5607 0.43934 16
      vertex 33.3334 0.252795 0
      vertex 33.5607 0.43934 0
    endloop
  endfacet
  facet normal 0.290276 -0.956943 0
    outer loop
      vertex 32.7926 0.0288219 0
      vertex 33.074 0.114181 16
      vertex 32.7926 0.0288219 16
    endloop
  endfacet
  facet normal 0.290276 -0.956943 0
    outer loop
      vertex 33.074 0.114181 16
      vertex 32.7926 0.0288219 0
      vertex 33.074 0.114181 0
    endloop
  endfacet
  facet normal -0.471393 -0.881923 0
    outer loop
      vertex 0.666644 0.252795 0
      vertex 0.925975 0.114181 16
      vertex 0.666644 0.252795 16
    endloop
  endfacet
  facet normal -0.471393 -0.881923 -0
    outer loop
      vertex 0.925975 0.114181 16
      vertex 0.666644 0.252795 0
      vertex 0.925975 0.114181 0
    endloop
  endfacet
  facet normal -0.098015 -0.995185 0
    outer loop
      vertex 1.20736 0.0288219 0
      vertex 1.5 0 16
      vertex 1.20736 0.0288219 16
    endloop
  endfacet
  facet normal -0.098015 -0.995185 -0
    outer loop
      vertex 1.5 0 16
      vertex 1.20736 0.0288219 0
      vertex 1.5 0 0
    endloop
  endfacet
  facet normal -0.471356 0.881943 0
    outer loop
      vertex 0.925975 23.8858 0
      vertex 0.666644 23.7472 16
      vertex 0.925975 23.8858 16
    endloop
  endfacet
  facet normal -0.471356 0.881943 0
    outer loop
      vertex 0.666644 23.7472 16
      vertex 0.925975 23.8858 0
      vertex 0.666644 23.7472 0
    endloop
  endfacet
  facet normal -0.773003 0.634403 0
    outer loop
      vertex 0.252795 23.3334 0
      vertex 0.43934 23.5607 16
      vertex 0.43934 23.5607 0
    endloop
  endfacet
  facet normal -0.773003 0.634403 0
    outer loop
      vertex 0.43934 23.5607 16
      vertex 0.252795 23.3334 0
      vertex 0.252795 23.3334 16
    endloop
  endfacet
  facet normal -0.634305 0.773083 0
    outer loop
      vertex 0.666644 23.7472 0
      vertex 0.43934 23.5607 16
      vertex 0.666644 23.7472 16
    endloop
  endfacet
  facet normal -0.634305 0.773083 0
    outer loop
      vertex 0.43934 23.5607 16
      vertex 0.666644 23.7472 0
      vertex 0.43934 23.5607 0
    endloop
  endfacet
  facet normal 0.634311 0.773078 -0
    outer loop
      vertex 33.5607 23.5607 0
      vertex 33.3334 23.7472 16
      vertex 33.5607 23.5607 16
    endloop
  endfacet
  facet normal 0.634311 0.773078 0
    outer loop
      vertex 33.3334 23.7472 16
      vertex 33.5607 23.5607 0
      vertex 33.3334 23.7472 0
    endloop
  endfacet
  facet normal 0.881943 -0.471356 0
    outer loop
      vertex 33.7472 0.666644 16
      vertex 33.8858 0.925975 0
      vertex 33.8858 0.925975 16
    endloop
  endfacet
  facet normal 0.881943 -0.471356 0
    outer loop
      vertex 33.8858 0.925975 0
      vertex 33.7472 0.666644 16
      vertex 33.7472 0.666644 0
    endloop
  endfacet
  facet normal -0.773008 -0.634396 0
    outer loop
      vertex 0.43934 0.43934 0
      vertex 0.252795 0.666644 16
      vertex 0.252795 0.666644 0
    endloop
  endfacet
  facet normal -0.773008 -0.634396 0
    outer loop
      vertex 0.252795 0.666644 16
      vertex 0.43934 0.43934 0
      vertex 0.43934 0.43934 16
    endloop
  endfacet
  facet normal -0.634396 -0.773008 0
    outer loop
      vertex 0.43934 0.43934 0
      vertex 0.666644 0.252795 16
      vertex 0.43934 0.43934 16
    endloop
  endfacet
  facet normal -0.634396 -0.773008 -0
    outer loop
      vertex 0.666644 0.252795 16
      vertex 0.43934 0.43934 0
      vertex 0.666644 0.252795 0
    endloop
  endfacet
  facet normal -0.956939 -0.290291 0
    outer loop
      vertex 0.114181 0.925975 0
      vertex 0.0288219 1.20736 16
      vertex 0.0288219 1.20736 0
    endloop
  endfacet
  facet normal -0.956939 -0.290291 0
    outer loop
      vertex 0.0288219 1.20736 16
      vertex 0.114181 0.925975 0
      vertex 0.114181 0.925975 16
    endloop
  endfacet
  facet normal 0.471259 0.881995 -0
    outer loop
      vertex 33.3334 23.7472 0
      vertex 33.074 23.8858 16
      vertex 33.3334 23.7472 16
    endloop
  endfacet
  facet normal 0.471259 0.881995 0
    outer loop
      vertex 33.074 23.8858 16
      vertex 33.3334 23.7472 0
      vertex 33.074 23.8858 0
    endloop
  endfacet
  facet normal 0.0979545 0.995191 -0
    outer loop
      vertex 32.7926 23.9712 0
      vertex 32.5 24 16
      vertex 32.7926 23.9712 16
    endloop
  endfacet
  facet normal 0.0979545 0.995191 0
    outer loop
      vertex 32.5 24 16
      vertex 32.7926 23.9712 0
      vertex 32.5 24 0
    endloop
  endfacet
  facet normal -0.956943 0.290276 0
    outer loop
      vertex 0.0288219 22.7926 0
      vertex 0.114181 23.074 16
      vertex 0.114181 23.074 0
    endloop
  endfacet
  facet normal -0.956943 0.290276 0
    outer loop
      vertex 0.114181 23.074 16
      vertex 0.0288219 22.7926 0
      vertex 0.0288219 22.7926 16
    endloop
  endfacet
  facet normal -0.881975 0.471296 0
    outer loop
      vertex 0.114181 23.074 0
      vertex 0.252795 23.3334 16
      vertex 0.252795 23.3334 0
    endloop
  endfacet
  facet normal -0.881975 0.471296 0
    outer loop
      vertex 0.252795 23.3334 16
      vertex 0.114181 23.074 0
      vertex 0.114181 23.074 16
    endloop
  endfacet
  facet normal 0.773078 0.634311 0
    outer loop
      vertex 33.7472 23.3334 16
      vertex 33.5607 23.5607 0
      vertex 33.5607 23.5607 16
    endloop
  endfacet
  facet normal 0.773078 0.634311 0
    outer loop
      vertex 33.5607 23.5607 0
      vertex 33.7472 23.3334 16
      vertex 33.7472 23.3334 0
    endloop
  endfacet
  facet normal 0.881995 0.471259 0
    outer loop
      vertex 33.8858 23.074 16
      vertex 33.7472 23.3334 0
      vertex 33.7472 23.3334 16
    endloop
  endfacet
  facet normal 0.881995 0.471259 0
    outer loop
      vertex 33.7472 23.3334 0
      vertex 33.8858 23.074 16
      vertex 33.8858 23.074 0
    endloop
  endfacet
  facet normal 0.956904 0.290404 0
    outer loop
      vertex 33.9712 22.7926 16
      vertex 33.8858 23.074 0
      vertex 33.8858 23.074 16
    endloop
  endfacet
  facet normal 0.956904 0.290404 0
    outer loop
      vertex 33.8858 23.074 0
      vertex 33.9712 22.7926 16
      vertex 33.9712 22.7926 0
    endloop
  endfacet
  facet normal 0.995191 0.0979545 0
    outer loop
      vertex 34 22.5 16
      vertex 33.9712 22.7926 0
      vertex 33.9712 22.7926 16
    endloop
  endfacet
  facet normal 0.995191 0.0979545 0
    outer loop
      vertex 33.9712 22.7926 0
      vertex 34 22.5 16
      vertex 34 22.5 0
    endloop
  endfacet
  facet normal 0.9569 -0.290418 0
    outer loop
      vertex 33.8858 0.925975 16
      vertex 33.9712 1.20736 0
      vertex 33.9712 1.20736 16
    endloop
  endfacet
  facet normal 0.9569 -0.290418 0
    outer loop
      vertex 33.9712 1.20736 0
      vertex 33.8858 0.925975 16
      vertex 33.8858 0.925975 0
    endloop
  endfacet
  facet normal 0.471296 -0.881975 0
    outer loop
      vertex 33.074 0.114181 0
      vertex 33.3334 0.252795 16
      vertex 33.074 0.114181 16
    endloop
  endfacet
  facet normal 0.471296 -0.881975 0
    outer loop
      vertex 33.3334 0.252795 16
      vertex 33.074 0.114181 0
      vertex 33.3334 0.252795 0
    endloop
  endfacet
  facet normal 0.773083 -0.634305 0
    outer loop
      vertex 33.5607 0.43934 16
      vertex 33.7472 0.666644 0
      vertex 33.7472 0.666644 16
    endloop
  endfacet
  facet normal 0.773083 -0.634305 0
    outer loop
      vertex 33.7472 0.666644 0
      vertex 33.5607 0.43934 16
      vertex 33.5607 0.43934 0
    endloop
  endfacet
  facet normal -0.290291 -0.956939 0
    outer loop
      vertex 0.925975 0.114181 0
      vertex 1.20736 0.0288219 16
      vertex 0.925975 0.114181 16
    endloop
  endfacet
  facet normal -0.290291 -0.956939 -0
    outer loop
      vertex 1.20736 0.0288219 16
      vertex 0.925975 0.114181 0
      vertex 1.20736 0.0288219 0
    endloop
  endfacet
  facet normal -0.881923 -0.471393 0
    outer loop
      vertex 0.252795 0.666644 0
      vertex 0.114181 0.925975 16
      vertex 0.114181 0.925975 0
    endloop
  endfacet
  facet normal -0.881923 -0.471393 0
    outer loop
      vertex 0.114181 0.925975 16
      vertex 0.252795 0.666644 0
      vertex 0.252795 0.666644 16
    endloop
  endfacet
  facet normal 0.290404 0.956904 -0
    outer loop
      vertex 33.074 23.8858 0
      vertex 32.7926 23.9712 16
      vertex 33.074 23.8858 16
    endloop
  endfacet
  facet normal 0.290404 0.956904 0
    outer loop
      vertex 32.7926 23.9712 16
      vertex 33.074 23.8858 0
      vertex 32.7926 23.9712 0
    endloop
  endfacet
  facet normal -0.290418 0.9569 0
    outer loop
      vertex 1.20736 23.9712 0
      vertex 0.925975 23.8858 16
      vertex 1.20736 23.9712 16
    endloop
  endfacet
  facet normal -0.290418 0.9569 0
    outer loop
      vertex 0.925975 23.8858 16
      vertex 1.20736 23.9712 0
      vertex 0.925975 23.8858 0
    endloop
  endfacet
  facet normal -0.0979413 0.995192 0
    outer loop
      vertex 1.5 24 0
      vertex 1.20736 23.9712 16
      vertex 1.5 24 16
    endloop
  endfacet
  facet normal -0.0979413 0.995192 0
    outer loop
      vertex 1.20736 23.9712 16
      vertex 1.5 24 0
      vertex 1.20736 23.9712 0
    endloop
  endfacet
  facet normal 1 -0 0
    outer loop
      vertex 2 17 10
      vertex 2 22 5
      vertex 2 22 16
    endloop
  endfacet
  facet normal 1 0 0
    outer loop
      vertex 2 17 4
      vertex 2 21 5
      vertex 2 17 10
    endloop
  endfacet
  facet normal 1 0 0
    outer loop
      vertex 2 22 5
      vertex 2 17 10
      vertex 2 21 5
    endloop
  endfacet
  facet normal 1 -0 0
    outer loop
      vertex 2 5.48479 14
      vertex 2 17 10
      vertex 2 22 16
    endloop
  endfacet
  facet normal 1 0 0
    outer loop
      vertex 2 5.48479 2
      vertex 2 7 10
      vertex 2 5.48479 14
    endloop
  endfacet
  facet normal 1 0 0
    outer loop
      vertex 2 17 10
      vertex 2 5.48479 14
      vertex 2 7 10
    endloop
  endfacet
  facet normal 1 -0 0
    outer loop
      vertex 2 2 16
      vertex 2 5.48479 14
      vertex 2 22 16
    endloop
  endfacet
  facet normal 1 0 0
    outer loop
      vertex 2 5.48479 14
      vertex 2 2 16
      vertex 2 2.51521 14
    endloop
  endfacet
  facet normal 1 0 0
    outer loop
      vertex 2 2 5
      vertex 2 2.51521 14
      vertex 2 2 16
    endloop
  endfacet
  facet normal 1 0 0
    outer loop
      vertex 2 2.51521 14
      vertex 2 2 5
      vertex 2 2.51521 5
    endloop
  endfacet
  facet normal 1 0 0
    outer loop
      vertex 2 21 5
      vertex 2 17 4
      vertex 2 21 2
    endloop
  endfacet
  facet normal 1 0 0
    outer loop
      vertex 2 5.48479 2
      vertex 2 17 4
      vertex 2 7 4
    endloop
  endfacet
  facet normal 1 0 0
    outer loop
      vertex 2 17 4
      vertex 2 5.48479 2
      vertex 2 21 2
    endloop
  endfacet
  facet normal 1 0 0
    outer loop
      vertex 2 7 10
      vertex 2 5.48479 2
      vertex 2 7 4
    endloop
  endfacet
  facet normal -1 0 0
    outer loop
      vertex 32 17 10
      vertex 32 18.5152 2
      vertex 32 17 4
    endloop
  endfacet
  facet normal -1 0 0
    outer loop
      vertex 32 18.5152 2
      vertex 32 7 4
      vertex 32 17 4
    endloop
  endfacet
  facet normal -1 0 0
    outer loop
      vertex 32 3 5
      vertex 32 7 4
      vertex 32 3 2
    endloop
  endfacet
  facet normal -1 0 0
    outer loop
      vertex 32 3 2
      vertex 32 7 4
      vertex 32 18.5152 2
    endloop
  endfacet
  facet normal -1 0 0
    outer loop
      vertex 32 21.4848 14
      vertex 32 22 5
      vertex 32 21.4848 5
    endloop
  endfacet
  facet normal -1 0 0
    outer loop
      vertex 32 22 5
      vertex 32 21.4848 14
      vertex 32 22 16
    endloop
  endfacet
  facet normal -1 0 0
    outer loop
      vertex 32 18.5152 14
      vertex 32 22 16
      vertex 32 21.4848 14
    endloop
  endfacet
  facet normal -1 0 0
    outer loop
      vertex 32 18.5152 2
      vertex 32 17 10
      vertex 32 18.5152 14
    endloop
  endfacet
  facet normal -1 0 0
    outer loop
      vertex 32 7 10
      vertex 32 18.5152 14
      vertex 32 17 10
    endloop
  endfacet
  facet normal -1 0 0
    outer loop
      vertex 32 2 16
      vertex 32 18.5152 14
      vertex 32 7 10
    endloop
  endfacet
  facet normal -1 0 0
    outer loop
      vertex 32 7 4
      vertex 32 3 5
      vertex 32 7 10
    endloop
  endfacet
  facet normal -1 0 0
    outer loop
      vertex 32 2 5
      vertex 32 7 10
      vertex 32 3 5
    endloop
  endfacet
  facet normal -1 0 0
    outer loop
      vertex 32 18.5152 14
      vertex 32 2 16
      vertex 32 22 16
    endloop
  endfacet
  facet normal -1 0 0
    outer loop
      vertex 32 2 16
      vertex 32 7 10
      vertex 32 2 5
    endloop
  endfacet
  facet normal 0 0 1
    outer loop
      vertex 2 21 2
      vertex 27.5 20 2
      vertex 27.548 20.4877 2
    endloop
  endfacet
  facet normal 0 0 1
    outer loop
      vertex 2 21 2
      vertex 27.548 20.4877 2
      vertex 27.6903 20.9567 2
    endloop
  endfacet
  facet normal -0 0 1
    outer loop
      vertex 2 21 2
      vertex 27.6903 20.9567 2
      vertex 27.7134 21 2
    endloop
  endfacet
  facet normal 0 0 1
    outer loop
      vertex 27.5 20 2
      vertex 6.45196 4.48773 2
      vertex 6.5 4 2
    endloop
  endfacet
  facet normal 0 0 1
    outer loop
      vertex 27.5 20 2
      vertex 6.3097 4.95671 2
      vertex 6.45196 4.48773 2
    endloop
  endfacet
  facet normal 0 0 1
    outer loop
      vertex 27.5 20 2
      vertex 6.07867 5.38893 2
      vertex 6.3097 4.95671 2
    endloop
  endfacet
  facet normal 0 0 1
    outer loop
      vertex 27.5 20 2
      vertex 5.76777 5.76777 2
      vertex 6.07867 5.38893 2
    endloop
  endfacet
  facet normal 0 0 1
    outer loop
      vertex 27.5 20 2
      vertex 2 21 2
      vertex 5.76777 5.76777 2
    endloop
  endfacet
  facet normal 0 0 1
    outer loop
      vertex 5.76777 5.76777 2
      vertex 2 21 2
      vertex 5.38893 6.07867 2
    endloop
  endfacet
  facet normal 0 0 1
    outer loop
      vertex 5.38893 6.07867 2
      vertex 2 21 2
      vertex 4.95671 6.3097 2
    endloop
  endfacet
  facet normal 0 0 1
    outer loop
      vertex 4.95671 6.3097 2
      vertex 2 21 2
      vertex 4.48773 6.45196 2
    endloop
  endfacet
  facet normal 0 0 1
    outer loop
      vertex 4.48773 6.45196 2
      vertex 2 21 2
      vertex 4 6.5 2
    endloop
  endfacet
  facet normal 0 0 1
    outer loop
      vertex 4 6.5 2
      vertex 2 21 2
      vertex 3.51227 6.45196 2
    endloop
  endfacet
  facet normal 0 0 1
    outer loop
      vertex 3.51227 6.45196 2
      vertex 2 21 2
      vertex 3.04329 6.3097 2
    endloop
  endfacet
  facet normal 0 0 1
    outer loop
      vertex 3.04329 6.3097 2
      vertex 2 21 2
      vertex 2.61107 6.07867 2
    endloop
  endfacet
  facet normal 0 0 1
    outer loop
      vertex 2 21 2
      vertex 2.23223 5.76777 2
      vertex 2.61107 6.07867 2
    endloop
  endfacet
  facet normal 0 0 1
    outer loop
      vertex 2.23223 5.76777 2
      vertex 2 21 2
      vertex 2 5.48479 2
    endloop
  endfacet
  facet normal -0 0 1
    outer loop
      vertex 31.7678 18.2322 2
      vertex 32 3 2
      vertex 32 18.5152 2
    endloop
  endfacet
  facet normal -0 0 1
    outer loop
      vertex 31.3889 17.9213 2
      vertex 32 3 2
      vertex 31.7678 18.2322 2
    endloop
  endfacet
  facet normal -0 0 1
    outer loop
      vertex 30.9567 17.6903 2
      vertex 32 3 2
      vertex 31.3889 17.9213 2
    endloop
  endfacet
  facet normal -0 0 1
    outer loop
      vertex 30.4877 17.548 2
      vertex 32 3 2
      vertex 30.9567 17.6903 2
    endloop
  endfacet
  facet normal -0 0 1
    outer loop
      vertex 30 17.5 2
      vertex 32 3 2
      vertex 30.4877 17.548 2
    endloop
  endfacet
  facet normal 0 0 1
    outer loop
      vertex 29.5123 17.548 2
      vertex 32 3 2
      vertex 30 17.5 2
    endloop
  endfacet
  facet normal 0 0 1
    outer loop
      vertex 29.0433 17.6903 2
      vertex 32 3 2
      vertex 29.5123 17.548 2
    endloop
  endfacet
  facet normal 0 0 1
    outer loop
      vertex 28.6111 17.9213 2
      vertex 32 3 2
      vertex 29.0433 17.6903 2
    endloop
  endfacet
  facet normal 0 0 1
    outer loop
      vertex 28.2322 18.2322 2
      vertex 32 3 2
      vertex 28.6111 17.9213 2
    endloop
  endfacet
  facet normal 0 0 1
    outer loop
      vertex 6.5 4 2
      vertex 28.2322 18.2322 2
      vertex 27.9213 18.6111 2
    endloop
  endfacet
  facet normal 0 0 1
    outer loop
      vertex 6.5 4 2
      vertex 27.9213 18.6111 2
      vertex 27.6903 19.0433 2
    endloop
  endfacet
  facet normal 0 0 1
    outer loop
      vertex 6.5 4 2
      vertex 27.6903 19.0433 2
      vertex 27.548 19.5123 2
    endloop
  endfacet
  facet normal 0 0 1
    outer loop
      vertex 6.5 4 2
      vertex 27.548 19.5123 2
      vertex 27.5 20 2
    endloop
  endfacet
  facet normal 0 0 1
    outer loop
      vertex 28.2322 18.2322 2
      vertex 6.5 4 2
      vertex 32 3 2
    endloop
  endfacet
  facet normal -0 0 1
    outer loop
      vertex 6.45196 3.51227 2
      vertex 32 3 2
      vertex 6.5 4 2
    endloop
  endfacet
  facet normal -0 0 1
    outer loop
      vertex 6.3097 3.04329 2
      vertex 32 3 2
      vertex 6.45196 3.51227 2
    endloop
  endfacet
  facet normal 0 0 1
    outer loop
      vertex 32 3 2
      vertex 6.3097 3.04329 2
      vertex 6.28656 3 2
    endloop
  endfacet
  facet normal 0 1 0
    outer loop
      vertex 32 2 16
      vertex 5.48479 2 14
      vertex 2 2 16
    endloop
  endfacet
  facet normal 0 1 -0
    outer loop
      vertex 32 2 5
      vertex 5.48479 2 14
      vertex 32 2 16
    endloop
  endfacet
  facet normal 0 1 0
    outer loop
      vertex 5.48479 2 14
      vertex 32 2 5
      vertex 5.48479 2 5
    endloop
  endfacet
  facet normal 0 1 -0
    outer loop
      vertex 2.51521 2 14
      vertex 2 2 16
      vertex 5.48479 2 14
    endloop
  endfacet
  facet normal 0 1 0
    outer loop
      vertex 2 2 5
      vertex 2.51521 2 14
      vertex 2.51521 2 5
    endloop
  endfacet
  facet normal 0 1 0
    outer loop
      vertex 2.51521 2 14
      vertex 2 2 5
      vertex 2 2 16
    endloop
  endfacet
  facet normal 0 -1 0
    outer loop
      vertex 2 22 16
      vertex 28.5152 22 14
      vertex 32 22 16
    endloop
  endfacet
  facet normal 0 -1 0
    outer loop
      vertex 2 22 5
      vertex 28.5152 22 14
      vertex 2 22 16
    endloop
  endfacet
  facet normal 0 -1 -0
    outer loop
      vertex 28.5152 22 14
      vertex 2 22 5
      vertex 28.5152 22 5
    endloop
  endfacet
  facet normal 0 -1 0
    outer loop
      vertex 31.4848 22 14
      vertex 32 22 16
      vertex 28.5152 22 14
    endloop
  endfacet
  facet normal 0 -1 0
    outer loop
      vertex 32 22 5
      vertex 31.4848 22 14
      vertex 31.4848 22 5
    endloop
  endfacet
  facet normal 0 -1 0
    outer loop
      vertex 31.4848 22 14
      vertex 32 22 5
      vertex 32 22 16
    endloop
  endfacet
  facet normal -0 0 1
    outer loop
      vertex 6.28656 3 5
      vertex 32 2 5
      vertex 32 3 5
    endloop
  endfacet
  facet normal -0 0 1
    outer loop
      vertex 6.07867 2.61107 5
      vertex 32 2 5
      vertex 6.28656 3 5
    endloop
  endfacet
  facet normal -0 0 1
    outer loop
      vertex 5.76777 2.23223 5
      vertex 32 2 5
      vertex 6.07867 2.61107 5
    endloop
  endfacet
  facet normal 0 0 1
    outer loop
      vertex 32 2 5
      vertex 5.76777 2.23223 5
      vertex 5.48479 2 5
    endloop
  endfacet
  facet normal 0 0 1
    outer loop
      vertex 2.23223 2.23223 5
      vertex 2 2 5
      vertex 2.51521 2 5
    endloop
  endfacet
  facet normal 0 0 1
    outer loop
      vertex 2 2 5
      vertex 2.23223 2.23223 5
      vertex 2 2.51521 5
    endloop
  endfacet
  facet normal 0 1 -0
    outer loop
      vertex 32 3 2
      vertex 6.28656 3 5
      vertex 32 3 5
    endloop
  endfacet
  facet normal 0 1 0
    outer loop
      vertex 6.28656 3 5
      vertex 32 3 2
      vertex 6.28656 3 2
    endloop
  endfacet
  facet normal -0 0 1
    outer loop
      vertex 2 22 5
      vertex 28.2322 21.7678 5
      vertex 28.5152 22 5
    endloop
  endfacet
  facet normal 0 0 1
    outer loop
      vertex 2 22 5
      vertex 27.9213 21.3889 5
      vertex 28.2322 21.7678 5
    endloop
  endfacet
  facet normal 0 0 1
    outer loop
      vertex 2 22 5
      vertex 27.7134 21 5
      vertex 27.9213 21.3889 5
    endloop
  endfacet
  facet normal 0 0 1
    outer loop
      vertex 27.7134 21 5
      vertex 2 22 5
      vertex 2 21 5
    endloop
  endfacet
  facet normal 0 0 1
    outer loop
      vertex 32 22 5
      vertex 31.7678 21.7678 5
      vertex 32 21.4848 5
    endloop
  endfacet
  facet normal 0 -0 1
    outer loop
      vertex 31.7678 21.7678 5
      vertex 32 22 5
      vertex 31.4848 22 5
    endloop
  endfacet
  facet normal 0 -1 0
    outer loop
      vertex 2 21 2
      vertex 27.7134 21 5
      vertex 2 21 5
    endloop
  endfacet
  facet normal 0 -1 -0
    outer loop
      vertex 27.7134 21 5
      vertex 2 21 2
      vertex 27.7134 21 2
    endloop
  endfacet
  facet normal 0.995184 0.0980228 0
    outer loop
      vertex 6.5 4 14
      vertex 6.45196 4.48773 2
      vertex 6.45196 4.48773 14
    endloop
  endfacet
  facet normal 0.995184 0.0980228 0
    outer loop
      vertex 6.45196 4.48773 2
      vertex 6.5 4 14
      vertex 6.5 4 2
    endloop
  endfacet
  facet normal -0.0980228 0.995184 0
    outer loop
      vertex 4 6.5 2
      vertex 3.51227 6.45196 14
      vertex 4 6.5 14
    endloop
  endfacet
  facet normal -0.0980228 0.995184 0
    outer loop
      vertex 3.51227 6.45196 14
      vertex 4 6.5 2
      vertex 3.51227 6.45196 2
    endloop
  endfacet
  facet normal 0.634386 0.773016 -0
    outer loop
      vertex 5.76777 5.76777 2
      vertex 5.38893 6.07867 14
      vertex 5.76777 5.76777 14
    endloop
  endfacet
  facet normal 0.634386 0.773016 0
    outer loop
      vertex 5.38893 6.07867 14
      vertex 5.76777 5.76777 2
      vertex 5.38893 6.07867 2
    endloop
  endfacet
  facet normal -0.773018 0.634384 0
    outer loop
      vertex 2 5.48479 2
      vertex 2.23223 5.76777 14
      vertex 2.23223 5.76777 2
    endloop
  endfacet
  facet normal -0.773018 0.634384 0
    outer loop
      vertex 2.23223 5.76777 14
      vertex 2 5.48479 2
      vertex 2 5.48479 14
    endloop
  endfacet
  facet normal -0.471402 0.881918 0
    outer loop
      vertex 3.04329 6.3097 2
      vertex 2.61107 6.07867 14
      vertex 3.04329 6.3097 14
    endloop
  endfacet
  facet normal -0.471402 0.881918 0
    outer loop
      vertex 2.61107 6.07867 14
      vertex 3.04329 6.3097 2
      vertex 2.61107 6.07867 2
    endloop
  endfacet
  facet normal 0.881913 -0.471413 0
    outer loop
      vertex 6.3097 3.04329 14
      vertex 6.28656 3 5
      vertex 6.3097 3.04329 2
    endloop
  endfacet
  facet normal 0.881918 -0.471402 -6.39564e-08
    outer loop
      vertex 6.07867 2.61107 14
      vertex 6.28656 3 5
      vertex 6.3097 3.04329 14
    endloop
  endfacet
  facet normal 0.881919 -0.471401 0
    outer loop
      vertex 6.28656 3 5
      vertex 6.07867 2.61107 14
      vertex 6.07867 2.61107 5
    endloop
  endfacet
  facet normal 0.881913 -0.471413 0
    outer loop
      vertex 6.3097 3.04329 2
      vertex 6.28656 3 5
      vertex 6.28656 3 2
    endloop
  endfacet
  facet normal 0.881918 0.471402 0
    outer loop
      vertex 6.3097 4.95671 14
      vertex 6.07867 5.38893 2
      vertex 6.07867 5.38893 14
    endloop
  endfacet
  facet normal 0.881918 0.471402 0
    outer loop
      vertex 6.07867 5.38893 2
      vertex 6.3097 4.95671 14
      vertex 6.3097 4.95671 2
    endloop
  endfacet
  facet normal 0.956942 0.290278 0
    outer loop
      vertex 6.45196 4.48773 14
      vertex 6.3097 4.95671 2
      vertex 6.3097 4.95671 14
    endloop
  endfacet
  facet normal 0.956942 0.290278 0
    outer loop
      vertex 6.3097 4.95671 2
      vertex 6.45196 4.48773 14
      vertex 6.45196 4.48773 2
    endloop
  endfacet
  facet normal 0.773016 0.634386 0
    outer loop
      vertex 6.07867 5.38893 14
      vertex 5.76777 5.76777 2
      vertex 5.76777 5.76777 14
    endloop
  endfacet
  facet normal 0.773016 0.634386 0
    outer loop
      vertex 5.76777 5.76777 2
      vertex 6.07867 5.38893 14
      vertex 6.07867 5.38893 2
    endloop
  endfacet
  facet normal 0.290278 0.956942 -0
    outer loop
      vertex 4.95671 6.3097 2
      vertex 4.48773 6.45196 14
      vertex 4.95671 6.3097 14
    endloop
  endfacet
  facet normal 0.290278 0.956942 0
    outer loop
      vertex 4.48773 6.45196 14
      vertex 4.95671 6.3097 2
      vertex 4.48773 6.45196 2
    endloop
  endfacet
  facet normal 0.0980228 0.995184 -0
    outer loop
      vertex 4.48773 6.45196 2
      vertex 4 6.5 14
      vertex 4.48773 6.45196 14
    endloop
  endfacet
  facet normal 0.0980228 0.995184 0
    outer loop
      vertex 4 6.5 14
      vertex 4.48773 6.45196 2
      vertex 4 6.5 2
    endloop
  endfacet
  facet normal 0.471402 0.881918 -0
    outer loop
      vertex 5.38893 6.07867 2
      vertex 4.95671 6.3097 14
      vertex 5.38893 6.07867 14
    endloop
  endfacet
  facet normal 0.471402 0.881918 0
    outer loop
      vertex 4.95671 6.3097 14
      vertex 5.38893 6.07867 2
      vertex 4.95671 6.3097 2
    endloop
  endfacet
  facet normal 0 0 1
    outer loop
      vertex 6.45196 4.48773 14
      vertex 5.17694 4.23411 14
      vertex 5.2 4 14
    endloop
  endfacet
  facet normal 0 0 1
    outer loop
      vertex 5.76777 5.76777 14
      vertex 5.10865 4.45922 14
      vertex 5.17694 4.23411 14
    endloop
  endfacet
  facet normal 0 0 1
    outer loop
      vertex 5.76777 5.76777 14
      vertex 4.99776 4.66668 14
      vertex 5.10865 4.45922 14
    endloop
  endfacet
  facet normal 0 0 1
    outer loop
      vertex 4.66668 4.99776 14
      vertex 5.38893 6.07867 14
      vertex 4.95671 6.3097 14
    endloop
  endfacet
  facet normal 0 0 1
    outer loop
      vertex 5.76777 5.76777 14
      vertex 4.84853 4.84853 14
      vertex 4.99776 4.66668 14
    endloop
  endfacet
  facet normal 0 0 1
    outer loop
      vertex 5.38893 6.07867 14
      vertex 4.66668 4.99776 14
      vertex 4.84853 4.84853 14
    endloop
  endfacet
  facet normal 0 0 1
    outer loop
      vertex 4.45922 5.10865 14
      vertex 4.95671 6.3097 14
      vertex 4.48773 6.45196 14
    endloop
  endfacet
  facet normal 0 0 1
    outer loop
      vertex 4.95671 6.3097 14
      vertex 4.45922 5.10865 14
      vertex 4.66668 4.99776 14
    endloop
  endfacet
  facet normal 0 0 1
    outer loop
      vertex 4.48773 6.45196 14
      vertex 4.23411 5.17694 14
      vertex 4.45922 5.10865 14
    endloop
  endfacet
  facet normal 0 0 1
    outer loop
      vertex 4 6.5 14
      vertex 4.23411 5.17694 14
      vertex 4.48773 6.45196 14
    endloop
  endfacet
  facet normal 0 0 1
    outer loop
      vertex 4 6.5 14
      vertex 4 5.2 14
      vertex 4.23411 5.17694 14
    endloop
  endfacet
  facet normal 0 0 1
    outer loop
      vertex 4 6.5 14
      vertex 3.76589 5.17694 14
      vertex 4 5.2 14
    endloop
  endfacet
  facet normal -0 0 1
    outer loop
      vertex 3.51227 6.45196 14
      vertex 3.76589 5.17694 14
      vertex 4 6.5 14
    endloop
  endfacet
  facet normal 0 0 1
    outer loop
      vertex 3.76589 5.17694 14
      vertex 3.51227 6.45196 14
      vertex 3.54078 5.10865 14
    endloop
  endfacet
  facet normal -0 0 1
    outer loop
      vertex 3.04329 6.3097 14
      vertex 3.54078 5.10865 14
      vertex 3.51227 6.45196 14
    endloop
  endfacet
  facet normal 0 0 1
    outer loop
      vertex 3.54078 5.10865 14
      vertex 3.04329 6.3097 14
      vertex 3.33331 4.99776 14
    endloop
  endfacet
  facet normal -0 0 1
    outer loop
      vertex 2.61107 6.07867 14
      vertex 3.33331 4.99776 14
      vertex 3.04329 6.3097 14
    endloop
  endfacet
  facet normal 0 0 1
    outer loop
      vertex 3.33331 4.99776 14
      vertex 2.61107 6.07867 14
      vertex 3.15147 4.84853 14
    endloop
  endfacet
  facet normal -0 0 1
    outer loop
      vertex 2.23223 5.76777 14
      vertex 3.15147 4.84853 14
      vertex 2.61107 6.07867 14
    endloop
  endfacet
  facet normal -0 0 1
    outer loop
      vertex 2 5.48479 14
      vertex 3.15147 4.84853 14
      vertex 2.23223 5.76777 14
    endloop
  endfacet
  facet normal 0 0 1
    outer loop
      vertex 3.00224 4.66668 14
      vertex 2 5.48479 14
      vertex 2.89134 4.45922 14
    endloop
  endfacet
  facet normal 0 0 1
    outer loop
      vertex 3.15147 4.84853 14
      vertex 2 5.48479 14
      vertex 3.00224 4.66668 14
    endloop
  endfacet
  facet normal 0 0 1
    outer loop
      vertex 5.2 4 14
      vertex 6.5 4 14
      vertex 6.45196 4.48773 14
    endloop
  endfacet
  facet normal 0 0 1
    outer loop
      vertex 5.17694 4.23411 14
      vertex 6.45196 4.48773 14
      vertex 6.3097 4.95671 14
    endloop
  endfacet
  facet normal 0 0 1
    outer loop
      vertex 6.5 4 14
      vertex 5.2 4 14
      vertex 6.45196 3.51227 14
    endloop
  endfacet
  facet normal 0 0 1
    outer loop
      vertex 5.17694 4.23411 14
      vertex 6.3097 4.95671 14
      vertex 6.07867 5.38893 14
    endloop
  endfacet
  facet normal -0 0 1
    outer loop
      vertex 5.17694 3.76589 14
      vertex 6.45196 3.51227 14
      vertex 5.2 4 14
    endloop
  endfacet
  facet normal 0 0 1
    outer loop
      vertex 5.17694 4.23411 14
      vertex 6.07867 5.38893 14
      vertex 5.76777 5.76777 14
    endloop
  endfacet
  facet normal 0 0 1
    outer loop
      vertex 6.45196 3.51227 14
      vertex 5.17694 3.76589 14
      vertex 6.3097 3.04329 14
    endloop
  endfacet
  facet normal -0 0 1
    outer loop
      vertex 5.10865 3.54078 14
      vertex 6.3097 3.04329 14
      vertex 5.17694 3.76589 14
    endloop
  endfacet
  facet normal 0 0 1
    outer loop
      vertex 4.84853 4.84853 14
      vertex 5.76777 5.76777 14
      vertex 5.38893 6.07867 14
    endloop
  endfacet
  facet normal 0 0 1
    outer loop
      vertex 6.3097 3.04329 14
      vertex 5.10865 3.54078 14
      vertex 6.07867 2.61107 14
    endloop
  endfacet
  facet normal -0 0 1
    outer loop
      vertex 4.99776 3.33331 14
      vertex 6.07867 2.61107 14
      vertex 5.10865 3.54078 14
    endloop
  endfacet
  facet normal 0 0 1
    outer loop
      vertex 6.07867 2.61107 14
      vertex 4.99776 3.33331 14
      vertex 5.76777 2.23223 14
    endloop
  endfacet
  facet normal -0 0 1
    outer loop
      vertex 4.84853 3.15147 14
      vertex 5.76777 2.23223 14
      vertex 4.99776 3.33331 14
    endloop
  endfacet
  facet normal 0 0 1
    outer loop
      vertex 5.76777 2.23223 14
      vertex 4.84853 3.15147 14
      vertex 5.48479 2 14
    endloop
  endfacet
  facet normal -0 0 1
    outer loop
      vertex 4.66668 3.00224 14
      vertex 5.48479 2 14
      vertex 4.84853 3.15147 14
    endloop
  endfacet
  facet normal -0 0 1
    outer loop
      vertex 4.45922 2.89134 14
      vertex 5.48479 2 14
      vertex 4.66668 3.00224 14
    endloop
  endfacet
  facet normal -0 0 1
    outer loop
      vertex 4.23411 2.82306 14
      vertex 5.48479 2 14
      vertex 4.45922 2.89134 14
    endloop
  endfacet
  facet normal -0 0 1
    outer loop
      vertex 4 2.8 14
      vertex 5.48479 2 14
      vertex 4.23411 2.82306 14
    endloop
  endfacet
  facet normal 0 0 1
    outer loop
      vertex 2.51521 2 14
      vertex 4 2.8 14
      vertex 3.76589 2.82306 14
    endloop
  endfacet
  facet normal 0 0 1
    outer loop
      vertex 2.51521 2 14
      vertex 3.76589 2.82306 14
      vertex 3.54078 2.89134 14
    endloop
  endfacet
  facet normal 0 0 1
    outer loop
      vertex 4 2.8 14
      vertex 2.51521 2 14
      vertex 5.48479 2 14
    endloop
  endfacet
  facet normal 0 0 1
    outer loop
      vertex 3.33331 3.00224 14
      vertex 2.51521 2 14
      vertex 3.54078 2.89134 14
    endloop
  endfacet
  facet normal 0 0 1
    outer loop
      vertex 3.15147 3.15147 14
      vertex 2.51521 2 14
      vertex 3.33331 3.00224 14
    endloop
  endfacet
  facet normal 0 0 1
    outer loop
      vertex 2 2.51521 14
      vertex 3.15147 3.15147 14
      vertex 3.00224 3.33331 14
    endloop
  endfacet
  facet normal 0 0 1
    outer loop
      vertex 2 2.51521 14
      vertex 3.00224 3.33331 14
      vertex 2.89134 3.54078 14
    endloop
  endfacet
  facet normal 0 0 1
    outer loop
      vertex 2 2.51521 14
      vertex 2.89134 3.54078 14
      vertex 2.82306 3.76589 14
    endloop
  endfacet
  facet normal 0 0 1
    outer loop
      vertex 2 2.51521 14
      vertex 2.82306 3.76589 14
      vertex 2.8 4 14
    endloop
  endfacet
  facet normal 0 0 1
    outer loop
      vertex 2.89134 4.45922 14
      vertex 2 5.48479 14
      vertex 2.82306 4.23411 14
    endloop
  endfacet
  facet normal 0 0 1
    outer loop
      vertex 2.82306 4.23411 14
      vertex 2 5.48479 14
      vertex 2.8 4 14
    endloop
  endfacet
  facet normal 0 0 1
    outer loop
      vertex 2 2.51521 14
      vertex 2.8 4 14
      vertex 2 5.48479 14
    endloop
  endfacet
  facet normal 0 0 1
    outer loop
      vertex 3.15147 3.15147 14
      vertex 2 2.51521 14
      vertex 2.23223 2.23223 14
    endloop
  endfacet
  facet normal 0 0 1
    outer loop
      vertex 3.15147 3.15147 14
      vertex 2.23223 2.23223 14
      vertex 2.51521 2 14
    endloop
  endfacet
  facet normal -0.634386 0.773016 0
    outer loop
      vertex 2.61107 6.07867 2
      vertex 2.23223 5.76777 14
      vertex 2.61107 6.07867 14
    endloop
  endfacet
  facet normal -0.634386 0.773016 0
    outer loop
      vertex 2.23223 5.76777 14
      vertex 2.61107 6.07867 2
      vertex 2.23223 5.76777 2
    endloop
  endfacet
  facet normal -0.290278 0.956942 0
    outer loop
      vertex 3.51227 6.45196 2
      vertex 3.04329 6.3097 14
      vertex 3.51227 6.45196 14
    endloop
  endfacet
  facet normal -0.290278 0.956942 0
    outer loop
      vertex 3.04329 6.3097 14
      vertex 3.51227 6.45196 2
      vertex 3.04329 6.3097 2
    endloop
  endfacet
  facet normal 0.634384 -0.773018 0
    outer loop
      vertex 5.48479 2 5
      vertex 5.76777 2.23223 14
      vertex 5.48479 2 14
    endloop
  endfacet
  facet normal 0.634384 -0.773018 0
    outer loop
      vertex 5.76777 2.23223 14
      vertex 5.48479 2 5
      vertex 5.76777 2.23223 5
    endloop
  endfacet
  facet normal -0.773018 -0.634384 0
    outer loop
      vertex 2.23223 2.23223 5
      vertex 2 2.51521 14
      vertex 2 2.51521 5
    endloop
  endfacet
  facet normal -0.773018 -0.634384 0
    outer loop
      vertex 2 2.51521 14
      vertex 2.23223 2.23223 5
      vertex 2.23223 2.23223 14
    endloop
  endfacet
  facet normal -0.634384 -0.773018 0
    outer loop
      vertex 2.23223 2.23223 5
      vertex 2.51521 2 14
      vertex 2.23223 2.23223 14
    endloop
  endfacet
  facet normal -0.634384 -0.773018 -0
    outer loop
      vertex 2.51521 2 14
      vertex 2.23223 2.23223 5
      vertex 2.51521 2 5
    endloop
  endfacet
  facet normal 0.773016 -0.634386 0
    outer loop
      vertex 5.76777 2.23223 14
      vertex 6.07867 2.61107 5
      vertex 6.07867 2.61107 14
    endloop
  endfacet
  facet normal 0.773016 -0.634386 0
    outer loop
      vertex 6.07867 2.61107 5
      vertex 5.76777 2.23223 14
      vertex 5.76777 2.23223 5
    endloop
  endfacet
  facet normal 0.956942 -0.290278 0
    outer loop
      vertex 6.3097 3.04329 14
      vertex 6.45196 3.51227 2
      vertex 6.45196 3.51227 14
    endloop
  endfacet
  facet normal 0.956942 -0.290278 0
    outer loop
      vertex 6.45196 3.51227 2
      vertex 6.3097 3.04329 14
      vertex 6.3097 3.04329 2
    endloop
  endfacet
  facet normal 0.995184 -0.0980228 0
    outer loop
      vertex 6.45196 3.51227 14
      vertex 6.5 4 2
      vertex 6.5 4 14
    endloop
  endfacet
  facet normal 0.995184 -0.0980228 0
    outer loop
      vertex 6.5 4 2
      vertex 6.45196 3.51227 14
      vertex 6.45196 3.51227 2
    endloop
  endfacet
  facet normal 0.0979479 -0.995192 0
    outer loop
      vertex 30 17.5 2
      vertex 30.4877 17.548 14
      vertex 30 17.5 14
    endloop
  endfacet
  facet normal 0.0979479 -0.995192 0
    outer loop
      vertex 30.4877 17.548 14
      vertex 30 17.5 2
      vertex 30.4877 17.548 2
    endloop
  endfacet
  facet normal -0.634326 -0.773066 0
    outer loop
      vertex 28.2322 18.2322 2
      vertex 28.6111 17.9213 14
      vertex 28.2322 18.2322 14
    endloop
  endfacet
  facet normal -0.634326 -0.773066 -0
    outer loop
      vertex 28.6111 17.9213 14
      vertex 28.2322 18.2322 2
      vertex 28.6111 17.9213 2
    endloop
  endfacet
  facet normal 0.634308 0.77308 -0
    outer loop
      vertex 31.7678 21.7678 5
      vertex 31.4848 22 14
      vertex 31.7678 21.7678 14
    endloop
  endfacet
  facet normal 0.634308 0.77308 0
    outer loop
      vertex 31.4848 22 14
      vertex 31.7678 21.7678 5
      vertex 31.4848 22 5
    endloop
  endfacet
  facet normal -0.773066 0.634326 0
    outer loop
      vertex 27.9213 21.3889 5
      vertex 28.2322 21.7678 14
      vertex 28.2322 21.7678 5
    endloop
  endfacet
  facet normal -0.773066 0.634326 0
    outer loop
      vertex 28.2322 21.7678 14
      vertex 27.9213 21.3889 5
      vertex 27.9213 21.3889 14
    endloop
  endfacet
  facet normal 0.77308 -0.634308 0
    outer loop
      vertex 31.7678 18.2322 14
      vertex 32 18.5152 2
      vertex 32 18.5152 14
    endloop
  endfacet
  facet normal 0.77308 -0.634308 0
    outer loop
      vertex 32 18.5152 2
      vertex 31.7678 18.2322 14
      vertex 31.7678 18.2322 2
    endloop
  endfacet
  facet normal 0.77308 0.634308 0
    outer loop
      vertex 32 21.4848 14
      vertex 31.7678 21.7678 5
      vertex 31.7678 21.7678 14
    endloop
  endfacet
  facet normal 0.77308 0.634308 0
    outer loop
      vertex 31.7678 21.7678 5
      vertex 32 21.4848 14
      vertex 32 21.4848 5
    endloop
  endfacet
  facet normal -0.956923 0.290341 0
    outer loop
      vertex 27.548 20.4877 2
      vertex 27.6903 20.9567 14
      vertex 27.6903 20.9567 2
    endloop
  endfacet
  facet normal -0.956923 0.290341 0
    outer loop
      vertex 27.6903 20.9567 14
      vertex 27.548 20.4877 2
      vertex 27.548 20.4877 14
    endloop
  endfacet
  facet normal -0.882297 0.470694 0
    outer loop
      vertex 27.7134 21 2
      vertex 27.6903 20.9567 2
      vertex 27.7134 21 5
    endloop
  endfacet
  facet normal -0.881894 0.471447 0
    outer loop
      vertex 27.7134 21 5
      vertex 27.9213 21.3889 14
      vertex 27.9213 21.3889 5
    endloop
  endfacet
  facet normal -0.881935 0.471372 4.18997e-06
    outer loop
      vertex 27.7134 21 5
      vertex 27.6903 20.9567 14
      vertex 27.9213 21.3889 14
    endloop
  endfacet
  facet normal -0.882297 0.470694 0
    outer loop
      vertex 27.6903 20.9567 14
      vertex 27.7134 21 5
      vertex 27.6903 20.9567 2
    endloop
  endfacet
  facet normal -0.995192 0.0979479 0
    outer loop
      vertex 27.5 20 2
      vertex 27.548 20.4877 14
      vertex 27.548 20.4877 2
    endloop
  endfacet
  facet normal -0.995192 0.0979479 0
    outer loop
      vertex 27.548 20.4877 14
      vertex 27.5 20 2
      vertex 27.5 20 14
    endloop
  endfacet
  facet normal 0 0 1
    outer loop
      vertex 30.8485 20.8485 14
      vertex 32 21.4848 14
      vertex 31.7678 21.7678 14
    endloop
  endfacet
  facet normal 0 0 1
    outer loop
      vertex 32 21.4848 14
      vertex 31.2 20 14
      vertex 32 18.5152 14
    endloop
  endfacet
  facet normal 0 0 1
    outer loop
      vertex 30.8485 20.8485 14
      vertex 31.7678 21.7678 14
      vertex 31.4848 22 14
    endloop
  endfacet
  facet normal -0 0 1
    outer loop
      vertex 31.1769 19.7659 14
      vertex 32 18.5152 14
      vertex 31.2 20 14
    endloop
  endfacet
  facet normal -0 0 1
    outer loop
      vertex 31.1087 19.5408 14
      vertex 32 18.5152 14
      vertex 31.1769 19.7659 14
    endloop
  endfacet
  facet normal 0 0 1
    outer loop
      vertex 32 21.4848 14
      vertex 31.1769 20.2341 14
      vertex 31.2 20 14
    endloop
  endfacet
  facet normal 0 0 1
    outer loop
      vertex 32 21.4848 14
      vertex 31.1087 20.4592 14
      vertex 31.1769 20.2341 14
    endloop
  endfacet
  facet normal 0 0 1
    outer loop
      vertex 32 21.4848 14
      vertex 30.9978 20.6667 14
      vertex 31.1087 20.4592 14
    endloop
  endfacet
  facet normal 0 0 1
    outer loop
      vertex 32 21.4848 14
      vertex 30.8485 20.8485 14
      vertex 30.9978 20.6667 14
    endloop
  endfacet
  facet normal 0 0 1
    outer loop
      vertex 31.4848 22 14
      vertex 30.6667 20.9978 14
      vertex 30.8485 20.8485 14
    endloop
  endfacet
  facet normal 0 0 1
    outer loop
      vertex 31.4848 22 14
      vertex 30.4592 21.1087 14
      vertex 30.6667 20.9978 14
    endloop
  endfacet
  facet normal 0 0 1
    outer loop
      vertex 31.4848 22 14
      vertex 30.2341 21.1769 14
      vertex 30.4592 21.1087 14
    endloop
  endfacet
  facet normal 0 0 1
    outer loop
      vertex 31.4848 22 14
      vertex 30 21.2 14
      vertex 30.2341 21.1769 14
    endloop
  endfacet
  facet normal -0 0 1
    outer loop
      vertex 28.5152 22 14
      vertex 30 21.2 14
      vertex 31.4848 22 14
    endloop
  endfacet
  facet normal 0 0 1
    outer loop
      vertex 30 21.2 14
      vertex 28.5152 22 14
      vertex 29.7659 21.1769 14
    endloop
  endfacet
  facet normal 0 0 1
    outer loop
      vertex 29.7659 21.1769 14
      vertex 28.5152 22 14
      vertex 29.5408 21.1087 14
    endloop
  endfacet
  facet normal 0 0 1
    outer loop
      vertex 28.5152 22 14
      vertex 29.3333 20.9978 14
      vertex 29.5408 21.1087 14
    endloop
  endfacet
  facet normal 0 0 1
    outer loop
      vertex 28.5152 22 14
      vertex 29.1515 20.8485 14
      vertex 29.3333 20.9978 14
    endloop
  endfacet
  facet normal -0 0 1
    outer loop
      vertex 28.2322 21.7678 14
      vertex 29.1515 20.8485 14
      vertex 28.5152 22 14
    endloop
  endfacet
  facet normal 0 0 1
    outer loop
      vertex 29.1515 20.8485 14
      vertex 28.2322 21.7678 14
      vertex 29.0022 20.6667 14
    endloop
  endfacet
  facet normal -0 0 1
    outer loop
      vertex 27.9213 21.3889 14
      vertex 29.0022 20.6667 14
      vertex 28.2322 21.7678 14
    endloop
  endfacet
  facet normal 0 0 1
    outer loop
      vertex 29.0022 20.6667 14
      vertex 27.9213 21.3889 14
      vertex 28.8913 20.4592 14
    endloop
  endfacet
  facet normal -0 0 1
    outer loop
      vertex 27.6903 20.9567 14
      vertex 28.8913 20.4592 14
      vertex 27.9213 21.3889 14
    endloop
  endfacet
  facet normal 0 0 1
    outer loop
      vertex 28.8913 20.4592 14
      vertex 27.6903 20.9567 14
      vertex 28.8231 20.2341 14
    endloop
  endfacet
  facet normal 0 0 1
    outer loop
      vertex 28.8 20 14
      vertex 28.2322 18.2322 14
      vertex 28.6111 17.9213 14
    endloop
  endfacet
  facet normal -0 0 1
    outer loop
      vertex 27.548 20.4877 14
      vertex 28.8231 20.2341 14
      vertex 27.6903 20.9567 14
    endloop
  endfacet
  facet normal 0 0 1
    outer loop
      vertex 28.8 20 14
      vertex 27.9213 18.6111 14
      vertex 28.2322 18.2322 14
    endloop
  endfacet
  facet normal 0 0 1
    outer loop
      vertex 28.8231 20.2341 14
      vertex 27.548 20.4877 14
      vertex 28.8 20 14
    endloop
  endfacet
  facet normal 0 0 1
    outer loop
      vertex 28.8 20 14
      vertex 27.6903 19.0433 14
      vertex 27.9213 18.6111 14
    endloop
  endfacet
  facet normal 0 0 1
    outer loop
      vertex 27.5 20 14
      vertex 28.8 20 14
      vertex 27.548 20.4877 14
    endloop
  endfacet
  facet normal 0 0 1
    outer loop
      vertex 28.8 20 14
      vertex 27.548 19.5123 14
      vertex 27.6903 19.0433 14
    endloop
  endfacet
  facet normal 0 0 1
    outer loop
      vertex 28.8 20 14
      vertex 27.5 20 14
      vertex 27.548 19.5123 14
    endloop
  endfacet
  facet normal -0 0 1
    outer loop
      vertex 30.9978 19.3333 14
      vertex 32 18.5152 14
      vertex 31.1087 19.5408 14
    endloop
  endfacet
  facet normal -0 0 1
    outer loop
      vertex 30.8485 19.1515 14
      vertex 32 18.5152 14
      vertex 30.9978 19.3333 14
    endloop
  endfacet
  facet normal 0 0 1
    outer loop
      vertex 32 18.5152 14
      vertex 30.8485 19.1515 14
      vertex 31.7678 18.2322 14
    endloop
  endfacet
  facet normal 0 0 1
    outer loop
      vertex 31.7678 18.2322 14
      vertex 30.8485 19.1515 14
      vertex 31.3889 17.9213 14
    endloop
  endfacet
  facet normal -0 0 1
    outer loop
      vertex 30.6667 19.0022 14
      vertex 31.3889 17.9213 14
      vertex 30.8485 19.1515 14
    endloop
  endfacet
  facet normal 0 0 1
    outer loop
      vertex 31.3889 17.9213 14
      vertex 30.6667 19.0022 14
      vertex 30.9567 17.6903 14
    endloop
  endfacet
  facet normal -0 0 1
    outer loop
      vertex 30.4592 18.8913 14
      vertex 30.9567 17.6903 14
      vertex 30.6667 19.0022 14
    endloop
  endfacet
  facet normal 0 0 1
    outer loop
      vertex 30.9567 17.6903 14
      vertex 30.4592 18.8913 14
      vertex 30.4877 17.548 14
    endloop
  endfacet
  facet normal -0 0 1
    outer loop
      vertex 30.2341 18.8231 14
      vertex 30.4877 17.548 14
      vertex 30.4592 18.8913 14
    endloop
  endfacet
  facet normal -0 0 1
    outer loop
      vertex 30 18.8 14
      vertex 30.4877 17.548 14
      vertex 30.2341 18.8231 14
    endloop
  endfacet
  facet normal 0 0 1
    outer loop
      vertex 30 18.8 14
      vertex 30 17.5 14
      vertex 30.4877 17.548 14
    endloop
  endfacet
  facet normal 0 0 1
    outer loop
      vertex 29.7659 18.8231 14
      vertex 30 17.5 14
      vertex 30 18.8 14
    endloop
  endfacet
  facet normal 0 0 1
    outer loop
      vertex 29.5123 17.548 14
      vertex 29.7659 18.8231 14
      vertex 29.5408 18.8913 14
    endloop
  endfacet
  facet normal 0 0 1
    outer loop
      vertex 29.7659 18.8231 14
      vertex 29.5123 17.548 14
      vertex 30 17.5 14
    endloop
  endfacet
  facet normal 0 0 1
    outer loop
      vertex 29.0433 17.6903 14
      vertex 29.5408 18.8913 14
      vertex 29.3333 19.0022 14
    endloop
  endfacet
  facet normal 0 0 1
    outer loop
      vertex 28.6111 17.9213 14
      vertex 29.3333 19.0022 14
      vertex 29.1515 19.1515 14
    endloop
  endfacet
  facet normal 0 0 1
    outer loop
      vertex 29.5408 18.8913 14
      vertex 29.0433 17.6903 14
      vertex 29.5123 17.548 14
    endloop
  endfacet
  facet normal 0 0 1
    outer loop
      vertex 28.6111 17.9213 14
      vertex 29.1515 19.1515 14
      vertex 29.0022 19.3333 14
    endloop
  endfacet
  facet normal 0 0 1
    outer loop
      vertex 28.6111 17.9213 14
      vertex 29.0022 19.3333 14
      vertex 28.8913 19.5408 14
    endloop
  endfacet
  facet normal 0 0 1
    outer loop
      vertex 28.6111 17.9213 14
      vertex 28.8913 19.5408 14
      vertex 28.8231 19.7659 14
    endloop
  endfacet
  facet normal 0 0 1
    outer loop
      vertex 29.3333 19.0022 14
      vertex 28.6111 17.9213 14
      vertex 29.0433 17.6903 14
    endloop
  endfacet
  facet normal 0 0 1
    outer loop
      vertex 28.6111 17.9213 14
      vertex 28.8231 19.7659 14
      vertex 28.8 20 14
    endloop
  endfacet
  facet normal -0.634308 0.77308 0
    outer loop
      vertex 28.5152 22 5
      vertex 28.2322 21.7678 14
      vertex 28.5152 22 14
    endloop
  endfacet
  facet normal -0.634308 0.77308 0
    outer loop
      vertex 28.2322 21.7678 14
      vertex 28.5152 22 5
      vertex 28.2322 21.7678 5
    endloop
  endfacet
  facet normal 0.290341 -0.956923 0
    outer loop
      vertex 30.4877 17.548 2
      vertex 30.9567 17.6903 14
      vertex 30.4877 17.548 14
    endloop
  endfacet
  facet normal 0.290341 -0.956923 0
    outer loop
      vertex 30.9567 17.6903 14
      vertex 30.4877 17.548 2
      vertex 30.9567 17.6903 2
    endloop
  endfacet
  facet normal 0.634326 -0.773066 0
    outer loop
      vertex 31.3889 17.9213 2
      vertex 31.7678 18.2322 14
      vertex 31.3889 17.9213 14
    endloop
  endfacet
  facet normal 0.634326 -0.773066 0
    outer loop
      vertex 31.7678 18.2322 14
      vertex 31.3889 17.9213 2
      vertex 31.7678 18.2322 2
    endloop
  endfacet
  facet normal -0.471372 -0.881935 0
    outer loop
      vertex 28.6111 17.9213 2
      vertex 29.0433 17.6903 14
      vertex 28.6111 17.9213 14
    endloop
  endfacet
  facet normal -0.471372 -0.881935 -0
    outer loop
      vertex 29.0433 17.6903 14
      vertex 28.6111 17.9213 2
      vertex 29.0433 17.6903 2
    endloop
  endfacet
  facet normal -0.0979479 -0.995192 0
    outer loop
      vertex 29.5123 17.548 2
      vertex 30 17.5 14
      vertex 29.5123 17.548 14
    endloop
  endfacet
  facet normal -0.0979479 -0.995192 -0
    outer loop
      vertex 30 17.5 14
      vertex 29.5123 17.548 2
      vertex 30 17.5 2
    endloop
  endfacet
  facet normal -0.773066 -0.634326 0
    outer loop
      vertex 28.2322 18.2322 2
      vertex 27.9213 18.6111 14
      vertex 27.9213 18.6111 2
    endloop
  endfacet
  facet normal -0.773066 -0.634326 0
    outer loop
      vertex 27.9213 18.6111 14
      vertex 28.2322 18.2322 2
      vertex 28.2322 18.2322 14
    endloop
  endfacet
  facet normal -0.956923 -0.290341 0
    outer loop
      vertex 27.6903 19.0433 2
      vertex 27.548 19.5123 14
      vertex 27.548 19.5123 2
    endloop
  endfacet
  facet normal -0.956923 -0.290341 0
    outer loop
      vertex 27.548 19.5123 14
      vertex 27.6903 19.0433 2
      vertex 27.6903 19.0433 14
    endloop
  endfacet
  facet normal -0.995192 -0.0979479 0
    outer loop
      vertex 27.548 19.5123 2
      vertex 27.5 20 14
      vertex 27.5 20 2
    endloop
  endfacet
  facet normal -0.995192 -0.0979479 0
    outer loop
      vertex 27.5 20 14
      vertex 27.548 19.5123 2
      vertex 27.548 19.5123 14
    endloop
  endfacet
  facet normal 0.471372 -0.881935 0
    outer loop
      vertex 30.9567 17.6903 2
      vertex 31.3889 17.9213 14
      vertex 30.9567 17.6903 14
    endloop
  endfacet
  facet normal 0.471372 -0.881935 0
    outer loop
      vertex 31.3889 17.9213 14
      vertex 30.9567 17.6903 2
      vertex 31.3889 17.9213 2
    endloop
  endfacet
  facet normal -0.290341 -0.956923 0
    outer loop
      vertex 29.0433 17.6903 2
      vertex 29.5123 17.548 14
      vertex 29.0433 17.6903 14
    endloop
  endfacet
  facet normal -0.290341 -0.956923 -0
    outer loop
      vertex 29.5123 17.548 14
      vertex 29.0433 17.6903 2
      vertex 29.5123 17.548 2
    endloop
  endfacet
  facet normal -0.881935 -0.471372 0
    outer loop
      vertex 27.9213 18.6111 2
      vertex 27.6903 19.0433 14
      vertex 27.6903 19.0433 2
    endloop
  endfacet
  facet normal -0.881935 -0.471372 0
    outer loop
      vertex 27.6903 19.0433 14
      vertex 27.9213 18.6111 2
      vertex 27.9213 18.6111 14
    endloop
  endfacet
  facet normal -0.995184 -0.0980263 0
    outer loop
      vertex 5.2 4 0
      vertex 5.17694 4.23411 14
      vertex 5.17694 4.23411 0
    endloop
  endfacet
  facet normal -0.995184 -0.0980263 0
    outer loop
      vertex 5.17694 4.23411 14
      vertex 5.2 4 0
      vertex 5.2 4 14
    endloop
  endfacet
  facet normal 0.0980263 -0.995184 0
    outer loop
      vertex 3.76589 5.17694 0
      vertex 4 5.2 14
      vertex 3.76589 5.17694 14
    endloop
  endfacet
  facet normal 0.0980263 -0.995184 0
    outer loop
      vertex 4 5.2 14
      vertex 3.76589 5.17694 0
      vertex 4 5.2 0
    endloop
  endfacet
  facet normal -0.0980263 0.995184 0
    outer loop
      vertex 4.23411 2.82306 0
      vertex 4 2.8 14
      vertex 4.23411 2.82306 14
    endloop
  endfacet
  facet normal -0.0980263 0.995184 0
    outer loop
      vertex 4 2.8 14
      vertex 4.23411 2.82306 0
      vertex 4 2.8 0
    endloop
  endfacet
  facet normal -0.634367 -0.773032 0
    outer loop
      vertex 4.66668 4.99776 0
      vertex 4.84853 4.84853 14
      vertex 4.66668 4.99776 14
    endloop
  endfacet
  facet normal -0.634367 -0.773032 -0
    outer loop
      vertex 4.84853 4.84853 14
      vertex 4.66668 4.99776 0
      vertex 4.84853 4.84853 0
    endloop
  endfacet
  facet normal 0.773032 -0.634367 0
    outer loop
      vertex 3.00224 4.66668 14
      vertex 3.15147 4.84853 0
      vertex 3.15147 4.84853 14
    endloop
  endfacet
  facet normal 0.773032 -0.634367 0
    outer loop
      vertex 3.15147 4.84853 0
      vertex 3.00224 4.66668 14
      vertex 3.00224 4.66668 0
    endloop
  endfacet
  facet normal 0.47138 -0.88193 0
    outer loop
      vertex 3.33331 4.99776 0
      vertex 3.54078 5.10865 14
      vertex 3.33331 4.99776 14
    endloop
  endfacet
  facet normal 0.47138 -0.88193 0
    outer loop
      vertex 3.54078 5.10865 14
      vertex 3.33331 4.99776 0
      vertex 3.54078 5.10865 0
    endloop
  endfacet
  facet normal -0.88193 0.47138 0
    outer loop
      vertex 4.99776 3.33331 0
      vertex 5.10865 3.54078 14
      vertex 5.10865 3.54078 0
    endloop
  endfacet
  facet normal -0.88193 0.47138 0
    outer loop
      vertex 5.10865 3.54078 14
      vertex 4.99776 3.33331 0
      vertex 4.99776 3.33331 14
    endloop
  endfacet
  facet normal -0.881921 -0.471398 0
    outer loop
      vertex 5.10865 4.45922 0
      vertex 4.99776 4.66668 14
      vertex 4.99776 4.66668 0
    endloop
  endfacet
  facet normal -0.881921 -0.471398 0
    outer loop
      vertex 4.99776 4.66668 14
      vertex 5.10865 4.45922 0
      vertex 5.10865 4.45922 14
    endloop
  endfacet
  facet normal -0.956936 -0.290299 0
    outer loop
      vertex 5.17694 4.23411 0
      vertex 5.10865 4.45922 14
      vertex 5.10865 4.45922 0
    endloop
  endfacet
  facet normal -0.956936 -0.290299 0
    outer loop
      vertex 5.10865 4.45922 14
      vertex 5.17694 4.23411 0
      vertex 5.17694 4.23411 14
    endloop
  endfacet
  facet normal -0.773032 -0.634367 0
    outer loop
      vertex 4.99776 4.66668 0
      vertex 4.84853 4.84853 14
      vertex 4.84853 4.84853 0
    endloop
  endfacet
  facet normal -0.773032 -0.634367 0
    outer loop
      vertex 4.84853 4.84853 14
      vertex 4.99776 4.66668 0
      vertex 4.99776 4.66668 14
    endloop
  endfacet
  facet normal -0.290299 -0.956936 0
    outer loop
      vertex 4.23411 5.17694 0
      vertex 4.45922 5.10865 14
      vertex 4.23411 5.17694 14
    endloop
  endfacet
  facet normal -0.290299 -0.956936 -0
    outer loop
      vertex 4.45922 5.10865 14
      vertex 4.23411 5.17694 0
      vertex 4.45922 5.10865 0
    endloop
  endfacet
  facet normal -0.0980263 -0.995184 0
    outer loop
      vertex 4 5.2 0
      vertex 4.23411 5.17694 14
      vertex 4 5.2 14
    endloop
  endfacet
  facet normal -0.0980263 -0.995184 -0
    outer loop
      vertex 4.23411 5.17694 14
      vertex 4 5.2 0
      vertex 4.23411 5.17694 0
    endloop
  endfacet
  facet normal -0.471398 -0.881921 0
    outer loop
      vertex 4.45922 5.10865 0
      vertex 4.66668 4.99776 14
      vertex 4.45922 5.10865 14
    endloop
  endfacet
  facet normal -0.471398 -0.881921 -0
    outer loop
      vertex 4.66668 4.99776 14
      vertex 4.45922 5.10865 0
      vertex 4.66668 4.99776 0
    endloop
  endfacet
  facet normal 0.956948 -0.29026 0
    outer loop
      vertex 2.82306 4.23411 14
      vertex 2.89134 4.45922 0
      vertex 2.89134 4.45922 14
    endloop
  endfacet
  facet normal 0.956948 -0.29026 0
    outer loop
      vertex 2.89134 4.45922 0
      vertex 2.82306 4.23411 14
      vertex 2.82306 4.23411 0
    endloop
  endfacet
  facet normal 0.881903 -0.471431 0
    outer loop
      vertex 2.89134 4.45922 14
      vertex 3.00224 4.66668 0
      vertex 3.00224 4.66668 14
    endloop
  endfacet
  facet normal 0.881903 -0.471431 0
    outer loop
      vertex 3.00224 4.66668 0
      vertex 2.89134 4.45922 14
      vertex 2.89134 4.45922 0
    endloop
  endfacet
  facet normal 0.995184 -0.0980263 0
    outer loop
      vertex 2.8 4 14
      vertex 2.82306 4.23411 0
      vertex 2.82306 4.23411 14
    endloop
  endfacet
  facet normal 0.995184 -0.0980263 0
    outer loop
      vertex 2.82306 4.23411 0
      vertex 2.8 4 14
      vertex 2.8 4 0
    endloop
  endfacet
  facet normal 0.634388 -0.773015 0
    outer loop
      vertex 3.15147 4.84853 0
      vertex 3.33331 4.99776 14
      vertex 3.15147 4.84853 14
    endloop
  endfacet
  facet normal 0.634388 -0.773015 0
    outer loop
      vertex 3.33331 4.99776 14
      vertex 3.15147 4.84853 0
      vertex 3.33331 4.99776 0
    endloop
  endfacet
  facet normal 0.290299 -0.956936 0
    outer loop
      vertex 3.54078 5.10865 0
      vertex 3.76589 5.17694 14
      vertex 3.54078 5.10865 14
    endloop
  endfacet
  facet normal 0.290299 -0.956936 0
    outer loop
      vertex 3.76589 5.17694 14
      vertex 3.54078 5.10865 0
      vertex 3.76589 5.17694 0
    endloop
  endfacet
  facet normal -0.995184 0.0980263 0
    outer loop
      vertex 5.17694 3.76589 0
      vertex 5.2 4 14
      vertex 5.2 4 0
    endloop
  endfacet
  facet normal -0.995184 0.0980263 0
    outer loop
      vertex 5.2 4 14
      vertex 5.17694 3.76589 0
      vertex 5.17694 3.76589 14
    endloop
  endfacet
  facet normal -0.29026 0.956948 0
    outer loop
      vertex 4.45922 2.89134 0
      vertex 4.23411 2.82306 14
      vertex 4.45922 2.89134 14
    endloop
  endfacet
  facet normal -0.29026 0.956948 0
    outer loop
      vertex 4.23411 2.82306 14
      vertex 4.45922 2.89134 0
      vertex 4.23411 2.82306 0
    endloop
  endfacet
  facet normal 0.995184 0.0980263 0
    outer loop
      vertex 2.82306 3.76589 14
      vertex 2.8 4 0
      vertex 2.8 4 14
    endloop
  endfacet
  facet normal 0.995184 0.0980263 0
    outer loop
      vertex 2.8 4 0
      vertex 2.82306 3.76589 14
      vertex 2.82306 3.76589 0
    endloop
  endfacet
  facet normal -0.634367 0.773032 0
    outer loop
      vertex 4.84853 3.15147 0
      vertex 4.66668 3.00224 14
      vertex 4.84853 3.15147 14
    endloop
  endfacet
  facet normal -0.634367 0.773032 0
    outer loop
      vertex 4.66668 3.00224 14
      vertex 4.84853 3.15147 0
      vertex 4.66668 3.00224 0
    endloop
  endfacet
  facet normal -0.773015 0.634388 0
    outer loop
      vertex 4.84853 3.15147 0
      vertex 4.99776 3.33331 14
      vertex 4.99776 3.33331 0
    endloop
  endfacet
  facet normal -0.773015 0.634388 0
    outer loop
      vertex 4.99776 3.33331 14
      vertex 4.84853 3.15147 0
      vertex 4.84853 3.15147 14
    endloop
  endfacet
  facet normal -0.956936 0.290299 0
    outer loop
      vertex 5.10865 3.54078 0
      vertex 5.17694 3.76589 14
      vertex 5.17694 3.76589 0
    endloop
  endfacet
  facet normal -0.956936 0.290299 0
    outer loop
      vertex 5.17694 3.76589 14
      vertex 5.10865 3.54078 0
      vertex 5.10865 3.54078 14
    endloop
  endfacet
  facet normal -0.471431 0.881903 0
    outer loop
      vertex 4.66668 3.00224 0
      vertex 4.45922 2.89134 14
      vertex 4.66668 3.00224 14
    endloop
  endfacet
  facet normal -0.471431 0.881903 0
    outer loop
      vertex 4.45922 2.89134 14
      vertex 4.66668 3.00224 0
      vertex 4.45922 2.89134 0
    endloop
  endfacet
  facet normal 0.0980263 0.995184 -0
    outer loop
      vertex 4 2.8 0
      vertex 3.76589 2.82306 14
      vertex 4 2.8 14
    endloop
  endfacet
  facet normal 0.0980263 0.995184 0
    outer loop
      vertex 3.76589 2.82306 14
      vertex 4 2.8 0
      vertex 3.76589 2.82306 0
    endloop
  endfacet
  facet normal 0.634388 0.773015 -0
    outer loop
      vertex 3.33331 3.00224 0
      vertex 3.15147 3.15147 14
      vertex 3.33331 3.00224 14
    endloop
  endfacet
  facet normal 0.634388 0.773015 0
    outer loop
      vertex 3.15147 3.15147 14
      vertex 3.33331 3.00224 0
      vertex 3.15147 3.15147 0
    endloop
  endfacet
  facet normal 0.773015 0.634388 0
    outer loop
      vertex 3.15147 3.15147 14
      vertex 3.00224 3.33331 0
      vertex 3.00224 3.33331 14
    endloop
  endfacet
  facet normal 0.773015 0.634388 0
    outer loop
      vertex 3.00224 3.33331 0
      vertex 3.15147 3.15147 14
      vertex 3.15147 3.15147 0
    endloop
  endfacet
  facet normal 0.881912 0.471413 0
    outer loop
      vertex 3.00224 3.33331 14
      vertex 2.89134 3.54078 0
      vertex 2.89134 3.54078 14
    endloop
  endfacet
  facet normal 0.881912 0.471413 0
    outer loop
      vertex 2.89134 3.54078 0
      vertex 3.00224 3.33331 14
      vertex 3.00224 3.33331 0
    endloop
  endfacet
  facet normal 0.956948 0.29026 0
    outer loop
      vertex 2.89134 3.54078 14
      vertex 2.82306 3.76589 0
      vertex 2.82306 3.76589 14
    endloop
  endfacet
  facet normal 0.956948 0.29026 0
    outer loop
      vertex 2.82306 3.76589 0
      vertex 2.89134 3.54078 14
      vertex 2.89134 3.54078 0
    endloop
  endfacet
  facet normal 0.471413 0.881912 -0
    outer loop
      vertex 3.54078 2.89134 0
      vertex 3.33331 3.00224 14
      vertex 3.54078 2.89134 14
    endloop
  endfacet
  facet normal 0.471413 0.881912 0
    outer loop
      vertex 3.33331 3.00224 14
      vertex 3.54078 2.89134 0
      vertex 3.33331 3.00224 0
    endloop
  endfacet
  facet normal 0.29026 0.956948 -0
    outer loop
      vertex 3.76589 2.82306 0
      vertex 3.54078 2.89134 14
      vertex 3.76589 2.82306 14
    endloop
  endfacet
  facet normal 0.29026 0.956948 0
    outer loop
      vertex 3.54078 2.89134 14
      vertex 3.76589 2.82306 0
      vertex 3.54078 2.89134 0
    endloop
  endfacet
  facet normal -0.995167 -0.0981989 0
    outer loop
      vertex 31.2 20 0
      vertex 31.1769 20.2341 14
      vertex 31.1769 20.2341 0
    endloop
  endfacet
  facet normal -0.995167 -0.0981989 0
    outer loop
      vertex 31.1769 20.2341 14
      vertex 31.2 20 0
      vertex 31.2 20 14
    endloop
  endfacet
  facet normal 0.995167 0.0981989 0
    outer loop
      vertex 28.8231 19.7659 14
      vertex 28.8 20 0
      vertex 28.8 20 14
    endloop
  endfacet
  facet normal 0.995167 0.0981989 0
    outer loop
      vertex 28.8 20 0
      vertex 28.8231 19.7659 14
      vertex 28.8231 19.7659 0
    endloop
  endfacet
  facet normal 0.0981989 -0.995167 0
    outer loop
      vertex 29.7659 21.1769 0
      vertex 30 21.2 14
      vertex 29.7659 21.1769 14
    endloop
  endfacet
  facet normal 0.0981989 -0.995167 0
    outer loop
      vertex 30 21.2 14
      vertex 29.7659 21.1769 0
      vertex 30 21.2 0
    endloop
  endfacet
  facet normal -0.0981989 0.995167 0
    outer loop
      vertex 30.2341 18.8231 0
      vertex 30 18.8 14
      vertex 30.2341 18.8231 14
    endloop
  endfacet
  facet normal -0.0981989 0.995167 0
    outer loop
      vertex 30 18.8 14
      vertex 30.2341 18.8231 0
      vertex 30 18.8 0
    endloop
  endfacet
  facet normal -0.634649 -0.772801 0
    outer loop
      vertex 30.6667 20.9978 0
      vertex 30.8485 20.8485 14
      vertex 30.6667 20.9978 14
    endloop
  endfacet
  facet normal -0.634649 -0.772801 -0
    outer loop
      vertex 30.8485 20.8485 14
      vertex 30.6667 20.9978 0
      vertex 30.8485 20.8485 0
    endloop
  endfacet
  facet normal 0.772801 -0.634649 0
    outer loop
      vertex 29.0022 20.6667 14
      vertex 29.1515 20.8485 0
      vertex 29.1515 20.8485 14
    endloop
  endfacet
  facet normal 0.772801 -0.634649 0
    outer loop
      vertex 29.1515 20.8485 0
      vertex 29.0022 20.6667 14
      vertex 29.0022 20.6667 0
    endloop
  endfacet
  facet normal 0.47136 -0.881941 0
    outer loop
      vertex 29.3333 20.9978 0
      vertex 29.5408 21.1087 14
      vertex 29.3333 20.9978 14
    endloop
  endfacet
  facet normal 0.47136 -0.881941 0
    outer loop
      vertex 29.5408 21.1087 14
      vertex 29.3333 20.9978 0
      vertex 29.5408 21.1087 0
    endloop
  endfacet
  facet normal -0.881941 0.47136 0
    outer loop
      vertex 30.9978 19.3333 0
      vertex 31.1087 19.5408 14
      vertex 31.1087 19.5408 0
    endloop
  endfacet
  facet normal -0.881941 0.47136 0
    outer loop
      vertex 31.1087 19.5408 14
      vertex 30.9978 19.3333 0
      vertex 30.9978 19.3333 14
    endloop
  endfacet
  facet normal -0.881941 -0.47136 0
    outer loop
      vertex 31.1087 20.4592 0
      vertex 30.9978 20.6667 14
      vertex 30.9978 20.6667 0
    endloop
  endfacet
  facet normal -0.881941 -0.47136 0
    outer loop
      vertex 30.9978 20.6667 14
      vertex 31.1087 20.4592 0
      vertex 31.1087 20.4592 14
    endloop
  endfacet
  facet normal -0.957039 -0.28996 0
    outer loop
      vertex 31.1769 20.2341 0
      vertex 31.1087 20.4592 14
      vertex 31.1087 20.4592 0
    endloop
  endfacet
  facet normal -0.957039 -0.28996 0
    outer loop
      vertex 31.1087 20.4592 14
      vertex 31.1769 20.2341 0
      vertex 31.1769 20.2341 14
    endloop
  endfacet
  facet normal -0.772801 -0.634649 0
    outer loop
      vertex 30.9978 20.6667 0
      vertex 30.8485 20.8485 14
      vertex 30.8485 20.8485 0
    endloop
  endfacet
  facet normal -0.772801 -0.634649 0
    outer loop
      vertex 30.8485 20.8485 14
      vertex 30.9978 20.6667 0
      vertex 30.9978 20.6667 14
    endloop
  endfacet
  facet normal -0.28996 -0.957039 0
    outer loop
      vertex 30.2341 21.1769 0
      vertex 30.4592 21.1087 14
      vertex 30.2341 21.1769 14
    endloop
  endfacet
  facet normal -0.28996 -0.957039 -0
    outer loop
      vertex 30.4592 21.1087 14
      vertex 30.2341 21.1769 0
      vertex 30.4592 21.1087 0
    endloop
  endfacet
  facet normal -0.0981989 -0.995167 0
    outer loop
      vertex 30 21.2 0
      vertex 30.2341 21.1769 14
      vertex 30 21.2 14
    endloop
  endfacet
  facet normal -0.0981989 -0.995167 -0
    outer loop
      vertex 30.2341 21.1769 14
      vertex 30 21.2 0
      vertex 30.2341 21.1769 0
    endloop
  endfacet
  facet normal -0.47136 -0.881941 0
    outer loop
      vertex 30.4592 21.1087 0
      vertex 30.6667 20.9978 14
      vertex 30.4592 21.1087 14
    endloop
  endfacet
  facet normal -0.47136 -0.881941 -0
    outer loop
      vertex 30.6667 20.9978 14
      vertex 30.4592 21.1087 0
      vertex 30.6667 20.9978 0
    endloop
  endfacet
  facet normal 0.957039 -0.28996 0
    outer loop
      vertex 28.8231 20.2341 14
      vertex 28.8913 20.4592 0
      vertex 28.8913 20.4592 14
    endloop
  endfacet
  facet normal 0.957039 -0.28996 0
    outer loop
      vertex 28.8913 20.4592 0
      vertex 28.8231 20.2341 14
      vertex 28.8231 20.2341 0
    endloop
  endfacet
  facet normal 0.881941 -0.47136 0
    outer loop
      vertex 28.8913 20.4592 14
      vertex 29.0022 20.6667 0
      vertex 29.0022 20.6667 14
    endloop
  endfacet
  facet normal 0.881941 -0.47136 0
    outer loop
      vertex 29.0022 20.6667 0
      vertex 28.8913 20.4592 14
      vertex 28.8913 20.4592 0
    endloop
  endfacet
  facet normal 0.995167 -0.0981989 0
    outer loop
      vertex 28.8 20 14
      vertex 28.8231 20.2341 0
      vertex 28.8231 20.2341 14
    endloop
  endfacet
  facet normal 0.995167 -0.0981989 0
    outer loop
      vertex 28.8231 20.2341 0
      vertex 28.8 20 14
      vertex 28.8 20 0
    endloop
  endfacet
  facet normal 0.634649 -0.772801 0
    outer loop
      vertex 29.1515 20.8485 0
      vertex 29.3333 20.9978 14
      vertex 29.1515 20.8485 14
    endloop
  endfacet
  facet normal 0.634649 -0.772801 0
    outer loop
      vertex 29.3333 20.9978 14
      vertex 29.1515 20.8485 0
      vertex 29.3333 20.9978 0
    endloop
  endfacet
  facet normal 0.28996 -0.957039 0
    outer loop
      vertex 29.5408 21.1087 0
      vertex 29.7659 21.1769 14
      vertex 29.5408 21.1087 14
    endloop
  endfacet
  facet normal 0.28996 -0.957039 0
    outer loop
      vertex 29.7659 21.1769 14
      vertex 29.5408 21.1087 0
      vertex 29.7659 21.1769 0
    endloop
  endfacet
  facet normal 0.957039 0.28996 0
    outer loop
      vertex 28.8913 19.5408 14
      vertex 28.8231 19.7659 0
      vertex 28.8231 19.7659 14
    endloop
  endfacet
  facet normal 0.957039 0.28996 0
    outer loop
      vertex 28.8231 19.7659 0
      vertex 28.8913 19.5408 14
      vertex 28.8913 19.5408 0
    endloop
  endfacet
  facet normal -0.28996 0.957039 0
    outer loop
      vertex 30.4592 18.8913 0
      vertex 30.2341 18.8231 14
      vertex 30.4592 18.8913 14
    endloop
  endfacet
  facet normal -0.28996 0.957039 0
    outer loop
      vertex 30.2341 18.8231 14
      vertex 30.4592 18.8913 0
      vertex 30.2341 18.8231 0
    endloop
  endfacet
  facet normal -0.634649 0.772801 0
    outer loop
      vertex 30.8485 19.1515 0
      vertex 30.6667 19.0022 14
      vertex 30.8485 19.1515 14
    endloop
  endfacet
  facet normal -0.634649 0.772801 0
    outer loop
      vertex 30.6667 19.0022 14
      vertex 30.8485 19.1515 0
      vertex 30.6667 19.0022 0
    endloop
  endfacet
  facet normal -0.772801 0.634649 0
    outer loop
      vertex 30.8485 19.1515 0
      vertex 30.9978 19.3333 14
      vertex 30.9978 19.3333 0
    endloop
  endfacet
  facet normal -0.772801 0.634649 0
    outer loop
      vertex 30.9978 19.3333 14
      vertex 30.8485 19.1515 0
      vertex 30.8485 19.1515 14
    endloop
  endfacet
  facet normal -0.957039 0.28996 0
    outer loop
      vertex 31.1087 19.5408 0
      vertex 31.1769 19.7659 14
      vertex 31.1769 19.7659 0
    endloop
  endfacet
  facet normal -0.957039 0.28996 0
    outer loop
      vertex 31.1769 19.7659 14
      vertex 31.1087 19.5408 0
      vertex 31.1087 19.5408 14
    endloop
  endfacet
  facet normal -0.995167 0.0981989 0
    outer loop
      vertex 31.1769 19.7659 0
      vertex 31.2 20 14
      vertex 31.2 20 0
    endloop
  endfacet
  facet normal -0.995167 0.0981989 0
    outer loop
      vertex 31.2 20 14
      vertex 31.1769 19.7659 0
      vertex 31.1769 19.7659 14
    endloop
  endfacet
  facet normal -0.47136 0.881941 0
    outer loop
      vertex 30.6667 19.0022 0
      vertex 30.4592 18.8913 14
      vertex 30.6667 19.0022 14
    endloop
  endfacet
  facet normal -0.47136 0.881941 0
    outer loop
      vertex 30.4592 18.8913 14
      vertex 30.6667 19.0022 0
      vertex 30.4592 18.8913 0
    endloop
  endfacet
  facet normal 0.634649 0.772801 -0
    outer loop
      vertex 29.3333 19.0022 0
      vertex 29.1515 19.1515 14
      vertex 29.3333 19.0022 14
    endloop
  endfacet
  facet normal 0.634649 0.772801 0
    outer loop
      vertex 29.1515 19.1515 14
      vertex 29.3333 19.0022 0
      vertex 29.1515 19.1515 0
    endloop
  endfacet
  facet normal 0.772801 0.634649 0
    outer loop
      vertex 29.1515 19.1515 14
      vertex 29.0022 19.3333 0
      vertex 29.0022 19.3333 14
    endloop
  endfacet
  facet normal 0.772801 0.634649 0
    outer loop
      vertex 29.0022 19.3333 0
      vertex 29.1515 19.1515 14
      vertex 29.1515 19.1515 0
    endloop
  endfacet
  facet normal 0.881941 0.47136 0
    outer loop
      vertex 29.0022 19.3333 14
      vertex 28.8913 19.5408 0
      vertex 28.8913 19.5408 14
    endloop
  endfacet
  facet normal 0.881941 0.47136 0
    outer loop
      vertex 28.8913 19.5408 0
      vertex 29.0022 19.3333 14
      vertex 29.0022 19.3333 0
    endloop
  endfacet
  facet normal 0.28996 0.957039 -0
    outer loop
      vertex 29.7659 18.8231 0
      vertex 29.5408 18.8913 14
      vertex 29.7659 18.8231 14
    endloop
  endfacet
  facet normal 0.28996 0.957039 0
    outer loop
      vertex 29.5408 18.8913 14
      vertex 29.7659 18.8231 0
      vertex 29.5408 18.8913 0
    endloop
  endfacet
  facet normal 0.47136 0.881941 -0
    outer loop
      vertex 29.5408 18.8913 0
      vertex 29.3333 19.0022 14
      vertex 29.5408 18.8913 14
    endloop
  endfacet
  facet normal 0.47136 0.881941 0
    outer loop
      vertex 29.3333 19.0022 14
      vertex 29.5408 18.8913 0
      vertex 29.3333 19.0022 0
    endloop
  endfacet
  facet normal 0.0981989 0.995167 -0
    outer loop
      vertex 30 18.8 0
      vertex 29.7659 18.8231 14
      vertex 30 18.8 14
    endloop
  endfacet
  facet normal 0.0981989 0.995167 0
    outer loop
      vertex 29.7659 18.8231 14
      vertex 30 18.8 0
      vertex 29.7659 18.8231 0
    endloop
  endfacet
  facet normal 0 0 -1
    outer loop
      vertex 0 7 10
      vertex 2 17 10
      vertex 2 7 10
    endloop
  endfacet
  facet normal -0 0 -1
    outer loop
      vertex 2 17 10
      vertex 0 7 10
      vertex 0 17 10
    endloop
  endfacet
  facet normal -0 0 1
    outer loop
      vertex 0 17 4
      vertex 2 7 4
      vertex 2 17 4
    endloop
  endfacet
  facet normal 0 0 1
    outer loop
      vertex 2 7 4
      vertex 0 17 4
      vertex 0 7 4
    endloop
  endfacet
  facet normal 0 1 -0
    outer loop
      vertex 2 7 4
      vertex 0 7 10
      vertex 2 7 10
    endloop
  endfacet
  facet normal 0 1 0
    outer loop
      vertex 0 7 10
      vertex 2 7 4
      vertex 0 7 4
    endloop
  endfacet
  facet normal 0 -1 0
    outer loop
      vertex 0 17 4
      vertex 2 17 10
      vertex 0 17 10
    endloop
  endfacet
  facet normal 0 -1 -0
    outer loop
      vertex 2 17 10
      vertex 0 17 4
      vertex 2 17 4
    endloop
  endfacet
  facet normal 0 0 -1
    outer loop
      vertex 32 7 10
      vertex 34 17 10
      vertex 34 7 10
    endloop
  endfacet
  facet normal -0 0 -1
    outer loop
      vertex 34 17 10
      vertex 32 7 10
      vertex 32 17 10
    endloop
  endfacet
  facet normal 0 -1 0
    outer loop
      vertex 32 17 4
      vertex 34 17 10
      vertex 32 17 10
    endloop
  endfacet
  facet normal 0 -1 -0
    outer loop
      vertex 34 17 10
      vertex 32 17 4
      vertex 34 17 4
    endloop
  endfacet
  facet normal -0 0 1
    outer loop
      vertex 32 17 4
      vertex 34 7 4
      vertex 34 17 4
    endloop
  endfacet
  facet normal 0 0 1
    outer loop
      vertex 34 7 4
      vertex 32 17 4
      vertex 32 7 4
    endloop
  endfacet
  facet normal 0 1 -0
    outer loop
      vertex 34 7 4
      vertex 32 7 10
      vertex 34 7 10
    endloop
  endfacet
  facet normal 0 1 0
    outer loop
      vertex 32 7 10
      vertex 34 7 4
      vertex 32 7 4
    endloop
  endfacet
endsolid OpenSCAD_Model
