solid OpenSCAD_Model
  facet normal -0.995184 -0.0980263 0
    outer loop
      vertex 5.2 4 0
      vertex 5.17694 4.23411 0.2
      vertex 5.17694 4.23411 0
    endloop
  endfacet
  facet normal -0.995184 -0.0980263 0
    outer loop
      vertex 5.17694 4.23411 0.2
      vertex 5.2 4 0
      vertex 5.2 4 0.2
    endloop
  endfacet
  facet normal 0.995184 0.0980263 0
    outer loop
      vertex 2.82306 3.76589 0.2
      vertex 2.8 4 0
      vertex 2.8 4 0.2
    endloop
  endfacet
  facet normal 0.995184 0.0980263 0
    outer loop
      vertex 2.8 4 0
      vertex 2.82306 3.76589 0.2
      vertex 2.82306 3.76589 0
    endloop
  endfacet
  facet normal 0.0980263 -0.995184 0
    outer loop
      vertex 3.76589 5.17694 0
      vertex 4 5.2 0.2
      vertex 3.76589 5.17694 0.2
    endloop
  endfacet
  facet normal 0.0980263 -0.995184 0
    outer loop
      vertex 4 5.2 0.2
      vertex 3.76589 5.17694 0
      vertex 4 5.2 0
    endloop
  endfacet
  facet normal -0.0980263 0.995184 0
    outer loop
      vertex 4.23411 2.82306 0
      vertex 4 2.8 0.2
      vertex 4.23411 2.82306 0.2
    endloop
  endfacet
  facet normal -0.0980263 0.995184 0
    outer loop
      vertex 4 2.8 0.2
      vertex 4.23411 2.82306 0
      vertex 4 2.8 0
    endloop
  endfacet
  facet normal -0.634367 -0.773032 0
    outer loop
      vertex 4.66668 4.99776 0
      vertex 4.84853 4.84853 0.2
      vertex 4.66668 4.99776 0.2
    endloop
  endfacet
  facet normal -0.634367 -0.773032 -0
    outer loop
      vertex 4.84853 4.84853 0.2
      vertex 4.66668 4.99776 0
      vertex 4.84853 4.84853 0
    endloop
  endfacet
  facet normal 0.773032 -0.634367 0
    outer loop
      vertex 3.00224 4.66668 0.2
      vertex 3.15147 4.84853 0
      vertex 3.15147 4.84853 0.2
    endloop
  endfacet
  facet normal 0.773032 -0.634367 0
    outer loop
      vertex 3.15147 4.84853 0
      vertex 3.00224 4.66668 0.2
      vertex 3.00224 4.66668 0
    endloop
  endfacet
  facet normal 0.47138 -0.88193 0
    outer loop
      vertex 3.33331 4.99776 0
      vertex 3.54078 5.10865 0.2
      vertex 3.33331 4.99776 0.2
    endloop
  endfacet
  facet normal 0.47138 -0.88193 0
    outer loop
      vertex 3.54078 5.10865 0.2
      vertex 3.33331 4.99776 0
      vertex 3.54078 5.10865 0
    endloop
  endfacet
  facet normal -0.88193 0.47138 0
    outer loop
      vertex 4.99776 3.33331 0
      vertex 5.10865 3.54078 0.2
      vertex 5.10865 3.54078 0
    endloop
  endfacet
  facet normal -0.88193 0.47138 0
    outer loop
      vertex 5.10865 3.54078 0.2
      vertex 4.99776 3.33331 0
      vertex 4.99776 3.33331 0.2
    endloop
  endfacet
  facet normal -0.881921 -0.471398 0
    outer loop
      vertex 5.10865 4.45922 0
      vertex 4.99776 4.66668 0.2
      vertex 4.99776 4.66668 0
    endloop
  endfacet
  facet normal -0.881921 -0.471398 0
    outer loop
      vertex 4.99776 4.66668 0.2
      vertex 5.10865 4.45922 0
      vertex 5.10865 4.45922 0.2
    endloop
  endfacet
  facet normal -0.956936 -0.290299 0
    outer loop
      vertex 5.17694 4.23411 0
      vertex 5.10865 4.45922 0.2
      vertex 5.10865 4.45922 0
    endloop
  endfacet
  facet normal -0.956936 -0.290299 0
    outer loop
      vertex 5.10865 4.45922 0.2
      vertex 5.17694 4.23411 0
      vertex 5.17694 4.23411 0.2
    endloop
  endfacet
  facet normal -0.773032 -0.634367 0
    outer loop
      vertex 4.99776 4.66668 0
      vertex 4.84853 4.84853 0.2
      vertex 4.84853 4.84853 0
    endloop
  endfacet
  facet normal -0.773032 -0.634367 0
    outer loop
      vertex 4.84853 4.84853 0.2
      vertex 4.99776 4.66668 0
      vertex 4.99776 4.66668 0.2
    endloop
  endfacet
  facet normal -0.290299 -0.956936 0
    outer loop
      vertex 4.23411 5.17694 0
      vertex 4.45922 5.10865 0.2
      vertex 4.23411 5.17694 0.2
    endloop
  endfacet
  facet normal -0.290299 -0.956936 -0
    outer loop
      vertex 4.45922 5.10865 0.2
      vertex 4.23411 5.17694 0
      vertex 4.45922 5.10865 0
    endloop
  endfacet
  facet normal -0.0980263 -0.995184 0
    outer loop
      vertex 4 5.2 0
      vertex 4.23411 5.17694 0.2
      vertex 4 5.2 0.2
    endloop
  endfacet
  facet normal -0.0980263 -0.995184 -0
    outer loop
      vertex 4.23411 5.17694 0.2
      vertex 4 5.2 0
      vertex 4.23411 5.17694 0
    endloop
  endfacet
  facet normal -0.471398 -0.881921 0
    outer loop
      vertex 4.45922 5.10865 0
      vertex 4.66668 4.99776 0.2
      vertex 4.45922 5.10865 0.2
    endloop
  endfacet
  facet normal -0.471398 -0.881921 -0
    outer loop
      vertex 4.66668 4.99776 0.2
      vertex 4.45922 5.10865 0
      vertex 4.66668 4.99776 0
    endloop
  endfacet
  facet normal 0.956948 -0.29026 0
    outer loop
      vertex 2.82306 4.23411 0.2
      vertex 2.89134 4.45922 0
      vertex 2.89134 4.45922 0.2
    endloop
  endfacet
  facet normal 0.956948 -0.29026 0
    outer loop
      vertex 2.89134 4.45922 0
      vertex 2.82306 4.23411 0.2
      vertex 2.82306 4.23411 0
    endloop
  endfacet
  facet normal 0.881903 -0.471431 0
    outer loop
      vertex 2.89134 4.45922 0.2
      vertex 3.00224 4.66668 0
      vertex 3.00224 4.66668 0.2
    endloop
  endfacet
  facet normal 0.881903 -0.471431 0
    outer loop
      vertex 3.00224 4.66668 0
      vertex 2.89134 4.45922 0.2
      vertex 2.89134 4.45922 0
    endloop
  endfacet
  facet normal 0.995184 -0.0980263 0
    outer loop
      vertex 2.8 4 0.2
      vertex 2.82306 4.23411 0
      vertex 2.82306 4.23411 0.2
    endloop
  endfacet
  facet normal 0.995184 -0.0980263 0
    outer loop
      vertex 2.82306 4.23411 0
      vertex 2.8 4 0.2
      vertex 2.8 4 0
    endloop
  endfacet
  facet normal 0.634388 -0.773015 0
    outer loop
      vertex 3.15147 4.84853 0
      vertex 3.33331 4.99776 0.2
      vertex 3.15147 4.84853 0.2
    endloop
  endfacet
  facet normal 0.634388 -0.773015 0
    outer loop
      vertex 3.33331 4.99776 0.2
      vertex 3.15147 4.84853 0
      vertex 3.33331 4.99776 0
    endloop
  endfacet
  facet normal 0.290299 -0.956936 0
    outer loop
      vertex 3.54078 5.10865 0
      vertex 3.76589 5.17694 0.2
      vertex 3.54078 5.10865 0.2
    endloop
  endfacet
  facet normal 0.290299 -0.956936 0
    outer loop
      vertex 3.76589 5.17694 0.2
      vertex 3.54078 5.10865 0
      vertex 3.76589 5.17694 0
    endloop
  endfacet
  facet normal -0.29026 0.956948 0
    outer loop
      vertex 4.45922 2.89134 0
      vertex 4.23411 2.82306 0.2
      vertex 4.45922 2.89134 0.2
    endloop
  endfacet
  facet normal -0.29026 0.956948 0
    outer loop
      vertex 4.23411 2.82306 0.2
      vertex 4.45922 2.89134 0
      vertex 4.23411 2.82306 0
    endloop
  endfacet
  facet normal -0.634367 0.773032 0
    outer loop
      vertex 4.84853 3.15147 0
      vertex 4.66668 3.00224 0.2
      vertex 4.84853 3.15147 0.2
    endloop
  endfacet
  facet normal -0.634367 0.773032 0
    outer loop
      vertex 4.66668 3.00224 0.2
      vertex 4.84853 3.15147 0
      vertex 4.66668 3.00224 0
    endloop
  endfacet
  facet normal -0.773015 0.634388 0
    outer loop
      vertex 4.84853 3.15147 0
      vertex 4.99776 3.33331 0.2
      vertex 4.99776 3.33331 0
    endloop
  endfacet
  facet normal -0.773015 0.634388 0
    outer loop
      vertex 4.99776 3.33331 0.2
      vertex 4.84853 3.15147 0
      vertex 4.84853 3.15147 0.2
    endloop
  endfacet
  facet normal -0.956936 0.290299 0
    outer loop
      vertex 5.10865 3.54078 0
      vertex 5.17694 3.76589 0.2
      vertex 5.17694 3.76589 0
    endloop
  endfacet
  facet normal -0.956936 0.290299 0
    outer loop
      vertex 5.17694 3.76589 0.2
      vertex 5.10865 3.54078 0
      vertex 5.10865 3.54078 0.2
    endloop
  endfacet
  facet normal -0.995184 0.0980263 0
    outer loop
      vertex 5.17694 3.76589 0
      vertex 5.2 4 0.2
      vertex 5.2 4 0
    endloop
  endfacet
  facet normal -0.995184 0.0980263 0
    outer loop
      vertex 5.2 4 0.2
      vertex 5.17694 3.76589 0
      vertex 5.17694 3.76589 0.2
    endloop
  endfacet
  facet normal -0.471431 0.881903 0
    outer loop
      vertex 4.66668 3.00224 0
      vertex 4.45922 2.89134 0.2
      vertex 4.66668 3.00224 0.2
    endloop
  endfacet
  facet normal -0.471431 0.881903 0
    outer loop
      vertex 4.45922 2.89134 0.2
      vertex 4.66668 3.00224 0
      vertex 4.45922 2.89134 0
    endloop
  endfacet
  facet normal 0.634388 0.773015 -0
    outer loop
      vertex 3.33331 3.00224 0
      vertex 3.15147 3.15147 0.2
      vertex 3.33331 3.00224 0.2
    endloop
  endfacet
  facet normal 0.634388 0.773015 0
    outer loop
      vertex 3.15147 3.15147 0.2
      vertex 3.33331 3.00224 0
      vertex 3.15147 3.15147 0
    endloop
  endfacet
  facet normal 0.773015 0.634388 0
    outer loop
      vertex 3.15147 3.15147 0.2
      vertex 3.00224 3.33331 0
      vertex 3.00224 3.33331 0.2
    endloop
  endfacet
  facet normal 0.773015 0.634388 0
    outer loop
      vertex 3.00224 3.33331 0
      vertex 3.15147 3.15147 0.2
      vertex 3.15147 3.15147 0
    endloop
  endfacet
  facet normal 0.881912 0.471413 0
    outer loop
      vertex 3.00224 3.33331 0.2
      vertex 2.89134 3.54078 0
      vertex 2.89134 3.54078 0.2
    endloop
  endfacet
  facet normal 0.881912 0.471413 0
    outer loop
      vertex 2.89134 3.54078 0
      vertex 3.00224 3.33331 0.2
      vertex 3.00224 3.33331 0
    endloop
  endfacet
  facet normal 0.956948 0.29026 0
    outer loop
      vertex 2.89134 3.54078 0.2
      vertex 2.82306 3.76589 0
      vertex 2.82306 3.76589 0.2
    endloop
  endfacet
  facet normal 0.956948 0.29026 0
    outer loop
      vertex 2.82306 3.76589 0
      vertex 2.89134 3.54078 0.2
      vertex 2.89134 3.54078 0
    endloop
  endfacet
  facet normal 0.29026 0.956948 -0
    outer loop
      vertex 3.76589 2.82306 0
      vertex 3.54078 2.89134 0.2
      vertex 3.76589 2.82306 0.2
    endloop
  endfacet
  facet normal 0.29026 0.956948 0
    outer loop
      vertex 3.54078 2.89134 0.2
      vertex 3.76589 2.82306 0
      vertex 3.54078 2.89134 0
    endloop
  endfacet
  facet normal 0.471413 0.881912 -0
    outer loop
      vertex 3.54078 2.89134 0
      vertex 3.33331 3.00224 0.2
      vertex 3.54078 2.89134 0.2
    endloop
  endfacet
  facet normal 0.471413 0.881912 0
    outer loop
      vertex 3.33331 3.00224 0.2
      vertex 3.54078 2.89134 0
      vertex 3.33331 3.00224 0
    endloop
  endfacet
  facet normal 0.0980263 0.995184 -0
    outer loop
      vertex 4 2.8 0
      vertex 3.76589 2.82306 0.2
      vertex 4 2.8 0.2
    endloop
  endfacet
  facet normal 0.0980263 0.995184 0
    outer loop
      vertex 3.76589 2.82306 0.2
      vertex 4 2.8 0
      vertex 3.76589 2.82306 0
    endloop
  endfacet
  facet normal -0 0 1
    outer loop
      vertex 4.99776 4.66668 0.2
      vertex 6.42487 4 0.2
      vertex 5.21243 6.1 0.2
    endloop
  endfacet
  facet normal 0 0 1
    outer loop
      vertex 5.17694 3.76589 0.2
      vertex 6.42487 4 0.2
      vertex 5.2 4 0.2
    endloop
  endfacet
  facet normal 0 0 1
    outer loop
      vertex 6.42487 4 0.2
      vertex 5.17694 4.23411 0.2
      vertex 5.2 4 0.2
    endloop
  endfacet
  facet normal 0 0 1
    outer loop
      vertex 6.42487 4 0.2
      vertex 5.10865 4.45922 0.2
      vertex 5.17694 4.23411 0.2
    endloop
  endfacet
  facet normal 0 0 1
    outer loop
      vertex 6.42487 4 0.2
      vertex 4.99776 4.66668 0.2
      vertex 5.10865 4.45922 0.2
    endloop
  endfacet
  facet normal 0 0 1
    outer loop
      vertex 5.21243 6.1 0.2
      vertex 4.84853 4.84853 0.2
      vertex 4.99776 4.66668 0.2
    endloop
  endfacet
  facet normal 0 0 1
    outer loop
      vertex 5.21243 6.1 0.2
      vertex 4.66668 4.99776 0.2
      vertex 4.84853 4.84853 0.2
    endloop
  endfacet
  facet normal 0 0 1
    outer loop
      vertex 5.21243 6.1 0.2
      vertex 4.45922 5.10865 0.2
      vertex 4.66668 4.99776 0.2
    endloop
  endfacet
  facet normal 0 0 1
    outer loop
      vertex 5.21243 6.1 0.2
      vertex 4.23411 5.17694 0.2
      vertex 4.45922 5.10865 0.2
    endloop
  endfacet
  facet normal 0 0 1
    outer loop
      vertex 5.21243 6.1 0.2
      vertex 4 5.2 0.2
      vertex 4.23411 5.17694 0.2
    endloop
  endfacet
  facet normal -0 0 1
    outer loop
      vertex 2.78756 6.1 0.2
      vertex 4 5.2 0.2
      vertex 5.21243 6.1 0.2
    endloop
  endfacet
  facet normal 0 0 1
    outer loop
      vertex 4 5.2 0.2
      vertex 2.78756 6.1 0.2
      vertex 3.76589 5.17694 0.2
    endloop
  endfacet
  facet normal 0 0 1
    outer loop
      vertex 3.76589 5.17694 0.2
      vertex 2.78756 6.1 0.2
      vertex 3.54078 5.10865 0.2
    endloop
  endfacet
  facet normal 0 0 1
    outer loop
      vertex 2.89134 4.45922 0.2
      vertex 1.57513 4 0.2
      vertex 2.82306 4.23411 0.2
    endloop
  endfacet
  facet normal 0 0 1
    outer loop
      vertex 3.00224 4.66668 0.2
      vertex 1.57513 4 0.2
      vertex 2.89134 4.45922 0.2
    endloop
  endfacet
  facet normal 0 0 1
    outer loop
      vertex 1.57513 4 0.2
      vertex 3.00224 4.66668 0.2
      vertex 2.78756 6.1 0.2
    endloop
  endfacet
  facet normal 0 0 1
    outer loop
      vertex 3.15147 4.84853 0.2
      vertex 2.78756 6.1 0.2
      vertex 3.00224 4.66668 0.2
    endloop
  endfacet
  facet normal 0 0 1
    outer loop
      vertex 3.33331 4.99776 0.2
      vertex 2.78756 6.1 0.2
      vertex 3.15147 4.84853 0.2
    endloop
  endfacet
  facet normal 0 0 1
    outer loop
      vertex 3.54078 5.10865 0.2
      vertex 2.78756 6.1 0.2
      vertex 3.33331 4.99776 0.2
    endloop
  endfacet
  facet normal 0 0 1
    outer loop
      vertex 5.10865 3.54078 0.2
      vertex 6.42487 4 0.2
      vertex 5.17694 3.76589 0.2
    endloop
  endfacet
  facet normal 0 0 1
    outer loop
      vertex 4.99776 3.33331 0.2
      vertex 6.42487 4 0.2
      vertex 5.10865 3.54078 0.2
    endloop
  endfacet
  facet normal 0 0 1
    outer loop
      vertex 6.42487 4 0.2
      vertex 4.99776 3.33331 0.2
      vertex 5.21243 1.9 0.2
    endloop
  endfacet
  facet normal -0 0 1
    outer loop
      vertex 4.84853 3.15147 0.2
      vertex 5.21243 1.9 0.2
      vertex 4.99776 3.33331 0.2
    endloop
  endfacet
  facet normal -0 0 1
    outer loop
      vertex 4.66668 3.00224 0.2
      vertex 5.21243 1.9 0.2
      vertex 4.84853 3.15147 0.2
    endloop
  endfacet
  facet normal -0 0 1
    outer loop
      vertex 4.45922 2.89134 0.2
      vertex 5.21243 1.9 0.2
      vertex 4.66668 3.00224 0.2
    endloop
  endfacet
  facet normal -0 0 1
    outer loop
      vertex 4.23411 2.82306 0.2
      vertex 5.21243 1.9 0.2
      vertex 4.45922 2.89134 0.2
    endloop
  endfacet
  facet normal -0 0 1
    outer loop
      vertex 4 2.8 0.2
      vertex 5.21243 1.9 0.2
      vertex 4.23411 2.82306 0.2
    endloop
  endfacet
  facet normal 0 0 1
    outer loop
      vertex 2.78756 1.9 0.2
      vertex 4 2.8 0.2
      vertex 3.76589 2.82306 0.2
    endloop
  endfacet
  facet normal 0 0 1
    outer loop
      vertex 2.78756 1.9 0.2
      vertex 3.76589 2.82306 0.2
      vertex 3.54078 2.89134 0.2
    endloop
  endfacet
  facet normal 0 0 1
    outer loop
      vertex 2.78756 1.9 0.2
      vertex 3.54078 2.89134 0.2
      vertex 3.33331 3.00224 0.2
    endloop
  endfacet
  facet normal 0 0 1
    outer loop
      vertex 4 2.8 0.2
      vertex 2.78756 1.9 0.2
      vertex 5.21243 1.9 0.2
    endloop
  endfacet
  facet normal 0 0 1
    outer loop
      vertex 3.15147 3.15147 0.2
      vertex 2.78756 1.9 0.2
      vertex 3.33331 3.00224 0.2
    endloop
  endfacet
  facet normal 0 0 1
    outer loop
      vertex 3.00224 3.33331 0.2
      vertex 2.78756 1.9 0.2
      vertex 3.15147 3.15147 0.2
    endloop
  endfacet
  facet normal 0 0 1
    outer loop
      vertex 1.57513 4 0.2
      vertex 3.00224 3.33331 0.2
      vertex 2.89134 3.54078 0.2
    endloop
  endfacet
  facet normal 0 0 1
    outer loop
      vertex 1.57513 4 0.2
      vertex 2.89134 3.54078 0.2
      vertex 2.82306 3.76589 0.2
    endloop
  endfacet
  facet normal -0 0 1
    outer loop
      vertex 1.57513 4 0.2
      vertex 2.82306 3.76589 0.2
      vertex 2.8 4 0.2
    endloop
  endfacet
  facet normal 0 0 1
    outer loop
      vertex 2.82306 4.23411 0.2
      vertex 1.57513 4 0.2
      vertex 2.8 4 0.2
    endloop
  endfacet
  facet normal 0 0 1
    outer loop
      vertex 3.00224 3.33331 0.2
      vertex 1.57513 4 0.2
      vertex 2.78756 1.9 0.2
    endloop
  endfacet
  facet normal -0.866025 -0.500001 0
    outer loop
      vertex 6.42487 4 0.2
      vertex 5.21243 6.1 2
      vertex 5.21243 6.1 0.2
    endloop
  endfacet
  facet normal -0.866025 -0.500001 0
    outer loop
      vertex 5.21243 6.1 2
      vertex 6.42487 4 0.2
      vertex 6.42487 4 2
    endloop
  endfacet
  facet normal 0.866026 -0.499998 0
    outer loop
      vertex 1.57513 4 2
      vertex 2.78756 6.1 0.2
      vertex 2.78756 6.1 2
    endloop
  endfacet
  facet normal 0.866026 -0.499998 0
    outer loop
      vertex 2.78756 6.1 0.2
      vertex 1.57513 4 2
      vertex 1.57513 4 0.2
    endloop
  endfacet
  facet normal 0 -1 0
    outer loop
      vertex 2.78756 6.1 0.2
      vertex 5.21243 6.1 2
      vertex 2.78756 6.1 2
    endloop
  endfacet
  facet normal 0 -1 -0
    outer loop
      vertex 5.21243 6.1 2
      vertex 2.78756 6.1 0.2
      vertex 5.21243 6.1 0.2
    endloop
  endfacet
  facet normal 0.866026 0.499998 0
    outer loop
      vertex 2.78756 1.9 2
      vertex 1.57513 4 0.2
      vertex 1.57513 4 2
    endloop
  endfacet
  facet normal 0.866026 0.499998 0
    outer loop
      vertex 1.57513 4 0.2
      vertex 2.78756 1.9 2
      vertex 2.78756 1.9 0.2
    endloop
  endfacet
  facet normal -0.866025 0.500001 0
    outer loop
      vertex 5.21243 1.9 0.2
      vertex 6.42487 4 2
      vertex 6.42487 4 0.2
    endloop
  endfacet
  facet normal -0.866025 0.500001 0
    outer loop
      vertex 6.42487 4 2
      vertex 5.21243 1.9 0.2
      vertex 5.21243 1.9 2
    endloop
  endfacet
  facet normal 0 1 -0
    outer loop
      vertex 5.21243 1.9 0.2
      vertex 2.78756 1.9 2
      vertex 5.21243 1.9 2
    endloop
  endfacet
  facet normal 0 1 0
    outer loop
      vertex 2.78756 1.9 2
      vertex 5.21243 1.9 0.2
      vertex 2.78756 1.9 0.2
    endloop
  endfacet
  facet normal -0.995167 -0.0981989 0
    outer loop
      vertex 31.2 20 0
      vertex 31.1769 20.2341 0.2
      vertex 31.1769 20.2341 0
    endloop
  endfacet
  facet normal -0.995167 -0.0981989 0
    outer loop
      vertex 31.1769 20.2341 0.2
      vertex 31.2 20 0
      vertex 31.2 20 0.2
    endloop
  endfacet
  facet normal 0.995167 0.0981989 0
    outer loop
      vertex 28.8231 19.7659 0.2
      vertex 28.8 20 0
      vertex 28.8 20 0.2
    endloop
  endfacet
  facet normal 0.995167 0.0981989 0
    outer loop
      vertex 28.8 20 0
      vertex 28.8231 19.7659 0.2
      vertex 28.8231 19.7659 0
    endloop
  endfacet
  facet normal 0.0981989 -0.995167 0
    outer loop
      vertex 29.7659 21.1769 0
      vertex 30 21.2 0.2
      vertex 29.7659 21.1769 0.2
    endloop
  endfacet
  facet normal 0.0981989 -0.995167 0
    outer loop
      vertex 30 21.2 0.2
      vertex 29.7659 21.1769 0
      vertex 30 21.2 0
    endloop
  endfacet
  facet normal -0.0981989 0.995167 0
    outer loop
      vertex 30.2341 18.8231 0
      vertex 30 18.8 0.2
      vertex 30.2341 18.8231 0.2
    endloop
  endfacet
  facet normal -0.0981989 0.995167 0
    outer loop
      vertex 30 18.8 0.2
      vertex 30.2341 18.8231 0
      vertex 30 18.8 0
    endloop
  endfacet
  facet normal -0.634649 -0.772801 0
    outer loop
      vertex 30.6667 20.9978 0
      vertex 30.8485 20.8485 0.2
      vertex 30.6667 20.9978 0.2
    endloop
  endfacet
  facet normal -0.634649 -0.772801 -0
    outer loop
      vertex 30.8485 20.8485 0.2
      vertex 30.6667 20.9978 0
      vertex 30.8485 20.8485 0
    endloop
  endfacet
  facet normal 0.772801 -0.634649 0
    outer loop
      vertex 29.0022 20.6667 0.2
      vertex 29.1515 20.8485 0
      vertex 29.1515 20.8485 0.2
    endloop
  endfacet
  facet normal 0.772801 -0.634649 0
    outer loop
      vertex 29.1515 20.8485 0
      vertex 29.0022 20.6667 0.2
      vertex 29.0022 20.6667 0
    endloop
  endfacet
  facet normal 0.47136 -0.881941 0
    outer loop
      vertex 29.3333 20.9978 0
      vertex 29.5408 21.1087 0.2
      vertex 29.3333 20.9978 0.2
    endloop
  endfacet
  facet normal 0.47136 -0.881941 0
    outer loop
      vertex 29.5408 21.1087 0.2
      vertex 29.3333 20.9978 0
      vertex 29.5408 21.1087 0
    endloop
  endfacet
  facet normal -0.881941 0.47136 0
    outer loop
      vertex 30.9978 19.3333 0
      vertex 31.1087 19.5408 0.2
      vertex 31.1087 19.5408 0
    endloop
  endfacet
  facet normal -0.881941 0.47136 0
    outer loop
      vertex 31.1087 19.5408 0.2
      vertex 30.9978 19.3333 0
      vertex 30.9978 19.3333 0.2
    endloop
  endfacet
  facet normal -0.881941 -0.47136 0
    outer loop
      vertex 31.1087 20.4592 0
      vertex 30.9978 20.6667 0.2
      vertex 30.9978 20.6667 0
    endloop
  endfacet
  facet normal -0.881941 -0.47136 0
    outer loop
      vertex 30.9978 20.6667 0.2
      vertex 31.1087 20.4592 0
      vertex 31.1087 20.4592 0.2
    endloop
  endfacet
  facet normal -0.957039 -0.28996 0
    outer loop
      vertex 31.1769 20.2341 0
      vertex 31.1087 20.4592 0.2
      vertex 31.1087 20.4592 0
    endloop
  endfacet
  facet normal -0.957039 -0.28996 0
    outer loop
      vertex 31.1087 20.4592 0.2
      vertex 31.1769 20.2341 0
      vertex 31.1769 20.2341 0.2
    endloop
  endfacet
  facet normal -0.772801 -0.634649 0
    outer loop
      vertex 30.9978 20.6667 0
      vertex 30.8485 20.8485 0.2
      vertex 30.8485 20.8485 0
    endloop
  endfacet
  facet normal -0.772801 -0.634649 0
    outer loop
      vertex 30.8485 20.8485 0.2
      vertex 30.9978 20.6667 0
      vertex 30.9978 20.6667 0.2
    endloop
  endfacet
  facet normal -0.28996 -0.957039 0
    outer loop
      vertex 30.2341 21.1769 0
      vertex 30.4592 21.1087 0.2
      vertex 30.2341 21.1769 0.2
    endloop
  endfacet
  facet normal -0.28996 -0.957039 -0
    outer loop
      vertex 30.4592 21.1087 0.2
      vertex 30.2341 21.1769 0
      vertex 30.4592 21.1087 0
    endloop
  endfacet
  facet normal -0.0981989 -0.995167 0
    outer loop
      vertex 30 21.2 0
      vertex 30.2341 21.1769 0.2
      vertex 30 21.2 0.2
    endloop
  endfacet
  facet normal -0.0981989 -0.995167 -0
    outer loop
      vertex 30.2341 21.1769 0.2
      vertex 30 21.2 0
      vertex 30.2341 21.1769 0
    endloop
  endfacet
  facet normal -0.47136 -0.881941 0
    outer loop
      vertex 30.4592 21.1087 0
      vertex 30.6667 20.9978 0.2
      vertex 30.4592 21.1087 0.2
    endloop
  endfacet
  facet normal -0.47136 -0.881941 -0
    outer loop
      vertex 30.6667 20.9978 0.2
      vertex 30.4592 21.1087 0
      vertex 30.6667 20.9978 0
    endloop
  endfacet
  facet normal 0.957039 -0.28996 0
    outer loop
      vertex 28.8231 20.2341 0.2
      vertex 28.8913 20.4592 0
      vertex 28.8913 20.4592 0.2
    endloop
  endfacet
  facet normal 0.957039 -0.28996 0
    outer loop
      vertex 28.8913 20.4592 0
      vertex 28.8231 20.2341 0.2
      vertex 28.8231 20.2341 0
    endloop
  endfacet
  facet normal 0.881941 -0.47136 0
    outer loop
      vertex 28.8913 20.4592 0.2
      vertex 29.0022 20.6667 0
      vertex 29.0022 20.6667 0.2
    endloop
  endfacet
  facet normal 0.881941 -0.47136 0
    outer loop
      vertex 29.0022 20.6667 0
      vertex 28.8913 20.4592 0.2
      vertex 28.8913 20.4592 0
    endloop
  endfacet
  facet normal 0.995167 -0.0981989 0
    outer loop
      vertex 28.8 20 0.2
      vertex 28.8231 20.2341 0
      vertex 28.8231 20.2341 0.2
    endloop
  endfacet
  facet normal 0.995167 -0.0981989 0
    outer loop
      vertex 28.8231 20.2341 0
      vertex 28.8 20 0.2
      vertex 28.8 20 0
    endloop
  endfacet
  facet normal 0.634649 -0.772801 0
    outer loop
      vertex 29.1515 20.8485 0
      vertex 29.3333 20.9978 0.2
      vertex 29.1515 20.8485 0.2
    endloop
  endfacet
  facet normal 0.634649 -0.772801 0
    outer loop
      vertex 29.3333 20.9978 0.2
      vertex 29.1515 20.8485 0
      vertex 29.3333 20.9978 0
    endloop
  endfacet
  facet normal 0.28996 -0.957039 0
    outer loop
      vertex 29.5408 21.1087 0
      vertex 29.7659 21.1769 0.2
      vertex 29.5408 21.1087 0.2
    endloop
  endfacet
  facet normal 0.28996 -0.957039 0
    outer loop
      vertex 29.7659 21.1769 0.2
      vertex 29.5408 21.1087 0
      vertex 29.7659 21.1769 0
    endloop
  endfacet
  facet normal -0.28996 0.957039 0
    outer loop
      vertex 30.4592 18.8913 0
      vertex 30.2341 18.8231 0.2
      vertex 30.4592 18.8913 0.2
    endloop
  endfacet
  facet normal -0.28996 0.957039 0
    outer loop
      vertex 30.2341 18.8231 0.2
      vertex 30.4592 18.8913 0
      vertex 30.2341 18.8231 0
    endloop
  endfacet
  facet normal -0.634649 0.772801 0
    outer loop
      vertex 30.8485 19.1515 0
      vertex 30.6667 19.0022 0.2
      vertex 30.8485 19.1515 0.2
    endloop
  endfacet
  facet normal -0.634649 0.772801 0
    outer loop
      vertex 30.6667 19.0022 0.2
      vertex 30.8485 19.1515 0
      vertex 30.6667 19.0022 0
    endloop
  endfacet
  facet normal -0.772801 0.634649 0
    outer loop
      vertex 30.8485 19.1515 0
      vertex 30.9978 19.3333 0.2
      vertex 30.9978 19.3333 0
    endloop
  endfacet
  facet normal -0.772801 0.634649 0
    outer loop
      vertex 30.9978 19.3333 0.2
      vertex 30.8485 19.1515 0
      vertex 30.8485 19.1515 0.2
    endloop
  endfacet
  facet normal -0.957039 0.28996 0
    outer loop
      vertex 31.1087 19.5408 0
      vertex 31.1769 19.7659 0.2
      vertex 31.1769 19.7659 0
    endloop
  endfacet
  facet normal -0.957039 0.28996 0
    outer loop
      vertex 31.1769 19.7659 0.2
      vertex 31.1087 19.5408 0
      vertex 31.1087 19.5408 0.2
    endloop
  endfacet
  facet normal -0.995167 0.0981989 0
    outer loop
      vertex 31.1769 19.7659 0
      vertex 31.2 20 0.2
      vertex 31.2 20 0
    endloop
  endfacet
  facet normal -0.995167 0.0981989 0
    outer loop
      vertex 31.2 20 0.2
      vertex 31.1769 19.7659 0
      vertex 31.1769 19.7659 0.2
    endloop
  endfacet
  facet normal 0.772801 0.634649 0
    outer loop
      vertex 29.1515 19.1515 0.2
      vertex 29.0022 19.3333 0
      vertex 29.0022 19.3333 0.2
    endloop
  endfacet
  facet normal 0.772801 0.634649 0
    outer loop
      vertex 29.0022 19.3333 0
      vertex 29.1515 19.1515 0.2
      vertex 29.1515 19.1515 0
    endloop
  endfacet
  facet normal -0.47136 0.881941 0
    outer loop
      vertex 30.6667 19.0022 0
      vertex 30.4592 18.8913 0.2
      vertex 30.6667 19.0022 0.2
    endloop
  endfacet
  facet normal -0.47136 0.881941 0
    outer loop
      vertex 30.4592 18.8913 0.2
      vertex 30.6667 19.0022 0
      vertex 30.4592 18.8913 0
    endloop
  endfacet
  facet normal 0.28996 0.957039 -0
    outer loop
      vertex 29.7659 18.8231 0
      vertex 29.5408 18.8913 0.2
      vertex 29.7659 18.8231 0.2
    endloop
  endfacet
  facet normal 0.28996 0.957039 0
    outer loop
      vertex 29.5408 18.8913 0.2
      vertex 29.7659 18.8231 0
      vertex 29.5408 18.8913 0
    endloop
  endfacet
  facet normal 0.634649 0.772801 -0
    outer loop
      vertex 29.3333 19.0022 0
      vertex 29.1515 19.1515 0.2
      vertex 29.3333 19.0022 0.2
    endloop
  endfacet
  facet normal 0.634649 0.772801 0
    outer loop
      vertex 29.1515 19.1515 0.2
      vertex 29.3333 19.0022 0
      vertex 29.1515 19.1515 0
    endloop
  endfacet
  facet normal 0.881941 0.47136 0
    outer loop
      vertex 29.0022 19.3333 0.2
      vertex 28.8913 19.5408 0
      vertex 28.8913 19.5408 0.2
    endloop
  endfacet
  facet normal 0.881941 0.47136 0
    outer loop
      vertex 28.8913 19.5408 0
      vertex 29.0022 19.3333 0.2
      vertex 29.0022 19.3333 0
    endloop
  endfacet
  facet normal 0.957039 0.28996 0
    outer loop
      vertex 28.8913 19.5408 0.2
      vertex 28.8231 19.7659 0
      vertex 28.8231 19.7659 0.2
    endloop
  endfacet
  facet normal 0.957039 0.28996 0
    outer loop
      vertex 28.8231 19.7659 0
      vertex 28.8913 19.5408 0.2
      vertex 28.8913 19.5408 0
    endloop
  endfacet
  facet normal 0.47136 0.881941 -0
    outer loop
      vertex 29.5408 18.8913 0
      vertex 29.3333 19.0022 0.2
      vertex 29.5408 18.8913 0.2
    endloop
  endfacet
  facet normal 0.47136 0.881941 0
    outer loop
      vertex 29.3333 19.0022 0.2
      vertex 29.5408 18.8913 0
      vertex 29.3333 19.0022 0
    endloop
  endfacet
  facet normal 0.0981989 0.995167 -0
    outer loop
      vertex 30 18.8 0
      vertex 29.7659 18.8231 0.2
      vertex 30 18.8 0.2
    endloop
  endfacet
  facet normal 0.0981989 0.995167 0
    outer loop
      vertex 29.7659 18.8231 0.2
      vertex 30 18.8 0
      vertex 29.7659 18.8231 0
    endloop
  endfacet
  facet normal -0 0 1
    outer loop
      vertex 30.9978 20.6667 0.2
      vertex 32.4249 20 0.2
      vertex 31.2124 22.1 0.2
    endloop
  endfacet
  facet normal 0 0 1
    outer loop
      vertex 31.1769 19.7659 0.2
      vertex 32.4249 20 0.2
      vertex 31.2 20 0.2
    endloop
  endfacet
  facet normal 0 0 1
    outer loop
      vertex 32.4249 20 0.2
      vertex 31.1769 20.2341 0.2
      vertex 31.2 20 0.2
    endloop
  endfacet
  facet normal 0 0 1
    outer loop
      vertex 32.4249 20 0.2
      vertex 31.1087 20.4592 0.2
      vertex 31.1769 20.2341 0.2
    endloop
  endfacet
  facet normal 0 0 1
    outer loop
      vertex 32.4249 20 0.2
      vertex 30.9978 20.6667 0.2
      vertex 31.1087 20.4592 0.2
    endloop
  endfacet
  facet normal 0 0 1
    outer loop
      vertex 31.2124 22.1 0.2
      vertex 30.8485 20.8485 0.2
      vertex 30.9978 20.6667 0.2
    endloop
  endfacet
  facet normal 0 0 1
    outer loop
      vertex 31.2124 22.1 0.2
      vertex 30.6667 20.9978 0.2
      vertex 30.8485 20.8485 0.2
    endloop
  endfacet
  facet normal 0 0 1
    outer loop
      vertex 31.2124 22.1 0.2
      vertex 30.4592 21.1087 0.2
      vertex 30.6667 20.9978 0.2
    endloop
  endfacet
  facet normal 0 0 1
    outer loop
      vertex 31.2124 22.1 0.2
      vertex 30.2341 21.1769 0.2
      vertex 30.4592 21.1087 0.2
    endloop
  endfacet
  facet normal 0 0 1
    outer loop
      vertex 31.2124 22.1 0.2
      vertex 30 21.2 0.2
      vertex 30.2341 21.1769 0.2
    endloop
  endfacet
  facet normal -0 0 1
    outer loop
      vertex 28.7876 22.1 0.2
      vertex 30 21.2 0.2
      vertex 31.2124 22.1 0.2
    endloop
  endfacet
  facet normal 0 0 1
    outer loop
      vertex 30 21.2 0.2
      vertex 28.7876 22.1 0.2
      vertex 29.7659 21.1769 0.2
    endloop
  endfacet
  facet normal 0 0 1
    outer loop
      vertex 29.7659 21.1769 0.2
      vertex 28.7876 22.1 0.2
      vertex 29.5408 21.1087 0.2
    endloop
  endfacet
  facet normal 0 0 1
    outer loop
      vertex 28.8913 20.4592 0.2
      vertex 27.5751 20 0.2
      vertex 28.8231 20.2341 0.2
    endloop
  endfacet
  facet normal 0 0 1
    outer loop
      vertex 29.0022 20.6667 0.2
      vertex 27.5751 20 0.2
      vertex 28.8913 20.4592 0.2
    endloop
  endfacet
  facet normal 0 0 1
    outer loop
      vertex 27.5751 20 0.2
      vertex 29.0022 20.6667 0.2
      vertex 28.7876 22.1 0.2
    endloop
  endfacet
  facet normal 0 0 1
    outer loop
      vertex 29.1515 20.8485 0.2
      vertex 28.7876 22.1 0.2
      vertex 29.0022 20.6667 0.2
    endloop
  endfacet
  facet normal 0 0 1
    outer loop
      vertex 29.3333 20.9978 0.2
      vertex 28.7876 22.1 0.2
      vertex 29.1515 20.8485 0.2
    endloop
  endfacet
  facet normal 0 0 1
    outer loop
      vertex 29.5408 21.1087 0.2
      vertex 28.7876 22.1 0.2
      vertex 29.3333 20.9978 0.2
    endloop
  endfacet
  facet normal 0 0 1
    outer loop
      vertex 31.1087 19.5408 0.2
      vertex 32.4249 20 0.2
      vertex 31.1769 19.7659 0.2
    endloop
  endfacet
  facet normal 0 0 1
    outer loop
      vertex 30.9978 19.3333 0.2
      vertex 32.4249 20 0.2
      vertex 31.1087 19.5408 0.2
    endloop
  endfacet
  facet normal 0 0 1
    outer loop
      vertex 32.4249 20 0.2
      vertex 30.9978 19.3333 0.2
      vertex 31.2124 17.9 0.2
    endloop
  endfacet
  facet normal -0 0 1
    outer loop
      vertex 30.8485 19.1515 0.2
      vertex 31.2124 17.9 0.2
      vertex 30.9978 19.3333 0.2
    endloop
  endfacet
  facet normal -0 0 1
    outer loop
      vertex 30.6667 19.0022 0.2
      vertex 31.2124 17.9 0.2
      vertex 30.8485 19.1515 0.2
    endloop
  endfacet
  facet normal -0 0 1
    outer loop
      vertex 30.4592 18.8913 0.2
      vertex 31.2124 17.9 0.2
      vertex 30.6667 19.0022 0.2
    endloop
  endfacet
  facet normal -0 0 1
    outer loop
      vertex 30.2341 18.8231 0.2
      vertex 31.2124 17.9 0.2
      vertex 30.4592 18.8913 0.2
    endloop
  endfacet
  facet normal -0 0 1
    outer loop
      vertex 30 18.8 0.2
      vertex 31.2124 17.9 0.2
      vertex 30.2341 18.8231 0.2
    endloop
  endfacet
  facet normal 0 0 1
    outer loop
      vertex 28.7876 17.9 0.2
      vertex 30 18.8 0.2
      vertex 29.7659 18.8231 0.2
    endloop
  endfacet
  facet normal 0 0 1
    outer loop
      vertex 28.7876 17.9 0.2
      vertex 29.7659 18.8231 0.2
      vertex 29.5408 18.8913 0.2
    endloop
  endfacet
  facet normal 0 0 1
    outer loop
      vertex 28.7876 17.9 0.2
      vertex 29.5408 18.8913 0.2
      vertex 29.3333 19.0022 0.2
    endloop
  endfacet
  facet normal 0 0 1
    outer loop
      vertex 30 18.8 0.2
      vertex 28.7876 17.9 0.2
      vertex 31.2124 17.9 0.2
    endloop
  endfacet
  facet normal 0 0 1
    outer loop
      vertex 29.1515 19.1515 0.2
      vertex 28.7876 17.9 0.2
      vertex 29.3333 19.0022 0.2
    endloop
  endfacet
  facet normal 0 0 1
    outer loop
      vertex 29.0022 19.3333 0.2
      vertex 28.7876 17.9 0.2
      vertex 29.1515 19.1515 0.2
    endloop
  endfacet
  facet normal 0 0 1
    outer loop
      vertex 27.5751 20 0.2
      vertex 29.0022 19.3333 0.2
      vertex 28.8913 19.5408 0.2
    endloop
  endfacet
  facet normal 0 0 1
    outer loop
      vertex 27.5751 20 0.2
      vertex 28.8913 19.5408 0.2
      vertex 28.8231 19.7659 0.2
    endloop
  endfacet
  facet normal -0 0 1
    outer loop
      vertex 27.5751 20 0.2
      vertex 28.8231 19.7659 0.2
      vertex 28.8 20 0.2
    endloop
  endfacet
  facet normal 0 0 1
    outer loop
      vertex 28.8231 20.2341 0.2
      vertex 27.5751 20 0.2
      vertex 28.8 20 0.2
    endloop
  endfacet
  facet normal 0 0 1
    outer loop
      vertex 29.0022 19.3333 0.2
      vertex 27.5751 20 0.2
      vertex 28.7876 17.9 0.2
    endloop
  endfacet
  facet normal -0.866014 -0.50002 0
    outer loop
      vertex 32.4249 20 0.2
      vertex 31.2124 22.1 2
      vertex 31.2124 22.1 0.2
    endloop
  endfacet
  facet normal -0.866014 -0.50002 0
    outer loop
      vertex 31.2124 22.1 2
      vertex 32.4249 20 0.2
      vertex 32.4249 20 2
    endloop
  endfacet
  facet normal 0 1 -0
    outer loop
      vertex 31.2124 17.9 0.2
      vertex 28.7876 17.9 2
      vertex 31.2124 17.9 2
    endloop
  endfacet
  facet normal 0 1 0
    outer loop
      vertex 28.7876 17.9 2
      vertex 31.2124 17.9 0.2
      vertex 28.7876 17.9 0.2
    endloop
  endfacet
  facet normal 0.866014 -0.50002 0
    outer loop
      vertex 27.5751 20 2
      vertex 28.7876 22.1 0.2
      vertex 28.7876 22.1 2
    endloop
  endfacet
  facet normal 0.866014 -0.50002 0
    outer loop
      vertex 28.7876 22.1 0.2
      vertex 27.5751 20 2
      vertex 27.5751 20 0.2
    endloop
  endfacet
  facet normal 0 -1 0
    outer loop
      vertex 28.7876 22.1 0.2
      vertex 31.2124 22.1 2
      vertex 28.7876 22.1 2
    endloop
  endfacet
  facet normal 0 -1 -0
    outer loop
      vertex 31.2124 22.1 2
      vertex 28.7876 22.1 0.2
      vertex 31.2124 22.1 0.2
    endloop
  endfacet
  facet normal 0.866014 0.50002 0
    outer loop
      vertex 28.7876 17.9 2
      vertex 27.5751 20 0.2
      vertex 27.5751 20 2
    endloop
  endfacet
  facet normal 0.866014 0.50002 0
    outer loop
      vertex 27.5751 20 0.2
      vertex 28.7876 17.9 2
      vertex 28.7876 17.9 0.2
    endloop
  endfacet
  facet normal -0.866014 0.50002 0
    outer loop
      vertex 31.2124 17.9 0.2
      vertex 32.4249 20 2
      vertex 32.4249 20 0.2
    endloop
  endfacet
  facet normal -0.866014 0.50002 0
    outer loop
      vertex 32.4249 20 2
      vertex 31.2124 17.9 0.2
      vertex 31.2124 17.9 2
    endloop
  endfacet
  facet normal -0.995185 -0.098015 0
    outer loop
      vertex 0.0288219 1.20736 0
      vertex 0 1.5 2
      vertex 0 1.5 0
    endloop
  endfacet
  facet normal -0.995185 -0.098015 0
    outer loop
      vertex 0 1.5 2
      vertex 0.0288219 1.20736 0
      vertex 0.0288219 1.20736 2
    endloop
  endfacet
  facet normal 0 0 1
    outer loop
      vertex 31.2124 22.1 2
      vertex 34 22.5 2
      vertex 33.9712 22.7926 2
    endloop
  endfacet
  facet normal 0 0 1
    outer loop
      vertex 34 22.5 2
      vertex 32.4249 20 2
      vertex 34 1.5 2
    endloop
  endfacet
  facet normal 0 0 1
    outer loop
      vertex 31.2124 22.1 2
      vertex 33.9712 22.7926 2
      vertex 33.8858 23.074 2
    endloop
  endfacet
  facet normal -0 0 1
    outer loop
      vertex 31.2124 17.9 2
      vertex 34 1.5 2
      vertex 32.4249 20 2
    endloop
  endfacet
  facet normal 0 0 1
    outer loop
      vertex 31.2124 22.1 2
      vertex 33.8858 23.074 2
      vertex 33.7472 23.3334 2
    endloop
  endfacet
  facet normal -0 0 1
    outer loop
      vertex 28.7876 17.9 2
      vertex 34 1.5 2
      vertex 31.2124 17.9 2
    endloop
  endfacet
  facet normal 0 0 1
    outer loop
      vertex 31.2124 22.1 2
      vertex 33.7472 23.3334 2
      vertex 33.5607 23.5607 2
    endloop
  endfacet
  facet normal 0 -0 1
    outer loop
      vertex 32.5 0 2
      vertex 34 1.5 2
      vertex 28.7876 17.9 2
    endloop
  endfacet
  facet normal 0 0 1
    outer loop
      vertex 31.2124 22.1 2
      vertex 33.5607 23.5607 2
      vertex 33.3334 23.7472 2
    endloop
  endfacet
  facet normal 0 0 1
    outer loop
      vertex 34 1.5 2
      vertex 32.5 0 2
      vertex 33.9712 1.20736 2
    endloop
  endfacet
  facet normal 0 0 1
    outer loop
      vertex 31.2124 22.1 2
      vertex 33.3334 23.7472 2
      vertex 33.074 23.8858 2
    endloop
  endfacet
  facet normal 0 0 1
    outer loop
      vertex 33.9712 1.20736 2
      vertex 32.5 0 2
      vertex 33.8858 0.925975 2
    endloop
  endfacet
  facet normal 0 0 1
    outer loop
      vertex 31.2124 22.1 2
      vertex 33.074 23.8858 2
      vertex 32.7926 23.9712 2
    endloop
  endfacet
  facet normal 0 0 1
    outer loop
      vertex 33.8858 0.925975 2
      vertex 32.5 0 2
      vertex 33.7472 0.666644 2
    endloop
  endfacet
  facet normal 0 0 1
    outer loop
      vertex 31.2124 22.1 2
      vertex 32.7926 23.9712 2
      vertex 32.5 24 2
    endloop
  endfacet
  facet normal 0 0 1
    outer loop
      vertex 33.5607 0.43934 2
      vertex 32.5 0 2
      vertex 33.3334 0.252795 2
    endloop
  endfacet
  facet normal 0 0 1
    outer loop
      vertex 33.3334 0.252795 2
      vertex 32.5 0 2
      vertex 33.074 0.114181 2
    endloop
  endfacet
  facet normal 0 0 1
    outer loop
      vertex 34 22.5 2
      vertex 31.2124 22.1 2
      vertex 32.4249 20 2
    endloop
  endfacet
  facet normal 0 0 1
    outer loop
      vertex 32.5 24 2
      vertex 28.7876 22.1 2
      vertex 31.2124 22.1 2
    endloop
  endfacet
  facet normal 0 0 1
    outer loop
      vertex 1.5 24 2
      vertex 27.5751 20 2
      vertex 28.7876 22.1 2
    endloop
  endfacet
  facet normal 0 0 1
    outer loop
      vertex 27.5751 20 2
      vertex 5.21243 6.1 2
      vertex 6.42487 4 2
    endloop
  endfacet
  facet normal 0 0 1
    outer loop
      vertex 27.5751 20 2
      vertex 1.5 24 2
      vertex 5.21243 6.1 2
    endloop
  endfacet
  facet normal 0 0 1
    outer loop
      vertex 5.21243 6.1 2
      vertex 0 22.5 2
      vertex 2.78756 6.1 2
    endloop
  endfacet
  facet normal -0 0 1
    outer loop
      vertex 0 22.5 2
      vertex 5.21243 6.1 2
      vertex 1.5 24 2
    endloop
  endfacet
  facet normal -0 0 1
    outer loop
      vertex 1.5 24 2
      vertex 28.7876 22.1 2
      vertex 32.5 24 2
    endloop
  endfacet
  facet normal 0 0 1
    outer loop
      vertex 33.074 0.114181 2
      vertex 32.5 0 2
      vertex 32.7926 0.0288219 2
    endloop
  endfacet
  facet normal 0 0 1
    outer loop
      vertex 33.7472 0.666644 2
      vertex 32.5 0 2
      vertex 33.5607 0.43934 2
    endloop
  endfacet
  facet normal 0 0 1
    outer loop
      vertex 6.42487 4 2
      vertex 28.7876 17.9 2
      vertex 27.5751 20 2
    endloop
  endfacet
  facet normal 0 0 1
    outer loop
      vertex 28.7876 17.9 2
      vertex 6.42487 4 2
      vertex 32.5 0 2
    endloop
  endfacet
  facet normal -0 0 1
    outer loop
      vertex 5.21243 1.9 2
      vertex 32.5 0 2
      vertex 6.42487 4 2
    endloop
  endfacet
  facet normal 0 0 1
    outer loop
      vertex 1.5 0 2
      vertex 5.21243 1.9 2
      vertex 2.78756 1.9 2
    endloop
  endfacet
  facet normal 0 0 1
    outer loop
      vertex 5.21243 1.9 2
      vertex 1.5 0 2
      vertex 32.5 0 2
    endloop
  endfacet
  facet normal 0 0 1
    outer loop
      vertex 0 1.5 2
      vertex 2.78756 1.9 2
      vertex 1.57513 4 2
    endloop
  endfacet
  facet normal 0 0 1
    outer loop
      vertex 2.78756 6.1 2
      vertex 0 22.5 2
      vertex 1.57513 4 2
    endloop
  endfacet
  facet normal 0 0 1
    outer loop
      vertex 0 22.5 2
      vertex 1.5 24 2
      vertex 1.20736 23.9712 2
    endloop
  endfacet
  facet normal 0 0 1
    outer loop
      vertex 0 1.5 2
      vertex 1.57513 4 2
      vertex 0 22.5 2
    endloop
  endfacet
  facet normal 0 0 1
    outer loop
      vertex 0 22.5 2
      vertex 1.20736 23.9712 2
      vertex 0.925975 23.8858 2
    endloop
  endfacet
  facet normal 0 -0 1
    outer loop
      vertex 0.0288219 1.20736 2
      vertex 2.78756 1.9 2
      vertex 0 1.5 2
    endloop
  endfacet
  facet normal 0 0 1
    outer loop
      vertex 0 22.5 2
      vertex 0.925975 23.8858 2
      vertex 0.666644 23.7472 2
    endloop
  endfacet
  facet normal 0 0 1
    outer loop
      vertex 2.78756 1.9 2
      vertex 1.20736 0.0288219 2
      vertex 1.5 0 2
    endloop
  endfacet
  facet normal 0 0 1
    outer loop
      vertex 0 22.5 2
      vertex 0.666644 23.7472 2
      vertex 0.43934 23.5607 2
    endloop
  endfacet
  facet normal 0 0 1
    outer loop
      vertex 2.78756 1.9 2
      vertex 0.925975 0.114181 2
      vertex 1.20736 0.0288219 2
    endloop
  endfacet
  facet normal 0 0 1
    outer loop
      vertex 0 22.5 2
      vertex 0.43934 23.5607 2
      vertex 0.252795 23.3334 2
    endloop
  endfacet
  facet normal 0 0 1
    outer loop
      vertex 2.78756 1.9 2
      vertex 0.666644 0.252795 2
      vertex 0.925975 0.114181 2
    endloop
  endfacet
  facet normal 0 0 1
    outer loop
      vertex 0 22.5 2
      vertex 0.252795 23.3334 2
      vertex 0.114181 23.074 2
    endloop
  endfacet
  facet normal 0 0 1
    outer loop
      vertex 2.78756 1.9 2
      vertex 0.43934 0.43934 2
      vertex 0.666644 0.252795 2
    endloop
  endfacet
  facet normal 0 0 1
    outer loop
      vertex 0 22.5 2
      vertex 0.114181 23.074 2
      vertex 0.0288219 22.7926 2
    endloop
  endfacet
  facet normal 0 0 1
    outer loop
      vertex 2.78756 1.9 2
      vertex 0.252795 0.666644 2
      vertex 0.43934 0.43934 2
    endloop
  endfacet
  facet normal 0 0 1
    outer loop
      vertex 2.78756 1.9 2
      vertex 0.114181 0.925975 2
      vertex 0.252795 0.666644 2
    endloop
  endfacet
  facet normal 0 0 1
    outer loop
      vertex 2.78756 1.9 2
      vertex 0.0288219 1.20736 2
      vertex 0.114181 0.925975 2
    endloop
  endfacet
  facet normal 0.995191 0.0979545 0
    outer loop
      vertex 34 22.5 2
      vertex 33.9712 22.7926 0
      vertex 33.9712 22.7926 2
    endloop
  endfacet
  facet normal 0.995191 0.0979545 0
    outer loop
      vertex 33.9712 22.7926 0
      vertex 34 22.5 2
      vertex 34 22.5 0
    endloop
  endfacet
  facet normal 0 -1 0
    outer loop
      vertex 1.5 0 0
      vertex 32.5 0 2
      vertex 1.5 0 2
    endloop
  endfacet
  facet normal 0 -1 -0
    outer loop
      vertex 32.5 0 2
      vertex 1.5 0 0
      vertex 32.5 0 0
    endloop
  endfacet
  facet normal 0.0980283 -0.995184 0
    outer loop
      vertex 32.5 0 0
      vertex 32.7926 0.0288219 2
      vertex 32.5 0 2
    endloop
  endfacet
  facet normal 0.0980283 -0.995184 0
    outer loop
      vertex 32.7926 0.0288219 2
      vertex 32.5 0 0
      vertex 32.7926 0.0288219 0
    endloop
  endfacet
  facet normal 0 1 -0
    outer loop
      vertex 32.5 24 0
      vertex 1.5 24 2
      vertex 32.5 24 2
    endloop
  endfacet
  facet normal 0 1 0
    outer loop
      vertex 1.5 24 2
      vertex 32.5 24 0
      vertex 1.5 24 0
    endloop
  endfacet
  facet normal -1 0 0
    outer loop
      vertex 0 1.5 0
      vertex 0 22.5 2
      vertex 0 22.5 0
    endloop
  endfacet
  facet normal -1 -0 0
    outer loop
      vertex 0 22.5 2
      vertex 0 1.5 0
      vertex 0 1.5 2
    endloop
  endfacet
  facet normal 0 0 -1
    outer loop
      vertex 32.5 0 0
      vertex 34 1.5 0
      vertex 33.9712 1.20736 0
    endloop
  endfacet
  facet normal 0 0 -1
    outer loop
      vertex 34 1.5 0
      vertex 30.9978 19.3333 0
      vertex 34 22.5 0
    endloop
  endfacet
  facet normal 0 0 -1
    outer loop
      vertex 32.5 0 0
      vertex 33.9712 1.20736 0
      vertex 33.8858 0.925975 0
    endloop
  endfacet
  facet normal 0 -0 -1
    outer loop
      vertex 31.1087 19.5408 0
      vertex 34 22.5 0
      vertex 30.9978 19.3333 0
    endloop
  endfacet
  facet normal 0 0 -1
    outer loop
      vertex 32.5 0 0
      vertex 33.8858 0.925975 0
      vertex 33.7472 0.666644 0
    endloop
  endfacet
  facet normal 0 -0 -1
    outer loop
      vertex 31.1769 19.7659 0
      vertex 34 22.5 0
      vertex 31.1087 19.5408 0
    endloop
  endfacet
  facet normal 0 0 -1
    outer loop
      vertex 32.5 0 0
      vertex 33.7472 0.666644 0
      vertex 33.5607 0.43934 0
    endloop
  endfacet
  facet normal 0 0 -1
    outer loop
      vertex 31.1769 20.2341 0
      vertex 34 22.5 0
      vertex 31.2 20 0
    endloop
  endfacet
  facet normal 0 0 -1
    outer loop
      vertex 32.5 0 0
      vertex 33.5607 0.43934 0
      vertex 33.3334 0.252795 0
    endloop
  endfacet
  facet normal 0 0 -1
    outer loop
      vertex 31.1087 20.4592 0
      vertex 34 22.5 0
      vertex 31.1769 20.2341 0
    endloop
  endfacet
  facet normal 0 0 -1
    outer loop
      vertex 32.5 0 0
      vertex 33.3334 0.252795 0
      vertex 33.074 0.114181 0
    endloop
  endfacet
  facet normal 0 0 -1
    outer loop
      vertex 30.9978 20.6667 0
      vertex 34 22.5 0
      vertex 31.1087 20.4592 0
    endloop
  endfacet
  facet normal 0 0 -1
    outer loop
      vertex 32.5 0 0
      vertex 33.074 0.114181 0
      vertex 32.7926 0.0288219 0
    endloop
  endfacet
  facet normal 0 0 -1
    outer loop
      vertex 30.8485 20.8485 0
      vertex 34 22.5 0
      vertex 30.9978 20.6667 0
    endloop
  endfacet
  facet normal 0 0 -1
    outer loop
      vertex 29.5408 18.8913 0
      vertex 34 1.5 0
      vertex 32.5 0 0
    endloop
  endfacet
  facet normal 0 0 -1
    outer loop
      vertex 34 22.5 0
      vertex 32.5 24 0
      vertex 33.9712 22.7926 0
    endloop
  endfacet
  facet normal 0 0 -1
    outer loop
      vertex 33.9712 22.7926 0
      vertex 32.5 24 0
      vertex 33.8858 23.074 0
    endloop
  endfacet
  facet normal 0 0 -1
    outer loop
      vertex 33.8858 23.074 0
      vertex 32.5 24 0
      vertex 33.7472 23.3334 0
    endloop
  endfacet
  facet normal 0 -0 -1
    outer loop
      vertex 32.5 24 0
      vertex 34 22.5 0
      vertex 30.8485 20.8485 0
    endloop
  endfacet
  facet normal 0 -0 -1
    outer loop
      vertex 31.2 20 0
      vertex 34 22.5 0
      vertex 31.1769 19.7659 0
    endloop
  endfacet
  facet normal 0 0 -1
    outer loop
      vertex 34 1.5 0
      vertex 30.8485 19.1515 0
      vertex 30.9978 19.3333 0
    endloop
  endfacet
  facet normal 0 0 -1
    outer loop
      vertex 34 1.5 0
      vertex 30.6667 19.0022 0
      vertex 30.8485 19.1515 0
    endloop
  endfacet
  facet normal 0 0 -1
    outer loop
      vertex 34 1.5 0
      vertex 30.4592 18.8913 0
      vertex 30.6667 19.0022 0
    endloop
  endfacet
  facet normal 0 0 -1
    outer loop
      vertex 34 1.5 0
      vertex 30.2341 18.8231 0
      vertex 30.4592 18.8913 0
    endloop
  endfacet
  facet normal 0 0 -1
    outer loop
      vertex 34 1.5 0
      vertex 30 18.8 0
      vertex 30.2341 18.8231 0
    endloop
  endfacet
  facet normal 0 0 -1
    outer loop
      vertex 34 1.5 0
      vertex 29.7659 18.8231 0
      vertex 30 18.8 0
    endloop
  endfacet
  facet normal 0 0 -1
    outer loop
      vertex 34 1.5 0
      vertex 29.5408 18.8913 0
      vertex 29.7659 18.8231 0
    endloop
  endfacet
  facet normal 0 0 -1
    outer loop
      vertex 32.5 0 0
      vertex 29.3333 19.0022 0
      vertex 29.5408 18.8913 0
    endloop
  endfacet
  facet normal 0 0 -1
    outer loop
      vertex 32.5 0 0
      vertex 29.1515 19.1515 0
      vertex 29.3333 19.0022 0
    endloop
  endfacet
  facet normal 0 0 -1
    outer loop
      vertex 5.17694 4.23411 0
      vertex 29.1515 19.1515 0
      vertex 32.5 0 0
    endloop
  endfacet
  facet normal 0 0 -1
    outer loop
      vertex 5.10865 4.45922 0
      vertex 29.1515 19.1515 0
      vertex 5.17694 4.23411 0
    endloop
  endfacet
  facet normal -0 0 -1
    outer loop
      vertex 29.1515 19.1515 0
      vertex 5.10865 4.45922 0
      vertex 29.0022 19.3333 0
    endloop
  endfacet
  facet normal 0 0 -1
    outer loop
      vertex 4.99776 4.66668 0
      vertex 29.0022 19.3333 0
      vertex 5.10865 4.45922 0
    endloop
  endfacet
  facet normal 0 0 -1
    outer loop
      vertex 5.17694 4.23411 0
      vertex 32.5 0 0
      vertex 5.2 4 0
    endloop
  endfacet
  facet normal 0 0 -1
    outer loop
      vertex 32.5 0 0
      vertex 5.17694 3.76589 0
      vertex 5.2 4 0
    endloop
  endfacet
  facet normal 0 0 -1
    outer loop
      vertex 32.5 0 0
      vertex 5.10865 3.54078 0
      vertex 5.17694 3.76589 0
    endloop
  endfacet
  facet normal 0 0 -1
    outer loop
      vertex 32.5 0 0
      vertex 4.99776 3.33331 0
      vertex 5.10865 3.54078 0
    endloop
  endfacet
  facet normal 0 0 -1
    outer loop
      vertex 32.5 0 0
      vertex 4.84853 3.15147 0
      vertex 4.99776 3.33331 0
    endloop
  endfacet
  facet normal 0 0 -1
    outer loop
      vertex 32.5 0 0
      vertex 4.66668 3.00224 0
      vertex 4.84853 3.15147 0
    endloop
  endfacet
  facet normal 0 0 -1
    outer loop
      vertex 1.5 0 0
      vertex 4.66668 3.00224 0
      vertex 32.5 0 0
    endloop
  endfacet
  facet normal 0 0 -1
    outer loop
      vertex 4.66668 3.00224 0
      vertex 1.5 0 0
      vertex 4.45922 2.89134 0
    endloop
  endfacet
  facet normal 0 0 -1
    outer loop
      vertex 4.45922 2.89134 0
      vertex 1.5 0 0
      vertex 4.23411 2.82306 0
    endloop
  endfacet
  facet normal -0 0 -1
    outer loop
      vertex 2.89134 3.54078 0
      vertex 0 1.5 0
      vertex 2.82306 3.76589 0
    endloop
  endfacet
  facet normal -0 0 -1
    outer loop
      vertex 3.00224 3.33331 0
      vertex 0 1.5 0
      vertex 2.89134 3.54078 0
    endloop
  endfacet
  facet normal -0 0 -1
    outer loop
      vertex 3.15147 3.15147 0
      vertex 0 1.5 0
      vertex 3.00224 3.33331 0
    endloop
  endfacet
  facet normal 0 0 -1
    outer loop
      vertex 0 1.5 0
      vertex 3.15147 3.15147 0
      vertex 1.5 0 0
    endloop
  endfacet
  facet normal -0 0 -1
    outer loop
      vertex 3.33331 3.00224 0
      vertex 1.5 0 0
      vertex 3.15147 3.15147 0
    endloop
  endfacet
  facet normal -0 0 -1
    outer loop
      vertex 3.54078 2.89134 0
      vertex 1.5 0 0
      vertex 3.33331 3.00224 0
    endloop
  endfacet
  facet normal -0 0 -1
    outer loop
      vertex 3.76589 2.82306 0
      vertex 1.5 0 0
      vertex 3.54078 2.89134 0
    endloop
  endfacet
  facet normal -0 0 -1
    outer loop
      vertex 4 2.8 0
      vertex 1.5 0 0
      vertex 3.76589 2.82306 0
    endloop
  endfacet
  facet normal 0 0 -1
    outer loop
      vertex 4.23411 2.82306 0
      vertex 1.5 0 0
      vertex 4 2.8 0
    endloop
  endfacet
  facet normal 0 0 -1
    outer loop
      vertex 33.7472 23.3334 0
      vertex 32.5 24 0
      vertex 33.5607 23.5607 0
    endloop
  endfacet
  facet normal 0 0 -1
    outer loop
      vertex 33.5607 23.5607 0
      vertex 32.5 24 0
      vertex 33.3334 23.7472 0
    endloop
  endfacet
  facet normal 0 0 -1
    outer loop
      vertex 33.074 23.8858 0
      vertex 32.5 24 0
      vertex 32.7926 23.9712 0
    endloop
  endfacet
  facet normal 0 0 -1
    outer loop
      vertex 33.3334 23.7472 0
      vertex 32.5 24 0
      vertex 33.074 23.8858 0
    endloop
  endfacet
  facet normal 0 0 -1
    outer loop
      vertex 30.6667 20.9978 0
      vertex 32.5 24 0
      vertex 30.8485 20.8485 0
    endloop
  endfacet
  facet normal 0 0 -1
    outer loop
      vertex 30.4592 21.1087 0
      vertex 32.5 24 0
      vertex 30.6667 20.9978 0
    endloop
  endfacet
  facet normal 0 0 -1
    outer loop
      vertex 30.2341 21.1769 0
      vertex 32.5 24 0
      vertex 30.4592 21.1087 0
    endloop
  endfacet
  facet normal 0 0 -1
    outer loop
      vertex 30 21.2 0
      vertex 32.5 24 0
      vertex 30.2341 21.1769 0
    endloop
  endfacet
  facet normal 0 0 -1
    outer loop
      vertex 29.7659 21.1769 0
      vertex 32.5 24 0
      vertex 30 21.2 0
    endloop
  endfacet
  facet normal 0 0 -1
    outer loop
      vertex 29.5408 21.1087 0
      vertex 32.5 24 0
      vertex 29.7659 21.1769 0
    endloop
  endfacet
  facet normal 0 0 -1
    outer loop
      vertex 29.3333 20.9978 0
      vertex 32.5 24 0
      vertex 29.5408 21.1087 0
    endloop
  endfacet
  facet normal 0 0 -1
    outer loop
      vertex 1.5 24 0
      vertex 29.3333 20.9978 0
      vertex 29.1515 20.8485 0
    endloop
  endfacet
  facet normal -0 0 -1
    outer loop
      vertex 29.0022 19.3333 0
      vertex 4.99776 4.66668 0
      vertex 28.8913 19.5408 0
    endloop
  endfacet
  facet normal 0 0 -1
    outer loop
      vertex 4.84853 4.84853 0
      vertex 28.8913 19.5408 0
      vertex 4.99776 4.66668 0
    endloop
  endfacet
  facet normal -0 0 -1
    outer loop
      vertex 28.8913 19.5408 0
      vertex 4.84853 4.84853 0
      vertex 28.8231 19.7659 0
    endloop
  endfacet
  facet normal 0 0 -1
    outer loop
      vertex 1.5 24 0
      vertex 28.8231 19.7659 0
      vertex 4.84853 4.84853 0
    endloop
  endfacet
  facet normal 0 0 -1
    outer loop
      vertex 28.8231 19.7659 0
      vertex 1.5 24 0
      vertex 28.8 20 0
    endloop
  endfacet
  facet normal 0 0 -1
    outer loop
      vertex 28.8 20 0
      vertex 1.5 24 0
      vertex 28.8231 20.2341 0
    endloop
  endfacet
  facet normal 0 0 -1
    outer loop
      vertex 28.8231 20.2341 0
      vertex 1.5 24 0
      vertex 28.8913 20.4592 0
    endloop
  endfacet
  facet normal 0 0 -1
    outer loop
      vertex 28.8913 20.4592 0
      vertex 1.5 24 0
      vertex 29.0022 20.6667 0
    endloop
  endfacet
  facet normal 0 0 -1
    outer loop
      vertex 29.0022 20.6667 0
      vertex 1.5 24 0
      vertex 29.1515 20.8485 0
    endloop
  endfacet
  facet normal 0 0 -1
    outer loop
      vertex 1.5 24 0
      vertex 4.84853 4.84853 0
      vertex 4.66668 4.99776 0
    endloop
  endfacet
  facet normal 0 0 -1
    outer loop
      vertex 1.5 24 0
      vertex 4.66668 4.99776 0
      vertex 4.45922 5.10865 0
    endloop
  endfacet
  facet normal 0 0 -1
    outer loop
      vertex 0 22.5 0
      vertex 4.45922 5.10865 0
      vertex 4.23411 5.17694 0
    endloop
  endfacet
  facet normal 0 0 -1
    outer loop
      vertex 0 22.5 0
      vertex 4.23411 5.17694 0
      vertex 4 5.2 0
    endloop
  endfacet
  facet normal 0 0 -1
    outer loop
      vertex 0 22.5 0
      vertex 4 5.2 0
      vertex 3.76589 5.17694 0
    endloop
  endfacet
  facet normal 0 0 -1
    outer loop
      vertex 0 22.5 0
      vertex 3.76589 5.17694 0
      vertex 3.54078 5.10865 0
    endloop
  endfacet
  facet normal 0 0 -1
    outer loop
      vertex 0 22.5 0
      vertex 3.54078 5.10865 0
      vertex 3.33331 4.99776 0
    endloop
  endfacet
  facet normal -0 0 -1
    outer loop
      vertex 2.82306 3.76589 0
      vertex 0 1.5 0
      vertex 2.8 4 0
    endloop
  endfacet
  facet normal -0 0 -1
    outer loop
      vertex 2.8 4 0
      vertex 0 1.5 0
      vertex 2.82306 4.23411 0
    endloop
  endfacet
  facet normal 0 0 -1
    outer loop
      vertex 29.3333 20.9978 0
      vertex 1.5 24 0
      vertex 32.5 24 0
    endloop
  endfacet
  facet normal 0 0 -1
    outer loop
      vertex 0 22.5 0
      vertex 3.33331 4.99776 0
      vertex 3.15147 4.84853 0
    endloop
  endfacet
  facet normal 0 0 -1
    outer loop
      vertex 0 22.5 0
      vertex 3.15147 4.84853 0
      vertex 3.00224 4.66668 0
    endloop
  endfacet
  facet normal 0 0 -1
    outer loop
      vertex 0 1.5 0
      vertex 3.00224 4.66668 0
      vertex 2.89134 4.45922 0
    endloop
  endfacet
  facet normal -0 0 -1
    outer loop
      vertex 2.82306 4.23411 0
      vertex 0 1.5 0
      vertex 2.89134 4.45922 0
    endloop
  endfacet
  facet normal 0 0 -1
    outer loop
      vertex 0 1.5 0
      vertex 1.5 0 0
      vertex 1.20736 0.0288219 0
    endloop
  endfacet
  facet normal -0 0 -1
    outer loop
      vertex 3.00224 4.66668 0
      vertex 0 1.5 0
      vertex 0 22.5 0
    endloop
  endfacet
  facet normal 0 0 -1
    outer loop
      vertex 0 1.5 0
      vertex 1.20736 0.0288219 0
      vertex 0.925975 0.114181 0
    endloop
  endfacet
  facet normal 0 0 -1
    outer loop
      vertex 4.45922 5.10865 0
      vertex 0 22.5 0
      vertex 1.5 24 0
    endloop
  endfacet
  facet normal 0 0 -1
    outer loop
      vertex 0 1.5 0
      vertex 0.925975 0.114181 0
      vertex 0.666644 0.252795 0
    endloop
  endfacet
  facet normal 0 0 -1
    outer loop
      vertex 1.5 24 0
      vertex 0 22.5 0
      vertex 1.20736 23.9712 0
    endloop
  endfacet
  facet normal 0 0 -1
    outer loop
      vertex 0 1.5 0
      vertex 0.666644 0.252795 0
      vertex 0.43934 0.43934 0
    endloop
  endfacet
  facet normal 0 0 -1
    outer loop
      vertex 1.20736 23.9712 0
      vertex 0 22.5 0
      vertex 0.925975 23.8858 0
    endloop
  endfacet
  facet normal 0 0 -1
    outer loop
      vertex 0 1.5 0
      vertex 0.43934 0.43934 0
      vertex 0.252795 0.666644 0
    endloop
  endfacet
  facet normal 0 0 -1
    outer loop
      vertex 0.925975 23.8858 0
      vertex 0 22.5 0
      vertex 0.666644 23.7472 0
    endloop
  endfacet
  facet normal 0 0 -1
    outer loop
      vertex 0 1.5 0
      vertex 0.252795 0.666644 0
      vertex 0.114181 0.925975 0
    endloop
  endfacet
  facet normal 0 0 -1
    outer loop
      vertex 0.666644 23.7472 0
      vertex 0 22.5 0
      vertex 0.43934 23.5607 0
    endloop
  endfacet
  facet normal 0 0 -1
    outer loop
      vertex 0 1.5 0
      vertex 0.114181 0.925975 0
      vertex 0.0288219 1.20736 0
    endloop
  endfacet
  facet normal 0 0 -1
    outer loop
      vertex 0.43934 23.5607 0
      vertex 0 22.5 0
      vertex 0.252795 23.3334 0
    endloop
  endfacet
  facet normal 0 0 -1
    outer loop
      vertex 0.252795 23.3334 0
      vertex 0 22.5 0
      vertex 0.114181 23.074 0
    endloop
  endfacet
  facet normal 0 0 -1
    outer loop
      vertex 0.114181 23.074 0
      vertex 0 22.5 0
      vertex 0.0288219 22.7926 0
    endloop
  endfacet
  facet normal -0.995184 0.0980283 0
    outer loop
      vertex 0 22.5 0
      vertex 0.0288219 22.7926 2
      vertex 0.0288219 22.7926 0
    endloop
  endfacet
  facet normal -0.995184 0.0980283 0
    outer loop
      vertex 0.0288219 22.7926 2
      vertex 0 22.5 0
      vertex 0 22.5 2
    endloop
  endfacet
  facet normal 1 -0 0
    outer loop
      vertex 34 1.5 2
      vertex 34 22.5 0
      vertex 34 22.5 2
    endloop
  endfacet
  facet normal 1 0 0
    outer loop
      vertex 34 22.5 0
      vertex 34 1.5 2
      vertex 34 1.5 0
    endloop
  endfacet
  facet normal 0.634403 -0.773003 0
    outer loop
      vertex 33.3334 0.252795 0
      vertex 33.5607 0.43934 2
      vertex 33.3334 0.252795 2
    endloop
  endfacet
  facet normal 0.634403 -0.773003 0
    outer loop
      vertex 33.5607 0.43934 2
      vertex 33.3334 0.252795 0
      vertex 33.5607 0.43934 0
    endloop
  endfacet
  facet normal 0.290276 -0.956943 0
    outer loop
      vertex 32.7926 0.0288219 0
      vertex 33.074 0.114181 2
      vertex 32.7926 0.0288219 2
    endloop
  endfacet
  facet normal 0.290276 -0.956943 0
    outer loop
      vertex 33.074 0.114181 2
      vertex 32.7926 0.0288219 0
      vertex 33.074 0.114181 0
    endloop
  endfacet
  facet normal -0.471393 -0.881923 0
    outer loop
      vertex 0.666644 0.252795 0
      vertex 0.925975 0.114181 2
      vertex 0.666644 0.252795 2
    endloop
  endfacet
  facet normal -0.471393 -0.881923 -0
    outer loop
      vertex 0.925975 0.114181 2
      vertex 0.666644 0.252795 0
      vertex 0.925975 0.114181 0
    endloop
  endfacet
  facet normal -0.098015 -0.995185 0
    outer loop
      vertex 1.20736 0.0288219 0
      vertex 1.5 0 2
      vertex 1.20736 0.0288219 2
    endloop
  endfacet
  facet normal -0.098015 -0.995185 -0
    outer loop
      vertex 1.5 0 2
      vertex 1.20736 0.0288219 0
      vertex 1.5 0 0
    endloop
  endfacet
  facet normal -0.471356 0.881943 0
    outer loop
      vertex 0.925975 23.8858 0
      vertex 0.666644 23.7472 2
      vertex 0.925975 23.8858 2
    endloop
  endfacet
  facet normal -0.471356 0.881943 0
    outer loop
      vertex 0.666644 23.7472 2
      vertex 0.925975 23.8858 0
      vertex 0.666644 23.7472 0
    endloop
  endfacet
  facet normal -0.773003 0.634403 0
    outer loop
      vertex 0.252795 23.3334 0
      vertex 0.43934 23.5607 2
      vertex 0.43934 23.5607 0
    endloop
  endfacet
  facet normal -0.773003 0.634403 0
    outer loop
      vertex 0.43934 23.5607 2
      vertex 0.252795 23.3334 0
      vertex 0.252795 23.3334 2
    endloop
  endfacet
  facet normal -0.634305 0.773083 0
    outer loop
      vertex 0.666644 23.7472 0
      vertex 0.43934 23.5607 2
      vertex 0.666644 23.7472 2
    endloop
  endfacet
  facet normal -0.634305 0.773083 0
    outer loop
      vertex 0.43934 23.5607 2
      vertex 0.666644 23.7472 0
      vertex 0.43934 23.5607 0
    endloop
  endfacet
  facet normal 0.634311 0.773078 -0
    outer loop
      vertex 33.5607 23.5607 0
      vertex 33.3334 23.7472 2
      vertex 33.5607 23.5607 2
    endloop
  endfacet
  facet normal 0.634311 0.773078 0
    outer loop
      vertex 33.3334 23.7472 2
      vertex 33.5607 23.5607 0
      vertex 33.3334 23.7472 0
    endloop
  endfacet
  facet normal 0.881943 -0.471356 0
    outer loop
      vertex 33.7472 0.666644 2
      vertex 33.8858 0.925975 0
      vertex 33.8858 0.925975 2
    endloop
  endfacet
  facet normal 0.881943 -0.471356 0
    outer loop
      vertex 33.8858 0.925975 0
      vertex 33.7472 0.666644 2
      vertex 33.7472 0.666644 0
    endloop
  endfacet
  facet normal -0.773008 -0.634396 0
    outer loop
      vertex 0.43934 0.43934 0
      vertex 0.252795 0.666644 2
      vertex 0.252795 0.666644 0
    endloop
  endfacet
  facet normal -0.773008 -0.634396 0
    outer loop
      vertex 0.252795 0.666644 2
      vertex 0.43934 0.43934 0
      vertex 0.43934 0.43934 2
    endloop
  endfacet
  facet normal -0.634396 -0.773008 0
    outer loop
      vertex 0.43934 0.43934 0
      vertex 0.666644 0.252795 2
      vertex 0.43934 0.43934 2
    endloop
  endfacet
  facet normal -0.634396 -0.773008 -0
    outer loop
      vertex 0.666644 0.252795 2
      vertex 0.43934 0.43934 0
      vertex 0.666644 0.252795 0
    endloop
  endfacet
  facet normal 0.471259 0.881995 -0
    outer loop
      vertex 33.3334 23.7472 0
      vertex 33.074 23.8858 2
      vertex 33.3334 23.7472 2
    endloop
  endfacet
  facet normal 0.471259 0.881995 0
    outer loop
      vertex 33.074 23.8858 2
      vertex 33.3334 23.7472 0
      vertex 33.074 23.8858 0
    endloop
  endfacet
  facet normal 0.0979545 0.995191 -0
    outer loop
      vertex 32.7926 23.9712 0
      vertex 32.5 24 2
      vertex 32.7926 23.9712 2
    endloop
  endfacet
  facet normal 0.0979545 0.995191 0
    outer loop
      vertex 32.5 24 2
      vertex 32.7926 23.9712 0
      vertex 32.5 24 0
    endloop
  endfacet
  facet normal -0.956943 0.290276 0
    outer loop
      vertex 0.0288219 22.7926 0
      vertex 0.114181 23.074 2
      vertex 0.114181 23.074 0
    endloop
  endfacet
  facet normal -0.956943 0.290276 0
    outer loop
      vertex 0.114181 23.074 2
      vertex 0.0288219 22.7926 0
      vertex 0.0288219 22.7926 2
    endloop
  endfacet
  facet normal -0.881975 0.471296 0
    outer loop
      vertex 0.114181 23.074 0
      vertex 0.252795 23.3334 2
      vertex 0.252795 23.3334 0
    endloop
  endfacet
  facet normal -0.881975 0.471296 0
    outer loop
      vertex 0.252795 23.3334 2
      vertex 0.114181 23.074 0
      vertex 0.114181 23.074 2
    endloop
  endfacet
  facet normal 0.773078 0.634311 0
    outer loop
      vertex 33.7472 23.3334 2
      vertex 33.5607 23.5607 0
      vertex 33.5607 23.5607 2
    endloop
  endfacet
  facet normal 0.773078 0.634311 0
    outer loop
      vertex 33.5607 23.5607 0
      vertex 33.7472 23.3334 2
      vertex 33.7472 23.3334 0
    endloop
  endfacet
  facet normal 0.881995 0.471259 0
    outer loop
      vertex 33.8858 23.074 2
      vertex 33.7472 23.3334 0
      vertex 33.7472 23.3334 2
    endloop
  endfacet
  facet normal 0.881995 0.471259 0
    outer loop
      vertex 33.7472 23.3334 0
      vertex 33.8858 23.074 2
      vertex 33.8858 23.074 0
    endloop
  endfacet
  facet normal 0.956904 0.290404 0
    outer loop
      vertex 33.9712 22.7926 2
      vertex 33.8858 23.074 0
      vertex 33.8858 23.074 2
    endloop
  endfacet
  facet normal 0.956904 0.290404 0
    outer loop
      vertex 33.8858 23.074 0
      vertex 33.9712 22.7926 2
      vertex 33.9712 22.7926 0
    endloop
  endfacet
  facet normal 0.9569 -0.290418 0
    outer loop
      vertex 33.8858 0.925975 2
      vertex 33.9712 1.20736 0
      vertex 33.9712 1.20736 2
    endloop
  endfacet
  facet normal 0.9569 -0.290418 0
    outer loop
      vertex 33.9712 1.20736 0
      vertex 33.8858 0.925975 2
      vertex 33.8858 0.925975 0
    endloop
  endfacet
  facet normal 0.471296 -0.881975 0
    outer loop
      vertex 33.074 0.114181 0
      vertex 33.3334 0.252795 2
      vertex 33.074 0.114181 2
    endloop
  endfacet
  facet normal 0.471296 -0.881975 0
    outer loop
      vertex 33.3334 0.252795 2
      vertex 33.074 0.114181 0
      vertex 33.3334 0.252795 0
    endloop
  endfacet
  facet normal 0.773083 -0.634305 0
    outer loop
      vertex 33.5607 0.43934 2
      vertex 33.7472 0.666644 0
      vertex 33.7472 0.666644 2
    endloop
  endfacet
  facet normal 0.773083 -0.634305 0
    outer loop
      vertex 33.7472 0.666644 0
      vertex 33.5607 0.43934 2
      vertex 33.5607 0.43934 0
    endloop
  endfacet
  facet normal -0.290291 -0.956939 0
    outer loop
      vertex 0.925975 0.114181 0
      vertex 1.20736 0.0288219 2
      vertex 0.925975 0.114181 2
    endloop
  endfacet
  facet normal -0.290291 -0.956939 -0
    outer loop
      vertex 1.20736 0.0288219 2
      vertex 0.925975 0.114181 0
      vertex 1.20736 0.0288219 0
    endloop
  endfacet
  facet normal -0.881923 -0.471393 0
    outer loop
      vertex 0.252795 0.666644 0
      vertex 0.114181 0.925975 2
      vertex 0.114181 0.925975 0
    endloop
  endfacet
  facet normal -0.881923 -0.471393 0
    outer loop
      vertex 0.114181 0.925975 2
      vertex 0.252795 0.666644 0
      vertex 0.252795 0.666644 2
    endloop
  endfacet
  facet normal -0.956939 -0.290291 0
    outer loop
      vertex 0.114181 0.925975 0
      vertex 0.0288219 1.20736 2
      vertex 0.0288219 1.20736 0
    endloop
  endfacet
  facet normal -0.956939 -0.290291 0
    outer loop
      vertex 0.0288219 1.20736 2
      vertex 0.114181 0.925975 0
      vertex 0.114181 0.925975 2
    endloop
  endfacet
  facet normal 0.290404 0.956904 -0
    outer loop
      vertex 33.074 23.8858 0
      vertex 32.7926 23.9712 2
      vertex 33.074 23.8858 2
    endloop
  endfacet
  facet normal 0.290404 0.956904 0
    outer loop
      vertex 32.7926 23.9712 2
      vertex 33.074 23.8858 0
      vertex 32.7926 23.9712 0
    endloop
  endfacet
  facet normal -0.290418 0.9569 0
    outer loop
      vertex 1.20736 23.9712 0
      vertex 0.925975 23.8858 2
      vertex 1.20736 23.9712 2
    endloop
  endfacet
  facet normal -0.290418 0.9569 0
    outer loop
      vertex 0.925975 23.8858 2
      vertex 1.20736 23.9712 0
      vertex 0.925975 23.8858 0
    endloop
  endfacet
  facet normal -0.0979413 0.995192 0
    outer loop
      vertex 1.5 24 0
      vertex 1.20736 23.9712 2
      vertex 1.5 24 2
    endloop
  endfacet
  facet normal -0.0979413 0.995192 0
    outer loop
      vertex 1.20736 23.9712 2
      vertex 1.5 24 0
      vertex 1.20736 23.9712 0
    endloop
  endfacet
  facet normal 0.995192 -0.0979413 0
    outer loop
      vertex 33.9712 1.20736 2
      vertex 34 1.5 0
      vertex 34 1.5 2
    endloop
  endfacet
  facet normal 0.995192 -0.0979413 0
    outer loop
      vertex 34 1.5 0
      vertex 33.9712 1.20736 2
      vertex 33.9712 1.20736 0
    endloop
  endfacet
endsolid OpenSCAD_Model
