solid OpenSCAD_Model
  facet normal -1 0 0
    outer loop
      vertex 0 -6 0
      vertex 0 0 12
      vertex 0 0 0
    endloop
  endfacet
  facet normal -1 -0 0
    outer loop
      vertex 0 0 12
      vertex 0 -6 0
      vertex 0 -6 12
    endloop
  endfacet
  facet normal 1 0 0
    outer loop
      vertex 110.718 0 41.6667
      vertex 110.718 -6 41.6667
      vertex 110.718 0 29.6667
    endloop
  endfacet
  facet normal 1 0 0
    outer loop
      vertex 110.718 66 0
      vertex 110.718 47.8978 8.77646
      vertex 110.718 48 8
    endloop
  endfacet
  facet normal 1 0 0
    outer loop
      vertex 110.718 60 29.6667
      vertex 110.718 47.5981 9.5
      vertex 110.718 47.8978 8.77646
    endloop
  endfacet
  facet normal 1 0 0
    outer loop
      vertex 110.718 60 29.6667
      vertex 110.718 47.1213 10.1213
      vertex 110.718 47.5981 9.5
    endloop
  endfacet
  facet normal 1 0 0
    outer loop
      vertex 110.718 60 29.6667
      vertex 110.718 46.5 10.5981
      vertex 110.718 47.1213 10.1213
    endloop
  endfacet
  facet normal 1 0 0
    outer loop
      vertex 110.718 60 29.6667
      vertex 110.718 45.7765 10.8978
      vertex 110.718 46.5 10.5981
    endloop
  endfacet
  facet normal 1 0 0
    outer loop
      vertex 110.718 60 29.6667
      vertex 110.718 45 11
      vertex 110.718 45.7765 10.8978
    endloop
  endfacet
  facet normal 1 0 0
    outer loop
      vertex 110.718 60 29.6667
      vertex 110.718 44.2235 10.8978
      vertex 110.718 45 11
    endloop
  endfacet
  facet normal 1 0 0
    outer loop
      vertex 110.718 60 29.6667
      vertex 110.718 43.5 10.5981
      vertex 110.718 44.2235 10.8978
    endloop
  endfacet
  facet normal 1 0 0
    outer loop
      vertex 110.718 16.5 10.5981
      vertex 110.718 43.5 10.5981
      vertex 110.718 60 29.6667
    endloop
  endfacet
  facet normal 1 0 0
    outer loop
      vertex 110.718 42.1022 8.77646
      vertex 110.718 18 8
      vertex 110.718 42 8
    endloop
  endfacet
  facet normal 1 0 0
    outer loop
      vertex 110.718 17.8978 8.77646
      vertex 110.718 42.1022 8.77646
      vertex 110.718 42.4019 9.5
    endloop
  endfacet
  facet normal 1 0 0
    outer loop
      vertex 110.718 17.5981 9.5
      vertex 110.718 42.4019 9.5
      vertex 110.718 42.8787 10.1213
    endloop
  endfacet
  facet normal 1 0 0
    outer loop
      vertex 110.718 43.5 10.5981
      vertex 110.718 16.5 10.5981
      vertex 110.718 42.8787 10.1213
    endloop
  endfacet
  facet normal 1 0 0
    outer loop
      vertex 110.718 42.1022 8.77646
      vertex 110.718 17.8978 8.77646
      vertex 110.718 18 8
    endloop
  endfacet
  facet normal 1 0 0
    outer loop
      vertex 110.718 42.4019 9.5
      vertex 110.718 17.5981 9.5
      vertex 110.718 17.8978 8.77646
    endloop
  endfacet
  facet normal 1 0 0
    outer loop
      vertex 110.718 42.8787 10.1213
      vertex 110.718 17.1213 10.1213
      vertex 110.718 17.5981 9.5
    endloop
  endfacet
  facet normal 1 0 0
    outer loop
      vertex 110.718 42.8787 10.1213
      vertex 110.718 16.5 10.5981
      vertex 110.718 17.1213 10.1213
    endloop
  endfacet
  facet normal 1 -0 0
    outer loop
      vertex 110.718 0 29.6667
      vertex 110.718 16.5 10.5981
      vertex 110.718 60 29.6667
    endloop
  endfacet
  facet normal 1 0 0
    outer loop
      vertex 110.718 16.5 10.5981
      vertex 110.718 0 29.6667
      vertex 110.718 15.7765 10.8978
    endloop
  endfacet
  facet normal 1 0 0
    outer loop
      vertex 110.718 15.7765 10.8978
      vertex 110.718 0 29.6667
      vertex 110.718 15 11
    endloop
  endfacet
  facet normal 1 0 0
    outer loop
      vertex 110.718 -6 0
      vertex 110.718 12.1022 8.77646
      vertex 110.718 0 29.6667
    endloop
  endfacet
  facet normal 1 0 0
    outer loop
      vertex 110.718 12.4019 9.5
      vertex 110.718 0 29.6667
      vertex 110.718 12.1022 8.77646
    endloop
  endfacet
  facet normal 1 0 0
    outer loop
      vertex 110.718 12.8787 10.1213
      vertex 110.718 0 29.6667
      vertex 110.718 12.4019 9.5
    endloop
  endfacet
  facet normal 1 0 0
    outer loop
      vertex 110.718 13.5 10.5981
      vertex 110.718 0 29.6667
      vertex 110.718 12.8787 10.1213
    endloop
  endfacet
  facet normal 1 0 0
    outer loop
      vertex 110.718 14.2235 10.8978
      vertex 110.718 0 29.6667
      vertex 110.718 13.5 10.5981
    endloop
  endfacet
  facet normal 1 0 0
    outer loop
      vertex 110.718 15 11
      vertex 110.718 0 29.6667
      vertex 110.718 14.2235 10.8978
    endloop
  endfacet
  facet normal 1 0 0
    outer loop
      vertex 110.718 60 29.6667
      vertex 110.718 66 41.6667
      vertex 110.718 60 41.6667
    endloop
  endfacet
  facet normal 1 0 0
    outer loop
      vertex 110.718 66 41.6667
      vertex 110.718 60 29.6667
      vertex 110.718 66 0
    endloop
  endfacet
  facet normal 1 -0 0
    outer loop
      vertex 110.718 47.8978 8.77646
      vertex 110.718 66 0
      vertex 110.718 60 29.6667
    endloop
  endfacet
  facet normal 1 -0 0
    outer loop
      vertex 110.718 47.8978 7.22354
      vertex 110.718 66 0
      vertex 110.718 48 8
    endloop
  endfacet
  facet normal 1 -0 0
    outer loop
      vertex 110.718 47.5981 6.5
      vertex 110.718 66 0
      vertex 110.718 47.8978 7.22354
    endloop
  endfacet
  facet normal 1 -0 0
    outer loop
      vertex 110.718 47.1213 5.87868
      vertex 110.718 66 0
      vertex 110.718 47.5981 6.5
    endloop
  endfacet
  facet normal 1 -0 0
    outer loop
      vertex 110.718 46.5 5.40192
      vertex 110.718 66 0
      vertex 110.718 47.1213 5.87868
    endloop
  endfacet
  facet normal 1 -0 0
    outer loop
      vertex 110.718 45.7765 5.10222
      vertex 110.718 66 0
      vertex 110.718 46.5 5.40192
    endloop
  endfacet
  facet normal 1 -0 0
    outer loop
      vertex 110.718 45 5
      vertex 110.718 66 0
      vertex 110.718 45.7765 5.10222
    endloop
  endfacet
  facet normal 1 0 0
    outer loop
      vertex 110.718 44.2235 5.10222
      vertex 110.718 66 0
      vertex 110.718 45 5
    endloop
  endfacet
  facet normal 1 -0 0
    outer loop
      vertex 110.718 18 8
      vertex 110.718 42.1022 7.22354
      vertex 110.718 42 8
    endloop
  endfacet
  facet normal 1 0 0
    outer loop
      vertex 110.718 17.8978 7.22354
      vertex 110.718 42.1022 7.22354
      vertex 110.718 18 8
    endloop
  endfacet
  facet normal 1 0 0
    outer loop
      vertex 110.718 42.1022 7.22354
      vertex 110.718 17.8978 7.22354
      vertex 110.718 42.4019 6.5
    endloop
  endfacet
  facet normal 1 0 0
    outer loop
      vertex 110.718 17.5981 6.5
      vertex 110.718 42.4019 6.5
      vertex 110.718 17.8978 7.22354
    endloop
  endfacet
  facet normal 1 0 0
    outer loop
      vertex 110.718 42.4019 6.5
      vertex 110.718 17.5981 6.5
      vertex 110.718 42.8787 5.87868
    endloop
  endfacet
  facet normal 1 0 0
    outer loop
      vertex 110.718 17.1213 5.87868
      vertex 110.718 42.8787 5.87868
      vertex 110.718 17.5981 6.5
    endloop
  endfacet
  facet normal 1 0 0
    outer loop
      vertex 110.718 42.8787 5.87868
      vertex 110.718 17.1213 5.87868
      vertex 110.718 43.5 5.40192
    endloop
  endfacet
  facet normal 1 0 0
    outer loop
      vertex 110.718 16.5 5.40192
      vertex 110.718 43.5 5.40192
      vertex 110.718 17.1213 5.87868
    endloop
  endfacet
  facet normal 1 0 0
    outer loop
      vertex 110.718 43.5 5.40192
      vertex 110.718 16.5 5.40192
      vertex 110.718 44.2235 5.10222
    endloop
  endfacet
  facet normal 1 0 0
    outer loop
      vertex 110.718 15.7765 5.10222
      vertex 110.718 44.2235 5.10222
      vertex 110.718 16.5 5.40192
    endloop
  endfacet
  facet normal 1 0 0
    outer loop
      vertex 110.718 44.2235 5.10222
      vertex 110.718 15.7765 5.10222
      vertex 110.718 66 0
    endloop
  endfacet
  facet normal 1 -0 0
    outer loop
      vertex 110.718 15 5
      vertex 110.718 66 0
      vertex 110.718 15.7765 5.10222
    endloop
  endfacet
  facet normal 1 0 0
    outer loop
      vertex 110.718 12.1022 8.77646
      vertex 110.718 -6 0
      vertex 110.718 12 8
    endloop
  endfacet
  facet normal 1 0 0
    outer loop
      vertex 110.718 12 8
      vertex 110.718 -6 0
      vertex 110.718 12.1022 7.22354
    endloop
  endfacet
  facet normal 1 0 0
    outer loop
      vertex 110.718 15 5
      vertex 110.718 -6 0
      vertex 110.718 66 0
    endloop
  endfacet
  facet normal 1 0 0
    outer loop
      vertex 110.718 14.2235 5.10222
      vertex 110.718 -6 0
      vertex 110.718 15 5
    endloop
  endfacet
  facet normal 1 0 0
    outer loop
      vertex 110.718 13.5 5.40192
      vertex 110.718 -6 0
      vertex 110.718 14.2235 5.10222
    endloop
  endfacet
  facet normal 1 0 0
    outer loop
      vertex 110.718 12.8787 5.87868
      vertex 110.718 -6 0
      vertex 110.718 13.5 5.40192
    endloop
  endfacet
  facet normal 1 0 0
    outer loop
      vertex 110.718 12.4019 6.5
      vertex 110.718 -6 0
      vertex 110.718 12.8787 5.87868
    endloop
  endfacet
  facet normal 1 0 0
    outer loop
      vertex 110.718 12.1022 7.22354
      vertex 110.718 -6 0
      vertex 110.718 12.4019 6.5
    endloop
  endfacet
  facet normal 1 0 0
    outer loop
      vertex 110.718 -6 0
      vertex 110.718 0 29.6667
      vertex 110.718 -6 41.6667
    endloop
  endfacet
  facet normal 0 0 -1
    outer loop
      vertex 0 0 0
      vertex 110.718 -6 0
      vertex 0 -6 0
    endloop
  endfacet
  facet normal 0 0 -1
    outer loop
      vertex 110.718 -6 0
      vertex 0 0 0
      vertex 110.718 66 0
    endloop
  endfacet
  facet normal 0 0 -1
    outer loop
      vertex 0 60 0
      vertex 110.718 66 0
      vertex 0 0 0
    endloop
  endfacet
  facet normal -0 0 -1
    outer loop
      vertex 110.718 66 0
      vertex 0 60 0
      vertex 0 66 0
    endloop
  endfacet
  facet normal -0.258818 0 0.965926
    outer loop
      vertex 0 0 12
      vertex 110.718 -6 41.6667
      vertex 110.718 0 41.6667
    endloop
  endfacet
  facet normal -0.258818 0 0.965926
    outer loop
      vertex 110.718 -6 41.6667
      vertex 0 0 12
      vertex 0 -6 12
    endloop
  endfacet
  facet normal 0 1 -0
    outer loop
      vertex 110.718 0 29.6667
      vertex 0 0 12
      vertex 110.718 0 41.6667
    endloop
  endfacet
  facet normal -0 1 0
    outer loop
      vertex 0 0 12
      vertex 110.718 0 29.6667
      vertex 0 0 0
    endloop
  endfacet
  facet normal 0 -1 0
    outer loop
      vertex 110.718 -6 0
      vertex 0 -6 12
      vertex 0 -6 0
    endloop
  endfacet
  facet normal 0 -1 0
    outer loop
      vertex 0 -6 12
      vertex 110.718 -6 0
      vertex 110.718 -6 41.6667
    endloop
  endfacet
  facet normal -1 0 0
    outer loop
      vertex 0 60 0
      vertex 0 66 12
      vertex 0 66 0
    endloop
  endfacet
  facet normal -1 -0 0
    outer loop
      vertex 0 66 12
      vertex 0 60 0
      vertex 0 60 12
    endloop
  endfacet
  facet normal -0.258818 0 0.965926
    outer loop
      vertex 0 66 12
      vertex 110.718 60 41.6667
      vertex 110.718 66 41.6667
    endloop
  endfacet
  facet normal -0.258818 0 0.965926
    outer loop
      vertex 110.718 60 41.6667
      vertex 0 66 12
      vertex 0 60 12
    endloop
  endfacet
  facet normal 0 1 -0
    outer loop
      vertex 110.718 66 0
      vertex 0 66 12
      vertex 110.718 66 41.6667
    endloop
  endfacet
  facet normal 0 1 0
    outer loop
      vertex 0 66 12
      vertex 110.718 66 0
      vertex 0 66 0
    endloop
  endfacet
  facet normal 0 -1 0
    outer loop
      vertex 0 60 12
      vertex 110.718 60 29.6667
      vertex 110.718 60 41.6667
    endloop
  endfacet
  facet normal 0 -1 0
    outer loop
      vertex 110.718 60 29.6667
      vertex 0 60 12
      vertex 0 60 0
    endloop
  endfacet
  facet normal 0 0.130516 -0.991446
    outer loop
      vertex 110.718 15 5
      vertex 118.718 15.7765 5.10222
      vertex 118.718 15 5
    endloop
  endfacet
  facet normal 0 0.130516 -0.991446
    outer loop
      vertex 118.718 15.7765 5.10222
      vertex 110.718 15 5
      vertex 110.718 15.7765 5.10222
    endloop
  endfacet
  facet normal -0 0.382701 0.923872
    outer loop
      vertex 110.718 16.5 10.5981
      vertex 118.718 15.7765 10.8978
      vertex 118.718 16.5 10.5981
    endloop
  endfacet
  facet normal 0 0.382701 0.923872
    outer loop
      vertex 118.718 15.7765 10.8978
      vertex 110.718 16.5 10.5981
      vertex 110.718 15.7765 10.8978
    endloop
  endfacet
  facet normal 0 0.382701 -0.923872
    outer loop
      vertex 110.718 15.7765 5.10222
      vertex 118.718 16.5 5.40192
      vertex 118.718 15.7765 5.10222
    endloop
  endfacet
  facet normal 0 0.382701 -0.923872
    outer loop
      vertex 118.718 16.5 5.40192
      vertex 110.718 15.7765 5.10222
      vertex 110.718 16.5 5.40192
    endloop
  endfacet
  facet normal 0 0.92388 -0.382683
    outer loop
      vertex 118.718 17.5981 6.5
      vertex 110.718 17.8978 7.22354
      vertex 118.718 17.8978 7.22354
    endloop
  endfacet
  facet normal 0 0.92388 -0.382683
    outer loop
      vertex 110.718 17.8978 7.22354
      vertex 118.718 17.5981 6.5
      vertex 110.718 17.5981 6.5
    endloop
  endfacet
  facet normal 0 0.793326 -0.608797
    outer loop
      vertex 118.718 17.1213 5.87868
      vertex 110.718 17.5981 6.5
      vertex 118.718 17.5981 6.5
    endloop
  endfacet
  facet normal 0 0.793326 -0.608797
    outer loop
      vertex 110.718 17.5981 6.5
      vertex 118.718 17.1213 5.87868
      vertex 110.718 17.1213 5.87868
    endloop
  endfacet
  facet normal 0 0.92388 0.382683
    outer loop
      vertex 118.718 17.8978 8.77646
      vertex 110.718 17.5981 9.5
      vertex 118.718 17.5981 9.5
    endloop
  endfacet
  facet normal 0 0.92388 0.382683
    outer loop
      vertex 110.718 17.5981 9.5
      vertex 118.718 17.8978 8.77646
      vertex 110.718 17.8978 8.77646
    endloop
  endfacet
  facet normal 0 0.793316 0.608809
    outer loop
      vertex 118.718 17.5981 9.5
      vertex 110.718 17.1213 10.1213
      vertex 118.718 17.1213 10.1213
    endloop
  endfacet
  facet normal 0 0.793316 0.608809
    outer loop
      vertex 110.718 17.1213 10.1213
      vertex 118.718 17.5981 9.5
      vertex 110.718 17.5981 9.5
    endloop
  endfacet
  facet normal 0 0.608777 -0.793341
    outer loop
      vertex 110.718 16.5 5.40192
      vertex 118.718 17.1213 5.87868
      vertex 118.718 16.5 5.40192
    endloop
  endfacet
  facet normal 0 0.608777 -0.793341
    outer loop
      vertex 118.718 17.1213 5.87868
      vertex 110.718 16.5 5.40192
      vertex 110.718 17.1213 5.87868
    endloop
  endfacet
  facet normal 0 0.991449 -0.130497
    outer loop
      vertex 118.718 17.8978 7.22354
      vertex 110.718 18 8
      vertex 118.718 18 8
    endloop
  endfacet
  facet normal 0 0.991449 -0.130497
    outer loop
      vertex 110.718 18 8
      vertex 118.718 17.8978 7.22354
      vertex 110.718 17.8978 7.22354
    endloop
  endfacet
  facet normal -0 0.130491 0.99145
    outer loop
      vertex 110.718 15.7765 10.8978
      vertex 118.718 15 11
      vertex 118.718 15.7765 10.8978
    endloop
  endfacet
  facet normal 0 0.130491 0.99145
    outer loop
      vertex 118.718 15 11
      vertex 110.718 15.7765 10.8978
      vertex 110.718 15 11
    endloop
  endfacet
  facet normal -0 0.608809 0.793316
    outer loop
      vertex 110.718 17.1213 10.1213
      vertex 118.718 16.5 10.5981
      vertex 118.718 17.1213 10.1213
    endloop
  endfacet
  facet normal 0 0.608809 0.793316
    outer loop
      vertex 118.718 16.5 10.5981
      vertex 110.718 17.1213 10.1213
      vertex 110.718 16.5 10.5981
    endloop
  endfacet
  facet normal 0 0.991449 0.130497
    outer loop
      vertex 118.718 18 8
      vertex 110.718 17.8978 8.77646
      vertex 118.718 17.8978 8.77646
    endloop
  endfacet
  facet normal 0 0.991449 0.130497
    outer loop
      vertex 110.718 17.8978 8.77646
      vertex 118.718 18 8
      vertex 110.718 18 8
    endloop
  endfacet
  facet normal 0 -0.382701 -0.923872
    outer loop
      vertex 110.718 13.5 5.40192
      vertex 118.718 14.2235 5.10222
      vertex 118.718 13.5 5.40192
    endloop
  endfacet
  facet normal -0 -0.382701 -0.923872
    outer loop
      vertex 118.718 14.2235 5.10222
      vertex 110.718 13.5 5.40192
      vertex 110.718 14.2235 5.10222
    endloop
  endfacet
  facet normal 0 -0.382701 0.923872
    outer loop
      vertex 110.718 14.2235 10.8978
      vertex 118.718 13.5 10.5981
      vertex 118.718 14.2235 10.8978
    endloop
  endfacet
  facet normal 0 -0.382701 0.923872
    outer loop
      vertex 118.718 13.5 10.5981
      vertex 110.718 14.2235 10.8978
      vertex 110.718 13.5 10.5981
    endloop
  endfacet
  facet normal 0 -0.608777 -0.793341
    outer loop
      vertex 110.718 12.8787 5.87868
      vertex 118.718 13.5 5.40192
      vertex 118.718 12.8787 5.87868
    endloop
  endfacet
  facet normal -0 -0.608777 -0.793341
    outer loop
      vertex 118.718 13.5 5.40192
      vertex 110.718 12.8787 5.87868
      vertex 110.718 13.5 5.40192
    endloop
  endfacet
  facet normal 0 -0.130516 -0.991446
    outer loop
      vertex 110.718 14.2235 5.10222
      vertex 118.718 15 5
      vertex 118.718 14.2235 5.10222
    endloop
  endfacet
  facet normal -0 -0.130516 -0.991446
    outer loop
      vertex 118.718 15 5
      vertex 110.718 14.2235 5.10222
      vertex 110.718 15 5
    endloop
  endfacet
  facet normal 0 -0.991449 -0.130497
    outer loop
      vertex 110.718 12.1022 7.22354
      vertex 118.718 12 8
      vertex 110.718 12 8
    endloop
  endfacet
  facet normal 0 -0.991449 -0.130497
    outer loop
      vertex 118.718 12 8
      vertex 110.718 12.1022 7.22354
      vertex 118.718 12.1022 7.22354
    endloop
  endfacet
  facet normal 0 -0.991449 0.130497
    outer loop
      vertex 110.718 12 8
      vertex 118.718 12.1022 8.77646
      vertex 110.718 12.1022 8.77646
    endloop
  endfacet
  facet normal 0 -0.991449 0.130497
    outer loop
      vertex 118.718 12.1022 8.77646
      vertex 110.718 12 8
      vertex 118.718 12 8
    endloop
  endfacet
  facet normal 1 0 0
    outer loop
      vertex 118.718 17.8978 8.77646
      vertex 118.718 17.8978 7.22354
      vertex 118.718 18 8
    endloop
  endfacet
  facet normal 1 0 0
    outer loop
      vertex 118.718 17.5981 9.5
      vertex 118.718 17.8978 7.22354
      vertex 118.718 17.8978 8.77646
    endloop
  endfacet
  facet normal 1 0 0
    outer loop
      vertex 118.718 17.5981 9.5
      vertex 118.718 17.5981 6.5
      vertex 118.718 17.8978 7.22354
    endloop
  endfacet
  facet normal 1 0 0
    outer loop
      vertex 118.718 17.1213 10.1213
      vertex 118.718 17.5981 6.5
      vertex 118.718 17.5981 9.5
    endloop
  endfacet
  facet normal 1 0 0
    outer loop
      vertex 118.718 17.1213 10.1213
      vertex 118.718 17.1213 5.87868
      vertex 118.718 17.5981 6.5
    endloop
  endfacet
  facet normal 1 0 0
    outer loop
      vertex 118.718 16.5 10.5981
      vertex 118.718 17.1213 5.87868
      vertex 118.718 17.1213 10.1213
    endloop
  endfacet
  facet normal 1 0 0
    outer loop
      vertex 118.718 16.5 10.5981
      vertex 118.718 16.5 5.40192
      vertex 118.718 17.1213 5.87868
    endloop
  endfacet
  facet normal 1 0 0
    outer loop
      vertex 118.718 15.7765 10.8978
      vertex 118.718 16.5 5.40192
      vertex 118.718 16.5 10.5981
    endloop
  endfacet
  facet normal 1 0 0
    outer loop
      vertex 118.718 15.7765 10.8978
      vertex 118.718 15.7765 5.10222
      vertex 118.718 16.5 5.40192
    endloop
  endfacet
  facet normal 1 0 0
    outer loop
      vertex 118.718 15 11
      vertex 118.718 15.7765 5.10222
      vertex 118.718 15.7765 10.8978
    endloop
  endfacet
  facet normal 1 0 0
    outer loop
      vertex 118.718 15 11
      vertex 118.718 15 5
      vertex 118.718 15.7765 5.10222
    endloop
  endfacet
  facet normal 1 -0 0
    outer loop
      vertex 118.718 14.2235 10.8978
      vertex 118.718 15 5
      vertex 118.718 15 11
    endloop
  endfacet
  facet normal 1 0 0
    outer loop
      vertex 118.718 14.2235 10.8978
      vertex 118.718 14.2235 5.10222
      vertex 118.718 15 5
    endloop
  endfacet
  facet normal 1 -0 0
    outer loop
      vertex 118.718 13.5 10.5981
      vertex 118.718 14.2235 5.10222
      vertex 118.718 14.2235 10.8978
    endloop
  endfacet
  facet normal 1 0 0
    outer loop
      vertex 118.718 13.5 10.5981
      vertex 118.718 13.5 5.40192
      vertex 118.718 14.2235 5.10222
    endloop
  endfacet
  facet normal 1 -0 0
    outer loop
      vertex 118.718 12.8787 10.1213
      vertex 118.718 13.5 5.40192
      vertex 118.718 13.5 10.5981
    endloop
  endfacet
  facet normal 1 0 0
    outer loop
      vertex 118.718 12.8787 10.1213
      vertex 118.718 12.8787 5.87868
      vertex 118.718 13.5 5.40192
    endloop
  endfacet
  facet normal 1 -0 0
    outer loop
      vertex 118.718 12.4019 9.5
      vertex 118.718 12.8787 5.87868
      vertex 118.718 12.8787 10.1213
    endloop
  endfacet
  facet normal 1 0 0
    outer loop
      vertex 118.718 12.4019 9.5
      vertex 118.718 12.4019 6.5
      vertex 118.718 12.8787 5.87868
    endloop
  endfacet
  facet normal 1 -0 0
    outer loop
      vertex 118.718 12.1022 8.77646
      vertex 118.718 12.4019 6.5
      vertex 118.718 12.4019 9.5
    endloop
  endfacet
  facet normal 1 0 0
    outer loop
      vertex 118.718 12.1022 8.77646
      vertex 118.718 12.1022 7.22354
      vertex 118.718 12.4019 6.5
    endloop
  endfacet
  facet normal 1 0 -0
    outer loop
      vertex 118.718 12.1022 7.22354
      vertex 118.718 12.1022 8.77646
      vertex 118.718 12 8
    endloop
  endfacet
  facet normal 0 -0.130491 0.99145
    outer loop
      vertex 110.718 15 11
      vertex 118.718 14.2235 10.8978
      vertex 118.718 15 11
    endloop
  endfacet
  facet normal 0 -0.130491 0.99145
    outer loop
      vertex 118.718 14.2235 10.8978
      vertex 110.718 15 11
      vertex 110.718 14.2235 10.8978
    endloop
  endfacet
  facet normal 0 -0.608809 0.793316
    outer loop
      vertex 110.718 13.5 10.5981
      vertex 118.718 12.8787 10.1213
      vertex 118.718 13.5 10.5981
    endloop
  endfacet
  facet normal 0 -0.608809 0.793316
    outer loop
      vertex 118.718 12.8787 10.1213
      vertex 110.718 13.5 10.5981
      vertex 110.718 12.8787 10.1213
    endloop
  endfacet
  facet normal 0 -0.92388 -0.382683
    outer loop
      vertex 110.718 12.4019 6.5
      vertex 118.718 12.1022 7.22354
      vertex 110.718 12.1022 7.22354
    endloop
  endfacet
  facet normal 0 -0.92388 -0.382683
    outer loop
      vertex 118.718 12.1022 7.22354
      vertex 110.718 12.4019 6.5
      vertex 118.718 12.4019 6.5
    endloop
  endfacet
  facet normal 0 -0.793326 -0.608797
    outer loop
      vertex 110.718 12.8787 5.87868
      vertex 118.718 12.4019 6.5
      vertex 110.718 12.4019 6.5
    endloop
  endfacet
  facet normal 0 -0.793326 -0.608797
    outer loop
      vertex 118.718 12.4019 6.5
      vertex 110.718 12.8787 5.87868
      vertex 118.718 12.8787 5.87868
    endloop
  endfacet
  facet normal 0 -0.92388 0.382683
    outer loop
      vertex 110.718 12.1022 8.77646
      vertex 118.718 12.4019 9.5
      vertex 110.718 12.4019 9.5
    endloop
  endfacet
  facet normal 0 -0.92388 0.382683
    outer loop
      vertex 118.718 12.4019 9.5
      vertex 110.718 12.1022 8.77646
      vertex 118.718 12.1022 8.77646
    endloop
  endfacet
  facet normal 0 -0.793316 0.608809
    outer loop
      vertex 110.718 12.4019 9.5
      vertex 118.718 12.8787 10.1213
      vertex 110.718 12.8787 10.1213
    endloop
  endfacet
  facet normal 0 -0.793316 0.608809
    outer loop
      vertex 118.718 12.8787 10.1213
      vertex 110.718 12.4019 9.5
      vertex 118.718 12.4019 9.5
    endloop
  endfacet
  facet normal 0 0.130516 -0.991446
    outer loop
      vertex 110.718 45 5
      vertex 118.718 45.7765 5.10222
      vertex 118.718 45 5
    endloop
  endfacet
  facet normal 0 0.130516 -0.991446
    outer loop
      vertex 118.718 45.7765 5.10222
      vertex 110.718 45 5
      vertex 110.718 45.7765 5.10222
    endloop
  endfacet
  facet normal -0 0.130491 0.99145
    outer loop
      vertex 110.718 45.7765 10.8978
      vertex 118.718 45 11
      vertex 118.718 45.7765 10.8978
    endloop
  endfacet
  facet normal 0 0.130491 0.99145
    outer loop
      vertex 118.718 45 11
      vertex 110.718 45.7765 10.8978
      vertex 110.718 45 11
    endloop
  endfacet
  facet normal 0 -0.991449 -0.130497
    outer loop
      vertex 110.718 42.1022 7.22354
      vertex 118.718 42 8
      vertex 110.718 42 8
    endloop
  endfacet
  facet normal 0 -0.991449 -0.130497
    outer loop
      vertex 118.718 42 8
      vertex 110.718 42.1022 7.22354
      vertex 118.718 42.1022 7.22354
    endloop
  endfacet
  facet normal 0 -0.608777 -0.793341
    outer loop
      vertex 110.718 42.8787 5.87868
      vertex 118.718 43.5 5.40192
      vertex 118.718 42.8787 5.87868
    endloop
  endfacet
  facet normal -0 -0.608777 -0.793341
    outer loop
      vertex 118.718 43.5 5.40192
      vertex 110.718 42.8787 5.87868
      vertex 110.718 43.5 5.40192
    endloop
  endfacet
  facet normal 0 0.382701 -0.923872
    outer loop
      vertex 110.718 45.7765 5.10222
      vertex 118.718 46.5 5.40192
      vertex 118.718 45.7765 5.10222
    endloop
  endfacet
  facet normal 0 0.382701 -0.923872
    outer loop
      vertex 118.718 46.5 5.40192
      vertex 110.718 45.7765 5.10222
      vertex 110.718 46.5 5.40192
    endloop
  endfacet
  facet normal 0 0.793326 -0.608797
    outer loop
      vertex 118.718 47.1213 5.87868
      vertex 110.718 47.5981 6.5
      vertex 118.718 47.5981 6.5
    endloop
  endfacet
  facet normal 0 0.793326 -0.608797
    outer loop
      vertex 110.718 47.5981 6.5
      vertex 118.718 47.1213 5.87868
      vertex 110.718 47.1213 5.87868
    endloop
  endfacet
  facet normal 0 0.793316 0.608809
    outer loop
      vertex 118.718 47.5981 9.5
      vertex 110.718 47.1213 10.1213
      vertex 118.718 47.1213 10.1213
    endloop
  endfacet
  facet normal 0 0.793316 0.608809
    outer loop
      vertex 110.718 47.1213 10.1213
      vertex 118.718 47.5981 9.5
      vertex 110.718 47.5981 9.5
    endloop
  endfacet
  facet normal -0 0.608809 0.793316
    outer loop
      vertex 110.718 47.1213 10.1213
      vertex 118.718 46.5 10.5981
      vertex 118.718 47.1213 10.1213
    endloop
  endfacet
  facet normal 0 0.608809 0.793316
    outer loop
      vertex 118.718 46.5 10.5981
      vertex 110.718 47.1213 10.1213
      vertex 110.718 46.5 10.5981
    endloop
  endfacet
  facet normal 0 0.92388 0.382683
    outer loop
      vertex 118.718 47.8978 8.77646
      vertex 110.718 47.5981 9.5
      vertex 118.718 47.5981 9.5
    endloop
  endfacet
  facet normal 0 0.92388 0.382683
    outer loop
      vertex 110.718 47.5981 9.5
      vertex 118.718 47.8978 8.77646
      vertex 110.718 47.8978 8.77646
    endloop
  endfacet
  facet normal 0 0.608777 -0.793341
    outer loop
      vertex 110.718 46.5 5.40192
      vertex 118.718 47.1213 5.87868
      vertex 118.718 46.5 5.40192
    endloop
  endfacet
  facet normal 0 0.608777 -0.793341
    outer loop
      vertex 118.718 47.1213 5.87868
      vertex 110.718 46.5 5.40192
      vertex 110.718 47.1213 5.87868
    endloop
  endfacet
  facet normal 0 0.92388 -0.382683
    outer loop
      vertex 118.718 47.5981 6.5
      vertex 110.718 47.8978 7.22354
      vertex 118.718 47.8978 7.22354
    endloop
  endfacet
  facet normal 0 0.92388 -0.382683
    outer loop
      vertex 110.718 47.8978 7.22354
      vertex 118.718 47.5981 6.5
      vertex 110.718 47.5981 6.5
    endloop
  endfacet
  facet normal -0 0.382701 0.923872
    outer loop
      vertex 110.718 46.5 10.5981
      vertex 118.718 45.7765 10.8978
      vertex 118.718 46.5 10.5981
    endloop
  endfacet
  facet normal 0 0.382701 0.923872
    outer loop
      vertex 118.718 45.7765 10.8978
      vertex 110.718 46.5 10.5981
      vertex 110.718 45.7765 10.8978
    endloop
  endfacet
  facet normal 0 0.991449 0.130497
    outer loop
      vertex 118.718 48 8
      vertex 110.718 47.8978 8.77646
      vertex 118.718 47.8978 8.77646
    endloop
  endfacet
  facet normal 0 0.991449 0.130497
    outer loop
      vertex 110.718 47.8978 8.77646
      vertex 118.718 48 8
      vertex 110.718 48 8
    endloop
  endfacet
  facet normal 0 -0.608809 0.793316
    outer loop
      vertex 110.718 43.5 10.5981
      vertex 118.718 42.8787 10.1213
      vertex 118.718 43.5 10.5981
    endloop
  endfacet
  facet normal 0 -0.608809 0.793316
    outer loop
      vertex 118.718 42.8787 10.1213
      vertex 110.718 43.5 10.5981
      vertex 110.718 42.8787 10.1213
    endloop
  endfacet
  facet normal 0 -0.92388 -0.382683
    outer loop
      vertex 110.718 42.4019 6.5
      vertex 118.718 42.1022 7.22354
      vertex 110.718 42.1022 7.22354
    endloop
  endfacet
  facet normal 0 -0.92388 -0.382683
    outer loop
      vertex 118.718 42.1022 7.22354
      vertex 110.718 42.4019 6.5
      vertex 118.718 42.4019 6.5
    endloop
  endfacet
  facet normal 0 -0.382701 -0.923872
    outer loop
      vertex 110.718 43.5 5.40192
      vertex 118.718 44.2235 5.10222
      vertex 118.718 43.5 5.40192
    endloop
  endfacet
  facet normal -0 -0.382701 -0.923872
    outer loop
      vertex 118.718 44.2235 5.10222
      vertex 110.718 43.5 5.40192
      vertex 110.718 44.2235 5.10222
    endloop
  endfacet
  facet normal 0 0.991449 -0.130497
    outer loop
      vertex 118.718 47.8978 7.22354
      vertex 110.718 48 8
      vertex 118.718 48 8
    endloop
  endfacet
  facet normal 0 0.991449 -0.130497
    outer loop
      vertex 110.718 48 8
      vertex 118.718 47.8978 7.22354
      vertex 110.718 47.8978 7.22354
    endloop
  endfacet
  facet normal 1 0 0
    outer loop
      vertex 118.718 47.8978 8.77646
      vertex 118.718 47.8978 7.22354
      vertex 118.718 48 8
    endloop
  endfacet
  facet normal 1 0 0
    outer loop
      vertex 118.718 47.5981 9.5
      vertex 118.718 47.8978 7.22354
      vertex 118.718 47.8978 8.77646
    endloop
  endfacet
  facet normal 1 0 0
    outer loop
      vertex 118.718 47.5981 9.5
      vertex 118.718 47.5981 6.5
      vertex 118.718 47.8978 7.22354
    endloop
  endfacet
  facet normal 1 0 0
    outer loop
      vertex 118.718 47.1213 10.1213
      vertex 118.718 47.5981 6.5
      vertex 118.718 47.5981 9.5
    endloop
  endfacet
  facet normal 1 0 0
    outer loop
      vertex 118.718 47.1213 10.1213
      vertex 118.718 47.1213 5.87868
      vertex 118.718 47.5981 6.5
    endloop
  endfacet
  facet normal 1 0 0
    outer loop
      vertex 118.718 46.5 10.5981
      vertex 118.718 47.1213 5.87868
      vertex 118.718 47.1213 10.1213
    endloop
  endfacet
  facet normal 1 0 0
    outer loop
      vertex 118.718 46.5 10.5981
      vertex 118.718 46.5 5.40192
      vertex 118.718 47.1213 5.87868
    endloop
  endfacet
  facet normal 1 0 0
    outer loop
      vertex 118.718 45.7765 10.8978
      vertex 118.718 46.5 5.40192
      vertex 118.718 46.5 10.5981
    endloop
  endfacet
  facet normal 1 0 0
    outer loop
      vertex 118.718 45.7765 10.8978
      vertex 118.718 45.7765 5.10222
      vertex 118.718 46.5 5.40192
    endloop
  endfacet
  facet normal 1 0 0
    outer loop
      vertex 118.718 45 11
      vertex 118.718 45.7765 5.10222
      vertex 118.718 45.7765 10.8978
    endloop
  endfacet
  facet normal 1 0 0
    outer loop
      vertex 118.718 45 11
      vertex 118.718 45 5
      vertex 118.718 45.7765 5.10222
    endloop
  endfacet
  facet normal 1 -0 0
    outer loop
      vertex 118.718 44.2235 10.8978
      vertex 118.718 45 5
      vertex 118.718 45 11
    endloop
  endfacet
  facet normal 1 0 0
    outer loop
      vertex 118.718 44.2235 10.8978
      vertex 118.718 44.2235 5.10222
      vertex 118.718 45 5
    endloop
  endfacet
  facet normal 1 -0 0
    outer loop
      vertex 118.718 43.5 10.5981
      vertex 118.718 44.2235 5.10222
      vertex 118.718 44.2235 10.8978
    endloop
  endfacet
  facet normal 1 0 0
    outer loop
      vertex 118.718 43.5 10.5981
      vertex 118.718 43.5 5.40192
      vertex 118.718 44.2235 5.10222
    endloop
  endfacet
  facet normal 1 -0 0
    outer loop
      vertex 118.718 42.8787 10.1213
      vertex 118.718 43.5 5.40192
      vertex 118.718 43.5 10.5981
    endloop
  endfacet
  facet normal 1 0 0
    outer loop
      vertex 118.718 42.8787 10.1213
      vertex 118.718 42.8787 5.87868
      vertex 118.718 43.5 5.40192
    endloop
  endfacet
  facet normal 1 -0 0
    outer loop
      vertex 118.718 42.4019 9.5
      vertex 118.718 42.8787 5.87868
      vertex 118.718 42.8787 10.1213
    endloop
  endfacet
  facet normal 1 0 0
    outer loop
      vertex 118.718 42.4019 9.5
      vertex 118.718 42.4019 6.5
      vertex 118.718 42.8787 5.87868
    endloop
  endfacet
  facet normal 1 -0 0
    outer loop
      vertex 118.718 42.1022 8.77646
      vertex 118.718 42.4019 6.5
      vertex 118.718 42.4019 9.5
    endloop
  endfacet
  facet normal 1 0 0
    outer loop
      vertex 118.718 42.1022 8.77646
      vertex 118.718 42.1022 7.22354
      vertex 118.718 42.4019 6.5
    endloop
  endfacet
  facet normal 1 0 -0
    outer loop
      vertex 118.718 42.1022 7.22354
      vertex 118.718 42.1022 8.77646
      vertex 118.718 42 8
    endloop
  endfacet
  facet normal 0 -0.793316 0.608809
    outer loop
      vertex 110.718 42.4019 9.5
      vertex 118.718 42.8787 10.1213
      vertex 110.718 42.8787 10.1213
    endloop
  endfacet
  facet normal 0 -0.793316 0.608809
    outer loop
      vertex 118.718 42.8787 10.1213
      vertex 110.718 42.4019 9.5
      vertex 118.718 42.4019 9.5
    endloop
  endfacet
  facet normal 0 -0.92388 0.382683
    outer loop
      vertex 110.718 42.1022 8.77646
      vertex 118.718 42.4019 9.5
      vertex 110.718 42.4019 9.5
    endloop
  endfacet
  facet normal 0 -0.92388 0.382683
    outer loop
      vertex 118.718 42.4019 9.5
      vertex 110.718 42.1022 8.77646
      vertex 118.718 42.1022 8.77646
    endloop
  endfacet
  facet normal 0 -0.793326 -0.608797
    outer loop
      vertex 110.718 42.8787 5.87868
      vertex 118.718 42.4019 6.5
      vertex 110.718 42.4019 6.5
    endloop
  endfacet
  facet normal 0 -0.793326 -0.608797
    outer loop
      vertex 118.718 42.4019 6.5
      vertex 110.718 42.8787 5.87868
      vertex 118.718 42.8787 5.87868
    endloop
  endfacet
  facet normal 0 -0.130516 -0.991446
    outer loop
      vertex 110.718 44.2235 5.10222
      vertex 118.718 45 5
      vertex 118.718 44.2235 5.10222
    endloop
  endfacet
  facet normal -0 -0.130516 -0.991446
    outer loop
      vertex 118.718 45 5
      vertex 110.718 44.2235 5.10222
      vertex 110.718 45 5
    endloop
  endfacet
  facet normal 0 -0.991449 0.130497
    outer loop
      vertex 110.718 42 8
      vertex 118.718 42.1022 8.77646
      vertex 110.718 42.1022 8.77646
    endloop
  endfacet
  facet normal 0 -0.991449 0.130497
    outer loop
      vertex 118.718 42.1022 8.77646
      vertex 110.718 42 8
      vertex 118.718 42 8
    endloop
  endfacet
  facet normal 0 -0.382701 0.923872
    outer loop
      vertex 110.718 44.2235 10.8978
      vertex 118.718 43.5 10.5981
      vertex 118.718 44.2235 10.8978
    endloop
  endfacet
  facet normal 0 -0.382701 0.923872
    outer loop
      vertex 118.718 43.5 10.5981
      vertex 110.718 44.2235 10.8978
      vertex 110.718 43.5 10.5981
    endloop
  endfacet
  facet normal 0 -0.130491 0.99145
    outer loop
      vertex 110.718 45 11
      vertex 118.718 44.2235 10.8978
      vertex 118.718 45 11
    endloop
  endfacet
  facet normal 0 -0.130491 0.99145
    outer loop
      vertex 118.718 44.2235 10.8978
      vertex 110.718 45 11
      vertex 110.718 44.2235 10.8978
    endloop
  endfacet
  facet normal -0.258818 0 0.965926
    outer loop
      vertex 0 60 0
      vertex 110.718 0 29.6667
      vertex 110.718 60 29.6667
    endloop
  endfacet
  facet normal -0.258818 0 0.965926
    outer loop
      vertex 110.718 0 29.6667
      vertex 0 60 0
      vertex 0 0 0
    endloop
  endfacet
endsolid OpenSCAD_Model
