solid OpenSCAD_Model
  facet normal -1 0 0
    outer loop
      vertex 0 66 0
      vertex 0 60 29.6667
      vertex 0 66 41.6667
    endloop
  endfacet
  facet normal -1 0 0
    outer loop
      vertex 0 48.0668 8.82175
      vertex 0 66 0
      vertex 0 48.175 8
    endloop
  endfacet
  facet normal -1 0 0
    outer loop
      vertex 0 66 0
      vertex 0 48.0668 7.17825
      vertex 0 48.175 8
    endloop
  endfacet
  facet normal -1 0 0
    outer loop
      vertex 0 66 0
      vertex 0 47.7496 6.4125
      vertex 0 48.0668 7.17825
    endloop
  endfacet
  facet normal -1 0 0
    outer loop
      vertex 0 66 0
      vertex 0 47.2451 5.75494
      vertex 0 47.7496 6.4125
    endloop
  endfacet
  facet normal -1 0 0
    outer loop
      vertex 0 66 0
      vertex 0 46.5875 5.25037
      vertex 0 47.2451 5.75494
    endloop
  endfacet
  facet normal -1 0 0
    outer loop
      vertex 0 66 0
      vertex 0 45.8218 4.93318
      vertex 0 46.5875 5.25037
    endloop
  endfacet
  facet normal -1 0 0
    outer loop
      vertex 0 66 0
      vertex 0 45 4.825
      vertex 0 45.8218 4.93318
    endloop
  endfacet
  facet normal -1 0 0
    outer loop
      vertex 0 66 0
      vertex 0 44.1782 4.93318
      vertex 0 45 4.825
    endloop
  endfacet
  facet normal -1 0 0
    outer loop
      vertex 0 41.9332 7.17825
      vertex 0 18.175 8
      vertex 0 41.825 8
    endloop
  endfacet
  facet normal -1 0 0
    outer loop
      vertex 0 18.0668 7.17825
      vertex 0 41.9332 7.17825
      vertex 0 42.2504 6.4125
    endloop
  endfacet
  facet normal -1 0 0
    outer loop
      vertex 0 17.7496 6.4125
      vertex 0 42.2504 6.4125
      vertex 0 42.7549 5.75494
    endloop
  endfacet
  facet normal -1 0 0
    outer loop
      vertex 0 17.2451 5.75494
      vertex 0 42.7549 5.75494
      vertex 0 43.4125 5.25037
    endloop
  endfacet
  facet normal -1 0 0
    outer loop
      vertex 0 16.5875 5.25037
      vertex 0 43.4125 5.25037
      vertex 0 44.1782 4.93318
    endloop
  endfacet
  facet normal -1 0 0
    outer loop
      vertex 0 15.8217 4.93318
      vertex 0 44.1782 4.93318
      vertex 0 66 0
    endloop
  endfacet
  facet normal -1 0 0
    outer loop
      vertex 0 41.9332 7.17825
      vertex 0 18.0668 7.17825
      vertex 0 18.175 8
    endloop
  endfacet
  facet normal -1 0 0
    outer loop
      vertex 0 42.2504 6.4125
      vertex 0 17.7496 6.4125
      vertex 0 18.0668 7.17825
    endloop
  endfacet
  facet normal -1 0 0
    outer loop
      vertex 0 42.7549 5.75494
      vertex 0 17.2451 5.75494
      vertex 0 17.7496 6.4125
    endloop
  endfacet
  facet normal -1 0 0
    outer loop
      vertex 0 43.4125 5.25037
      vertex 0 16.5875 5.25037
      vertex 0 17.2451 5.75494
    endloop
  endfacet
  facet normal -1 0 0
    outer loop
      vertex 0 44.1782 4.93318
      vertex 0 15.8217 4.93318
      vertex 0 16.5875 5.25037
    endloop
  endfacet
  facet normal -1 0 0
    outer loop
      vertex 0 66 0
      vertex 0 15 4.825
      vertex 0 15.8217 4.93318
    endloop
  endfacet
  facet normal -1 0 0
    outer loop
      vertex 0 -6 0
      vertex 0 11.825 8
      vertex 0 11.9332 7.17825
    endloop
  endfacet
  facet normal -1 0 0
    outer loop
      vertex 0 -6 0
      vertex 0 11.9332 7.17825
      vertex 0 12.2504 6.4125
    endloop
  endfacet
  facet normal -1 0 0
    outer loop
      vertex 0 -6 0
      vertex 0 15 4.825
      vertex 0 66 0
    endloop
  endfacet
  facet normal -1 0 0
    outer loop
      vertex 0 -6 0
      vertex 0 14.1782 4.93318
      vertex 0 15 4.825
    endloop
  endfacet
  facet normal -1 0 0
    outer loop
      vertex 0 -6 0
      vertex 0 13.4125 5.25037
      vertex 0 14.1782 4.93318
    endloop
  endfacet
  facet normal -1 0 0
    outer loop
      vertex 0 -6 0
      vertex 0 12.7549 5.75494
      vertex 0 13.4125 5.25037
    endloop
  endfacet
  facet normal -1 0 0
    outer loop
      vertex 0 -6 0
      vertex 0 12.2504 6.4125
      vertex 0 12.7549 5.75494
    endloop
  endfacet
  facet normal -1 -0 0
    outer loop
      vertex 0 11.825 8
      vertex 0 -6 0
      vertex 0 0 29.6667
    endloop
  endfacet
  facet normal -1 0 0
    outer loop
      vertex 0 -6 41.6667
      vertex 0 0 29.6667
      vertex 0 -6 0
    endloop
  endfacet
  facet normal -1 0 0
    outer loop
      vertex 0 0 29.6667
      vertex 0 -6 41.6667
      vertex 0 0 41.6667
    endloop
  endfacet
  facet normal -1 -0 0
    outer loop
      vertex 0 66 41.6667
      vertex 0 60 29.6667
      vertex 0 60 41.6667
    endloop
  endfacet
  facet normal -1 0 0
    outer loop
      vertex 0 66 0
      vertex 0 48.0668 8.82175
      vertex 0 60 29.6667
    endloop
  endfacet
  facet normal -1 0 0
    outer loop
      vertex 0 47.7496 9.5875
      vertex 0 60 29.6667
      vertex 0 48.0668 8.82175
    endloop
  endfacet
  facet normal -1 0 0
    outer loop
      vertex 0 47.2451 10.2451
      vertex 0 60 29.6667
      vertex 0 47.7496 9.5875
    endloop
  endfacet
  facet normal -1 0 0
    outer loop
      vertex 0 46.5875 10.7496
      vertex 0 60 29.6667
      vertex 0 47.2451 10.2451
    endloop
  endfacet
  facet normal -1 0 0
    outer loop
      vertex 0 45.8218 11.0668
      vertex 0 60 29.6667
      vertex 0 46.5875 10.7496
    endloop
  endfacet
  facet normal -1 0 0
    outer loop
      vertex 0 45 11.175
      vertex 0 60 29.6667
      vertex 0 45.8218 11.0668
    endloop
  endfacet
  facet normal -1 0 0
    outer loop
      vertex 0 44.1782 11.0668
      vertex 0 60 29.6667
      vertex 0 45 11.175
    endloop
  endfacet
  facet normal -1 0 0
    outer loop
      vertex 0 43.4125 10.7496
      vertex 0 60 29.6667
      vertex 0 44.1782 11.0668
    endloop
  endfacet
  facet normal -1 0 0
    outer loop
      vertex 0 16.5875 10.7496
      vertex 0 43.4125 10.7496
      vertex 0 42.7549 10.2451
    endloop
  endfacet
  facet normal -1 0 0
    outer loop
      vertex 0 18.175 8
      vertex 0 41.9332 8.82175
      vertex 0 41.825 8
    endloop
  endfacet
  facet normal -1 0 0
    outer loop
      vertex 0 18.0668 8.82175
      vertex 0 41.9332 8.82175
      vertex 0 18.175 8
    endloop
  endfacet
  facet normal -1 0 0
    outer loop
      vertex 0 41.9332 8.82175
      vertex 0 18.0668 8.82175
      vertex 0 42.2504 9.5875
    endloop
  endfacet
  facet normal -1 0 0
    outer loop
      vertex 0 17.7496 9.5875
      vertex 0 42.2504 9.5875
      vertex 0 18.0668 8.82175
    endloop
  endfacet
  facet normal -1 0 0
    outer loop
      vertex 0 42.2504 9.5875
      vertex 0 17.7496 9.5875
      vertex 0 42.7549 10.2451
    endloop
  endfacet
  facet normal -1 0 0
    outer loop
      vertex 0 17.2451 10.2451
      vertex 0 42.7549 10.2451
      vertex 0 17.7496 9.5875
    endloop
  endfacet
  facet normal -1 0 0
    outer loop
      vertex 0 16.5875 10.7496
      vertex 0 42.7549 10.2451
      vertex 0 17.2451 10.2451
    endloop
  endfacet
  facet normal -1 0 0
    outer loop
      vertex 0 43.4125 10.7496
      vertex 0 16.5875 10.7496
      vertex 0 60 29.6667
    endloop
  endfacet
  facet normal -1 0 0
    outer loop
      vertex 0 0 29.6667
      vertex 0 16.5875 10.7496
      vertex 0 15.8217 11.0668
    endloop
  endfacet
  facet normal -1 0 0
    outer loop
      vertex 0 0 29.6667
      vertex 0 15.8217 11.0668
      vertex 0 15 11.175
    endloop
  endfacet
  facet normal -1 0 0
    outer loop
      vertex 0 0 29.6667
      vertex 0 15 11.175
      vertex 0 14.1782 11.0668
    endloop
  endfacet
  facet normal -1 0 0
    outer loop
      vertex 0 16.5875 10.7496
      vertex 0 0 29.6667
      vertex 0 60 29.6667
    endloop
  endfacet
  facet normal -1 0 0
    outer loop
      vertex 0 13.4125 10.7496
      vertex 0 0 29.6667
      vertex 0 14.1782 11.0668
    endloop
  endfacet
  facet normal -1 0 0
    outer loop
      vertex 0 12.7549 10.2451
      vertex 0 0 29.6667
      vertex 0 13.4125 10.7496
    endloop
  endfacet
  facet normal -1 0 0
    outer loop
      vertex 0 12.2504 9.5875
      vertex 0 0 29.6667
      vertex 0 12.7549 10.2451
    endloop
  endfacet
  facet normal -1 0 0
    outer loop
      vertex 0 11.9332 8.82175
      vertex 0 0 29.6667
      vertex 0 12.2504 9.5875
    endloop
  endfacet
  facet normal -1 0 0
    outer loop
      vertex 0 0 29.6667
      vertex 0 11.9332 8.82175
      vertex 0 11.825 8
    endloop
  endfacet
  facet normal 1 0 0
    outer loop
      vertex 110.718 0 71.3333
      vertex 110.718 -6 71.3333
      vertex 110.718 0 59.3333
    endloop
  endfacet
  facet normal 1 0 0
    outer loop
      vertex 110.718 66 0
      vertex 110.718 47.8978 8.77646
      vertex 110.718 48 8
    endloop
  endfacet
  facet normal 1 0 0
    outer loop
      vertex 110.718 66 0
      vertex 110.718 47.5981 9.5
      vertex 110.718 47.8978 8.77646
    endloop
  endfacet
  facet normal 1 0 0
    outer loop
      vertex 110.718 66 0
      vertex 110.718 47.1213 10.1213
      vertex 110.718 47.5981 9.5
    endloop
  endfacet
  facet normal 1 0 0
    outer loop
      vertex 110.718 60 59.3333
      vertex 110.718 46.5 10.5981
      vertex 110.718 47.1213 10.1213
    endloop
  endfacet
  facet normal 1 0 0
    outer loop
      vertex 110.718 60 59.3333
      vertex 110.718 45.7765 10.8978
      vertex 110.718 46.5 10.5981
    endloop
  endfacet
  facet normal 1 0 0
    outer loop
      vertex 110.718 60 59.3333
      vertex 110.718 45 11
      vertex 110.718 45.7765 10.8978
    endloop
  endfacet
  facet normal 1 0 0
    outer loop
      vertex 110.718 60 59.3333
      vertex 110.718 44.2235 10.8978
      vertex 110.718 45 11
    endloop
  endfacet
  facet normal 1 0 0
    outer loop
      vertex 110.718 60 59.3333
      vertex 110.718 43.5 10.5981
      vertex 110.718 44.2235 10.8978
    endloop
  endfacet
  facet normal 1 0 0
    outer loop
      vertex 110.718 16.5 10.5981
      vertex 110.718 43.5 10.5981
      vertex 110.718 60 59.3333
    endloop
  endfacet
  facet normal 1 0 0
    outer loop
      vertex 110.718 43.5 10.5981
      vertex 110.718 16.5 10.5981
      vertex 110.718 42.8787 10.1213
    endloop
  endfacet
  facet normal 1 0 -0
    outer loop
      vertex 110.718 17.1213 10.1213
      vertex 110.718 42.8787 10.1213
      vertex 110.718 16.5 10.5981
    endloop
  endfacet
  facet normal 1 0 0
    outer loop
      vertex 110.718 42.1022 8.77646
      vertex 110.718 18 8
      vertex 110.718 42 8
    endloop
  endfacet
  facet normal 1 0 0
    outer loop
      vertex 110.718 42.8787 10.1213
      vertex 110.718 17.1213 10.1213
      vertex 110.718 42.4019 9.5
    endloop
  endfacet
  facet normal 1 0 0
    outer loop
      vertex 110.718 42.1022 8.77646
      vertex 110.718 17.8978 8.77646
      vertex 110.718 18 8
    endloop
  endfacet
  facet normal 1 0 0
    outer loop
      vertex 110.718 42.1022 8.77646
      vertex 110.718 17.5981 9.5
      vertex 110.718 17.8978 8.77646
    endloop
  endfacet
  facet normal 1 0 0
    outer loop
      vertex 110.718 42.4019 9.5
      vertex 110.718 17.5981 9.5
      vertex 110.718 42.1022 8.77646
    endloop
  endfacet
  facet normal 1 0 -0
    outer loop
      vertex 110.718 17.5981 9.5
      vertex 110.718 42.4019 9.5
      vertex 110.718 17.1213 10.1213
    endloop
  endfacet
  facet normal 1 -0 0
    outer loop
      vertex 110.718 0 59.3333
      vertex 110.718 16.5 10.5981
      vertex 110.718 60 59.3333
    endloop
  endfacet
  facet normal 1 0 0
    outer loop
      vertex 110.718 16.5 10.5981
      vertex 110.718 0 59.3333
      vertex 110.718 15.7765 10.8978
    endloop
  endfacet
  facet normal 1 0 0
    outer loop
      vertex 110.718 15.7765 10.8978
      vertex 110.718 0 59.3333
      vertex 110.718 15 11
    endloop
  endfacet
  facet normal 1 0 0
    outer loop
      vertex 110.718 15 11
      vertex 110.718 0 59.3333
      vertex 110.718 14.2235 10.8978
    endloop
  endfacet
  facet normal 1 0 0
    outer loop
      vertex 110.718 14.2235 10.8978
      vertex 110.718 0 59.3333
      vertex 110.718 13.5 10.5981
    endloop
  endfacet
  facet normal 1 0 0
    outer loop
      vertex 110.718 12.4019 9.5
      vertex 110.718 -6 0
      vertex 110.718 12.1022 8.77646
    endloop
  endfacet
  facet normal 1 0 0
    outer loop
      vertex 110.718 12.8787 10.1213
      vertex 110.718 -6 0
      vertex 110.718 12.4019 9.5
    endloop
  endfacet
  facet normal 1 0 0
    outer loop
      vertex 110.718 -6 0
      vertex 110.718 12.8787 10.1213
      vertex 110.718 0 59.3333
    endloop
  endfacet
  facet normal 1 0 0
    outer loop
      vertex 110.718 13.5 10.5981
      vertex 110.718 0 59.3333
      vertex 110.718 12.8787 10.1213
    endloop
  endfacet
  facet normal 1 0 0
    outer loop
      vertex 110.718 60 59.3333
      vertex 110.718 66 71.3333
      vertex 110.718 60 71.3333
    endloop
  endfacet
  facet normal 1 0 0
    outer loop
      vertex 110.718 66 71.3333
      vertex 110.718 60 59.3333
      vertex 110.718 66 0
    endloop
  endfacet
  facet normal 1 -0 0
    outer loop
      vertex 110.718 47.1213 10.1213
      vertex 110.718 66 0
      vertex 110.718 60 59.3333
    endloop
  endfacet
  facet normal 1 -0 0
    outer loop
      vertex 110.718 47.8978 7.22354
      vertex 110.718 66 0
      vertex 110.718 48 8
    endloop
  endfacet
  facet normal 1 -0 0
    outer loop
      vertex 110.718 47.5981 6.5
      vertex 110.718 66 0
      vertex 110.718 47.8978 7.22354
    endloop
  endfacet
  facet normal 1 -0 0
    outer loop
      vertex 110.718 47.1213 5.87868
      vertex 110.718 66 0
      vertex 110.718 47.5981 6.5
    endloop
  endfacet
  facet normal 1 -0 0
    outer loop
      vertex 110.718 46.5 5.40192
      vertex 110.718 66 0
      vertex 110.718 47.1213 5.87868
    endloop
  endfacet
  facet normal 1 -0 0
    outer loop
      vertex 110.718 45.7765 5.10222
      vertex 110.718 66 0
      vertex 110.718 46.5 5.40192
    endloop
  endfacet
  facet normal 1 -0 0
    outer loop
      vertex 110.718 45 5
      vertex 110.718 66 0
      vertex 110.718 45.7765 5.10222
    endloop
  endfacet
  facet normal 1 0 0
    outer loop
      vertex 110.718 44.2235 5.10222
      vertex 110.718 66 0
      vertex 110.718 45 5
    endloop
  endfacet
  facet normal 1 -0 0
    outer loop
      vertex 110.718 18 8
      vertex 110.718 42.1022 7.22354
      vertex 110.718 42 8
    endloop
  endfacet
  facet normal 1 0 0
    outer loop
      vertex 110.718 17.8978 7.22354
      vertex 110.718 42.1022 7.22354
      vertex 110.718 18 8
    endloop
  endfacet
  facet normal 1 0 0
    outer loop
      vertex 110.718 42.1022 7.22354
      vertex 110.718 17.8978 7.22354
      vertex 110.718 42.4019 6.5
    endloop
  endfacet
  facet normal 1 0 0
    outer loop
      vertex 110.718 17.5981 6.5
      vertex 110.718 42.4019 6.5
      vertex 110.718 17.8978 7.22354
    endloop
  endfacet
  facet normal 1 0 0
    outer loop
      vertex 110.718 42.4019 6.5
      vertex 110.718 17.5981 6.5
      vertex 110.718 42.8787 5.87868
    endloop
  endfacet
  facet normal 1 0 0
    outer loop
      vertex 110.718 17.1213 5.87868
      vertex 110.718 42.8787 5.87868
      vertex 110.718 17.5981 6.5
    endloop
  endfacet
  facet normal 1 0 0
    outer loop
      vertex 110.718 42.8787 5.87868
      vertex 110.718 17.1213 5.87868
      vertex 110.718 43.5 5.40192
    endloop
  endfacet
  facet normal 1 0 0
    outer loop
      vertex 110.718 16.5 5.40192
      vertex 110.718 43.5 5.40192
      vertex 110.718 17.1213 5.87868
    endloop
  endfacet
  facet normal 1 0 0
    outer loop
      vertex 110.718 43.5 5.40192
      vertex 110.718 16.5 5.40192
      vertex 110.718 44.2235 5.10222
    endloop
  endfacet
  facet normal 1 0 0
    outer loop
      vertex 110.718 15.7765 5.10222
      vertex 110.718 44.2235 5.10222
      vertex 110.718 16.5 5.40192
    endloop
  endfacet
  facet normal 1 0 0
    outer loop
      vertex 110.718 44.2235 5.10222
      vertex 110.718 15.7765 5.10222
      vertex 110.718 66 0
    endloop
  endfacet
  facet normal 1 -0 0
    outer loop
      vertex 110.718 15 5
      vertex 110.718 66 0
      vertex 110.718 15.7765 5.10222
    endloop
  endfacet
  facet normal 1 0 0
    outer loop
      vertex 110.718 12.1022 8.77646
      vertex 110.718 -6 0
      vertex 110.718 12 8
    endloop
  endfacet
  facet normal 1 0 0
    outer loop
      vertex 110.718 -6 0
      vertex 110.718 0 59.3333
      vertex 110.718 -6 71.3333
    endloop
  endfacet
  facet normal 1 0 0
    outer loop
      vertex 110.718 15 5
      vertex 110.718 -6 0
      vertex 110.718 66 0
    endloop
  endfacet
  facet normal 1 0 0
    outer loop
      vertex 110.718 14.2235 5.10222
      vertex 110.718 -6 0
      vertex 110.718 15 5
    endloop
  endfacet
  facet normal 1 0 0
    outer loop
      vertex 110.718 13.5 5.40192
      vertex 110.718 -6 0
      vertex 110.718 14.2235 5.10222
    endloop
  endfacet
  facet normal 1 0 0
    outer loop
      vertex 110.718 12.8787 5.87868
      vertex 110.718 -6 0
      vertex 110.718 13.5 5.40192
    endloop
  endfacet
  facet normal 1 0 0
    outer loop
      vertex 110.718 12.4019 6.5
      vertex 110.718 -6 0
      vertex 110.718 12.8787 5.87868
    endloop
  endfacet
  facet normal 1 0 0
    outer loop
      vertex 110.718 12.1022 7.22354
      vertex 110.718 -6 0
      vertex 110.718 12.4019 6.5
    endloop
  endfacet
  facet normal 1 0 0
    outer loop
      vertex 110.718 12 8
      vertex 110.718 -6 0
      vertex 110.718 12.1022 7.22354
    endloop
  endfacet
  facet normal 0 0 -1
    outer loop
      vertex 0 -6 0
      vertex 110.718 66 0
      vertex 110.718 -6 0
    endloop
  endfacet
  facet normal -0 0 -1
    outer loop
      vertex 110.718 66 0
      vertex 0 -6 0
      vertex 0 66 0
    endloop
  endfacet
  facet normal -0.258817 0 0.965926
    outer loop
      vertex 0 0 41.6667
      vertex 110.718 -6 71.3333
      vertex 110.718 0 71.3333
    endloop
  endfacet
  facet normal -0.258817 0 0.965926
    outer loop
      vertex 110.718 -6 71.3333
      vertex 0 0 41.6667
      vertex 0 -6 41.6667
    endloop
  endfacet
  facet normal 0 1 -0
    outer loop
      vertex 110.718 0 59.3333
      vertex 0 0 41.6667
      vertex 110.718 0 71.3333
    endloop
  endfacet
  facet normal -0 1 0
    outer loop
      vertex 0 0 41.6667
      vertex 110.718 0 59.3333
      vertex 0 0 29.6667
    endloop
  endfacet
  facet normal 0 -1 0
    outer loop
      vertex 110.718 -6 0
      vertex 0 -6 41.6667
      vertex 0 -6 0
    endloop
  endfacet
  facet normal 0 -1 0
    outer loop
      vertex 0 -6 41.6667
      vertex 110.718 -6 0
      vertex 110.718 -6 71.3333
    endloop
  endfacet
  facet normal -0.258817 0 0.965926
    outer loop
      vertex 0 66 41.6667
      vertex 110.718 60 71.3333
      vertex 110.718 66 71.3333
    endloop
  endfacet
  facet normal -0.258817 0 0.965926
    outer loop
      vertex 110.718 60 71.3333
      vertex 0 66 41.6667
      vertex 0 60 41.6667
    endloop
  endfacet
  facet normal 0 1 -0
    outer loop
      vertex 110.718 66 0
      vertex 0 66 41.6667
      vertex 110.718 66 71.3333
    endloop
  endfacet
  facet normal 0 1 0
    outer loop
      vertex 0 66 41.6667
      vertex 110.718 66 0
      vertex 0 66 0
    endloop
  endfacet
  facet normal 0 -1 0
    outer loop
      vertex 0 60 41.6667
      vertex 110.718 60 59.3333
      vertex 110.718 60 71.3333
    endloop
  endfacet
  facet normal 0 -1 0
    outer loop
      vertex 110.718 60 59.3333
      vertex 0 60 41.6667
      vertex 0 60 29.6667
    endloop
  endfacet
  facet normal 0 0.130516 -0.991446
    outer loop
      vertex 110.718 15 5
      vertex 118.718 15.7765 5.10222
      vertex 118.718 15 5
    endloop
  endfacet
  facet normal 0 0.130516 -0.991446
    outer loop
      vertex 118.718 15.7765 5.10222
      vertex 110.718 15 5
      vertex 110.718 15.7765 5.10222
    endloop
  endfacet
  facet normal -0 0.130491 0.99145
    outer loop
      vertex 110.718 15.7765 10.8978
      vertex 118.718 15 11
      vertex 118.718 15.7765 10.8978
    endloop
  endfacet
  facet normal 0 0.130491 0.99145
    outer loop
      vertex 118.718 15 11
      vertex 110.718 15.7765 10.8978
      vertex 110.718 15 11
    endloop
  endfacet
  facet normal 0 -0.991449 -0.130497
    outer loop
      vertex 110.718 12.1022 7.22354
      vertex 118.718 12 8
      vertex 110.718 12 8
    endloop
  endfacet
  facet normal 0 -0.991449 -0.130497
    outer loop
      vertex 118.718 12 8
      vertex 110.718 12.1022 7.22354
      vertex 118.718 12.1022 7.22354
    endloop
  endfacet
  facet normal 0 -0.608777 -0.793341
    outer loop
      vertex 110.718 12.8787 5.87868
      vertex 118.718 13.5 5.40192
      vertex 118.718 12.8787 5.87868
    endloop
  endfacet
  facet normal -0 -0.608777 -0.793341
    outer loop
      vertex 118.718 13.5 5.40192
      vertex 110.718 12.8787 5.87868
      vertex 110.718 13.5 5.40192
    endloop
  endfacet
  facet normal 0 0.382701 -0.923872
    outer loop
      vertex 110.718 15.7765 5.10222
      vertex 118.718 16.5 5.40192
      vertex 118.718 15.7765 5.10222
    endloop
  endfacet
  facet normal 0 0.382701 -0.923872
    outer loop
      vertex 118.718 16.5 5.40192
      vertex 110.718 15.7765 5.10222
      vertex 110.718 16.5 5.40192
    endloop
  endfacet
  facet normal 0 0.793326 -0.608797
    outer loop
      vertex 118.718 17.1213 5.87868
      vertex 110.718 17.5981 6.5
      vertex 118.718 17.5981 6.5
    endloop
  endfacet
  facet normal 0 0.793326 -0.608797
    outer loop
      vertex 110.718 17.5981 6.5
      vertex 118.718 17.1213 5.87868
      vertex 110.718 17.1213 5.87868
    endloop
  endfacet
  facet normal 0 0.793316 0.608809
    outer loop
      vertex 118.718 17.5981 9.5
      vertex 110.718 17.1213 10.1213
      vertex 118.718 17.1213 10.1213
    endloop
  endfacet
  facet normal 0 0.793316 0.608809
    outer loop
      vertex 110.718 17.1213 10.1213
      vertex 118.718 17.5981 9.5
      vertex 110.718 17.5981 9.5
    endloop
  endfacet
  facet normal -0 0.608809 0.793316
    outer loop
      vertex 110.718 17.1213 10.1213
      vertex 118.718 16.5 10.5981
      vertex 118.718 17.1213 10.1213
    endloop
  endfacet
  facet normal 0 0.608809 0.793316
    outer loop
      vertex 118.718 16.5 10.5981
      vertex 110.718 17.1213 10.1213
      vertex 110.718 16.5 10.5981
    endloop
  endfacet
  facet normal 0 0.92388 0.382683
    outer loop
      vertex 118.718 17.8978 8.77646
      vertex 110.718 17.5981 9.5
      vertex 118.718 17.5981 9.5
    endloop
  endfacet
  facet normal 0 0.92388 0.382683
    outer loop
      vertex 110.718 17.5981 9.5
      vertex 118.718 17.8978 8.77646
      vertex 110.718 17.8978 8.77646
    endloop
  endfacet
  facet normal 0 0.608777 -0.793341
    outer loop
      vertex 110.718 16.5 5.40192
      vertex 118.718 17.1213 5.87868
      vertex 118.718 16.5 5.40192
    endloop
  endfacet
  facet normal 0 0.608777 -0.793341
    outer loop
      vertex 118.718 17.1213 5.87868
      vertex 110.718 16.5 5.40192
      vertex 110.718 17.1213 5.87868
    endloop
  endfacet
  facet normal 0 0.92388 -0.382683
    outer loop
      vertex 118.718 17.5981 6.5
      vertex 110.718 17.8978 7.22354
      vertex 118.718 17.8978 7.22354
    endloop
  endfacet
  facet normal 0 0.92388 -0.382683
    outer loop
      vertex 110.718 17.8978 7.22354
      vertex 118.718 17.5981 6.5
      vertex 110.718 17.5981 6.5
    endloop
  endfacet
  facet normal -0 0.382701 0.923872
    outer loop
      vertex 110.718 16.5 10.5981
      vertex 118.718 15.7765 10.8978
      vertex 118.718 16.5 10.5981
    endloop
  endfacet
  facet normal 0 0.382701 0.923872
    outer loop
      vertex 118.718 15.7765 10.8978
      vertex 110.718 16.5 10.5981
      vertex 110.718 15.7765 10.8978
    endloop
  endfacet
  facet normal 0 0.991449 0.130497
    outer loop
      vertex 118.718 18 8
      vertex 110.718 17.8978 8.77646
      vertex 118.718 17.8978 8.77646
    endloop
  endfacet
  facet normal 0 0.991449 0.130497
    outer loop
      vertex 110.718 17.8978 8.77646
      vertex 118.718 18 8
      vertex 110.718 18 8
    endloop
  endfacet
  facet normal 0 -0.130516 -0.991446
    outer loop
      vertex 110.718 14.2235 5.10222
      vertex 118.718 15 5
      vertex 118.718 14.2235 5.10222
    endloop
  endfacet
  facet normal -0 -0.130516 -0.991446
    outer loop
      vertex 118.718 15 5
      vertex 110.718 14.2235 5.10222
      vertex 110.718 15 5
    endloop
  endfacet
  facet normal 0 -0.608809 0.793316
    outer loop
      vertex 110.718 13.5 10.5981
      vertex 118.718 12.8787 10.1213
      vertex 118.718 13.5 10.5981
    endloop
  endfacet
  facet normal 0 -0.608809 0.793316
    outer loop
      vertex 118.718 12.8787 10.1213
      vertex 110.718 13.5 10.5981
      vertex 110.718 12.8787 10.1213
    endloop
  endfacet
  facet normal 0 -0.382701 -0.923872
    outer loop
      vertex 110.718 13.5 5.40192
      vertex 118.718 14.2235 5.10222
      vertex 118.718 13.5 5.40192
    endloop
  endfacet
  facet normal -0 -0.382701 -0.923872
    outer loop
      vertex 118.718 14.2235 5.10222
      vertex 110.718 13.5 5.40192
      vertex 110.718 14.2235 5.10222
    endloop
  endfacet
  facet normal 0 0.991449 -0.130497
    outer loop
      vertex 118.718 17.8978 7.22354
      vertex 110.718 18 8
      vertex 118.718 18 8
    endloop
  endfacet
  facet normal 0 0.991449 -0.130497
    outer loop
      vertex 110.718 18 8
      vertex 118.718 17.8978 7.22354
      vertex 110.718 17.8978 7.22354
    endloop
  endfacet
  facet normal 0 -0.793316 0.608809
    outer loop
      vertex 110.718 12.4019 9.5
      vertex 118.718 12.8787 10.1213
      vertex 110.718 12.8787 10.1213
    endloop
  endfacet
  facet normal 0 -0.793316 0.608809
    outer loop
      vertex 118.718 12.8787 10.1213
      vertex 110.718 12.4019 9.5
      vertex 118.718 12.4019 9.5
    endloop
  endfacet
  facet normal 0 -0.793326 -0.608797
    outer loop
      vertex 110.718 12.8787 5.87868
      vertex 118.718 12.4019 6.5
      vertex 110.718 12.4019 6.5
    endloop
  endfacet
  facet normal 0 -0.793326 -0.608797
    outer loop
      vertex 118.718 12.4019 6.5
      vertex 110.718 12.8787 5.87868
      vertex 118.718 12.8787 5.87868
    endloop
  endfacet
  facet normal 0 -0.92388 -0.382683
    outer loop
      vertex 110.718 12.4019 6.5
      vertex 118.718 12.1022 7.22354
      vertex 110.718 12.1022 7.22354
    endloop
  endfacet
  facet normal 0 -0.92388 -0.382683
    outer loop
      vertex 118.718 12.1022 7.22354
      vertex 110.718 12.4019 6.5
      vertex 118.718 12.4019 6.5
    endloop
  endfacet
  facet normal 0 -0.991449 0.130497
    outer loop
      vertex 110.718 12 8
      vertex 118.718 12.1022 8.77646
      vertex 110.718 12.1022 8.77646
    endloop
  endfacet
  facet normal 0 -0.991449 0.130497
    outer loop
      vertex 118.718 12.1022 8.77646
      vertex 110.718 12 8
      vertex 118.718 12 8
    endloop
  endfacet
  facet normal 0 -0.382701 0.923872
    outer loop
      vertex 110.718 14.2235 10.8978
      vertex 118.718 13.5 10.5981
      vertex 118.718 14.2235 10.8978
    endloop
  endfacet
  facet normal 0 -0.382701 0.923872
    outer loop
      vertex 118.718 13.5 10.5981
      vertex 110.718 14.2235 10.8978
      vertex 110.718 13.5 10.5981
    endloop
  endfacet
  facet normal 0 -0.130491 0.99145
    outer loop
      vertex 110.718 15 11
      vertex 118.718 14.2235 10.8978
      vertex 118.718 15 11
    endloop
  endfacet
  facet normal 0 -0.130491 0.99145
    outer loop
      vertex 118.718 14.2235 10.8978
      vertex 110.718 15 11
      vertex 110.718 14.2235 10.8978
    endloop
  endfacet
  facet normal 1 0 0
    outer loop
      vertex 118.718 17.8978 8.77646
      vertex 118.718 17.8978 7.22354
      vertex 118.718 18 8
    endloop
  endfacet
  facet normal 1 0 0
    outer loop
      vertex 118.718 17.5981 9.5
      vertex 118.718 17.8978 7.22354
      vertex 118.718 17.8978 8.77646
    endloop
  endfacet
  facet normal 1 0 0
    outer loop
      vertex 118.718 17.5981 9.5
      vertex 118.718 17.5981 6.5
      vertex 118.718 17.8978 7.22354
    endloop
  endfacet
  facet normal 1 0 0
    outer loop
      vertex 118.718 17.1213 10.1213
      vertex 118.718 17.5981 6.5
      vertex 118.718 17.5981 9.5
    endloop
  endfacet
  facet normal 1 0 0
    outer loop
      vertex 118.718 17.1213 10.1213
      vertex 118.718 17.1213 5.87868
      vertex 118.718 17.5981 6.5
    endloop
  endfacet
  facet normal 1 0 0
    outer loop
      vertex 118.718 16.5 10.5981
      vertex 118.718 17.1213 5.87868
      vertex 118.718 17.1213 10.1213
    endloop
  endfacet
  facet normal 1 0 0
    outer loop
      vertex 118.718 16.5 10.5981
      vertex 118.718 16.5 5.40192
      vertex 118.718 17.1213 5.87868
    endloop
  endfacet
  facet normal 1 0 0
    outer loop
      vertex 118.718 15.7765 10.8978
      vertex 118.718 16.5 5.40192
      vertex 118.718 16.5 10.5981
    endloop
  endfacet
  facet normal 1 0 0
    outer loop
      vertex 118.718 15.7765 10.8978
      vertex 118.718 15.7765 5.10222
      vertex 118.718 16.5 5.40192
    endloop
  endfacet
  facet normal 1 0 0
    outer loop
      vertex 118.718 15 11
      vertex 118.718 15.7765 5.10222
      vertex 118.718 15.7765 10.8978
    endloop
  endfacet
  facet normal 1 0 0
    outer loop
      vertex 118.718 15 11
      vertex 118.718 15 5
      vertex 118.718 15.7765 5.10222
    endloop
  endfacet
  facet normal 1 -0 0
    outer loop
      vertex 118.718 14.2235 10.8978
      vertex 118.718 15 5
      vertex 118.718 15 11
    endloop
  endfacet
  facet normal 1 0 0
    outer loop
      vertex 118.718 14.2235 10.8978
      vertex 118.718 14.2235 5.10222
      vertex 118.718 15 5
    endloop
  endfacet
  facet normal 1 -0 0
    outer loop
      vertex 118.718 13.5 10.5981
      vertex 118.718 14.2235 5.10222
      vertex 118.718 14.2235 10.8978
    endloop
  endfacet
  facet normal 1 0 0
    outer loop
      vertex 118.718 13.5 10.5981
      vertex 118.718 13.5 5.40192
      vertex 118.718 14.2235 5.10222
    endloop
  endfacet
  facet normal 1 -0 0
    outer loop
      vertex 118.718 12.8787 10.1213
      vertex 118.718 13.5 5.40192
      vertex 118.718 13.5 10.5981
    endloop
  endfacet
  facet normal 1 0 0
    outer loop
      vertex 118.718 12.8787 10.1213
      vertex 118.718 12.8787 5.87868
      vertex 118.718 13.5 5.40192
    endloop
  endfacet
  facet normal 1 -0 0
    outer loop
      vertex 118.718 12.4019 9.5
      vertex 118.718 12.8787 5.87868
      vertex 118.718 12.8787 10.1213
    endloop
  endfacet
  facet normal 1 0 0
    outer loop
      vertex 118.718 12.4019 9.5
      vertex 118.718 12.4019 6.5
      vertex 118.718 12.8787 5.87868
    endloop
  endfacet
  facet normal 1 -0 0
    outer loop
      vertex 118.718 12.1022 8.77646
      vertex 118.718 12.4019 6.5
      vertex 118.718 12.4019 9.5
    endloop
  endfacet
  facet normal 1 0 0
    outer loop
      vertex 118.718 12.1022 8.77646
      vertex 118.718 12.1022 7.22354
      vertex 118.718 12.4019 6.5
    endloop
  endfacet
  facet normal 1 0 -0
    outer loop
      vertex 118.718 12.1022 7.22354
      vertex 118.718 12.1022 8.77646
      vertex 118.718 12 8
    endloop
  endfacet
  facet normal 0 -0.92388 0.382683
    outer loop
      vertex 110.718 12.1022 8.77646
      vertex 118.718 12.4019 9.5
      vertex 110.718 12.4019 9.5
    endloop
  endfacet
  facet normal 0 -0.92388 0.382683
    outer loop
      vertex 118.718 12.4019 9.5
      vertex 110.718 12.1022 8.77646
      vertex 118.718 12.1022 8.77646
    endloop
  endfacet
  facet normal 0 0.130516 -0.991446
    outer loop
      vertex 110.718 45 5
      vertex 118.718 45.7765 5.10222
      vertex 118.718 45 5
    endloop
  endfacet
  facet normal 0 0.130516 -0.991446
    outer loop
      vertex 118.718 45.7765 5.10222
      vertex 110.718 45 5
      vertex 110.718 45.7765 5.10222
    endloop
  endfacet
  facet normal -0 0.130491 0.99145
    outer loop
      vertex 110.718 45.7765 10.8978
      vertex 118.718 45 11
      vertex 118.718 45.7765 10.8978
    endloop
  endfacet
  facet normal 0 0.130491 0.99145
    outer loop
      vertex 118.718 45 11
      vertex 110.718 45.7765 10.8978
      vertex 110.718 45 11
    endloop
  endfacet
  facet normal 0 -0.991449 -0.130497
    outer loop
      vertex 110.718 42.1022 7.22354
      vertex 118.718 42 8
      vertex 110.718 42 8
    endloop
  endfacet
  facet normal 0 -0.991449 -0.130497
    outer loop
      vertex 118.718 42 8
      vertex 110.718 42.1022 7.22354
      vertex 118.718 42.1022 7.22354
    endloop
  endfacet
  facet normal 0 -0.608777 -0.793341
    outer loop
      vertex 110.718 42.8787 5.87868
      vertex 118.718 43.5 5.40192
      vertex 118.718 42.8787 5.87868
    endloop
  endfacet
  facet normal -0 -0.608777 -0.793341
    outer loop
      vertex 118.718 43.5 5.40192
      vertex 110.718 42.8787 5.87868
      vertex 110.718 43.5 5.40192
    endloop
  endfacet
  facet normal 0 0.382701 -0.923872
    outer loop
      vertex 110.718 45.7765 5.10222
      vertex 118.718 46.5 5.40192
      vertex 118.718 45.7765 5.10222
    endloop
  endfacet
  facet normal 0 0.382701 -0.923872
    outer loop
      vertex 118.718 46.5 5.40192
      vertex 110.718 45.7765 5.10222
      vertex 110.718 46.5 5.40192
    endloop
  endfacet
  facet normal 0 0.793326 -0.608797
    outer loop
      vertex 118.718 47.1213 5.87868
      vertex 110.718 47.5981 6.5
      vertex 118.718 47.5981 6.5
    endloop
  endfacet
  facet normal 0 0.793326 -0.608797
    outer loop
      vertex 110.718 47.5981 6.5
      vertex 118.718 47.1213 5.87868
      vertex 110.718 47.1213 5.87868
    endloop
  endfacet
  facet normal 0 0.793316 0.608809
    outer loop
      vertex 118.718 47.5981 9.5
      vertex 110.718 47.1213 10.1213
      vertex 118.718 47.1213 10.1213
    endloop
  endfacet
  facet normal 0 0.793316 0.608809
    outer loop
      vertex 110.718 47.1213 10.1213
      vertex 118.718 47.5981 9.5
      vertex 110.718 47.5981 9.5
    endloop
  endfacet
  facet normal -0 0.608809 0.793316
    outer loop
      vertex 110.718 47.1213 10.1213
      vertex 118.718 46.5 10.5981
      vertex 118.718 47.1213 10.1213
    endloop
  endfacet
  facet normal 0 0.608809 0.793316
    outer loop
      vertex 118.718 46.5 10.5981
      vertex 110.718 47.1213 10.1213
      vertex 110.718 46.5 10.5981
    endloop
  endfacet
  facet normal 0 0.92388 0.382683
    outer loop
      vertex 118.718 47.8978 8.77646
      vertex 110.718 47.5981 9.5
      vertex 118.718 47.5981 9.5
    endloop
  endfacet
  facet normal 0 0.92388 0.382683
    outer loop
      vertex 110.718 47.5981 9.5
      vertex 118.718 47.8978 8.77646
      vertex 110.718 47.8978 8.77646
    endloop
  endfacet
  facet normal 0 0.608777 -0.793341
    outer loop
      vertex 110.718 46.5 5.40192
      vertex 118.718 47.1213 5.87868
      vertex 118.718 46.5 5.40192
    endloop
  endfacet
  facet normal 0 0.608777 -0.793341
    outer loop
      vertex 118.718 47.1213 5.87868
      vertex 110.718 46.5 5.40192
      vertex 110.718 47.1213 5.87868
    endloop
  endfacet
  facet normal 0 0.92388 -0.382683
    outer loop
      vertex 118.718 47.5981 6.5
      vertex 110.718 47.8978 7.22354
      vertex 118.718 47.8978 7.22354
    endloop
  endfacet
  facet normal 0 0.92388 -0.382683
    outer loop
      vertex 110.718 47.8978 7.22354
      vertex 118.718 47.5981 6.5
      vertex 110.718 47.5981 6.5
    endloop
  endfacet
  facet normal -0 0.382701 0.923872
    outer loop
      vertex 110.718 46.5 10.5981
      vertex 118.718 45.7765 10.8978
      vertex 118.718 46.5 10.5981
    endloop
  endfacet
  facet normal 0 0.382701 0.923872
    outer loop
      vertex 118.718 45.7765 10.8978
      vertex 110.718 46.5 10.5981
      vertex 110.718 45.7765 10.8978
    endloop
  endfacet
  facet normal 0 0.991449 0.130497
    outer loop
      vertex 118.718 48 8
      vertex 110.718 47.8978 8.77646
      vertex 118.718 47.8978 8.77646
    endloop
  endfacet
  facet normal 0 0.991449 0.130497
    outer loop
      vertex 110.718 47.8978 8.77646
      vertex 118.718 48 8
      vertex 110.718 48 8
    endloop
  endfacet
  facet normal 0 -0.608809 0.793316
    outer loop
      vertex 110.718 43.5 10.5981
      vertex 118.718 42.8787 10.1213
      vertex 118.718 43.5 10.5981
    endloop
  endfacet
  facet normal 0 -0.608809 0.793316
    outer loop
      vertex 118.718 42.8787 10.1213
      vertex 110.718 43.5 10.5981
      vertex 110.718 42.8787 10.1213
    endloop
  endfacet
  facet normal 0 -0.382701 -0.923872
    outer loop
      vertex 110.718 43.5 5.40192
      vertex 118.718 44.2235 5.10222
      vertex 118.718 43.5 5.40192
    endloop
  endfacet
  facet normal -0 -0.382701 -0.923872
    outer loop
      vertex 118.718 44.2235 5.10222
      vertex 110.718 43.5 5.40192
      vertex 110.718 44.2235 5.10222
    endloop
  endfacet
  facet normal 0 0.991449 -0.130497
    outer loop
      vertex 118.718 47.8978 7.22354
      vertex 110.718 48 8
      vertex 118.718 48 8
    endloop
  endfacet
  facet normal 0 0.991449 -0.130497
    outer loop
      vertex 110.718 48 8
      vertex 118.718 47.8978 7.22354
      vertex 110.718 47.8978 7.22354
    endloop
  endfacet
  facet normal 0 -0.793326 -0.608797
    outer loop
      vertex 110.718 42.8787 5.87868
      vertex 118.718 42.4019 6.5
      vertex 110.718 42.4019 6.5
    endloop
  endfacet
  facet normal 0 -0.793326 -0.608797
    outer loop
      vertex 118.718 42.4019 6.5
      vertex 110.718 42.8787 5.87868
      vertex 118.718 42.8787 5.87868
    endloop
  endfacet
  facet normal 0 -0.92388 -0.382683
    outer loop
      vertex 110.718 42.4019 6.5
      vertex 118.718 42.1022 7.22354
      vertex 110.718 42.1022 7.22354
    endloop
  endfacet
  facet normal 0 -0.92388 -0.382683
    outer loop
      vertex 118.718 42.1022 7.22354
      vertex 110.718 42.4019 6.5
      vertex 118.718 42.4019 6.5
    endloop
  endfacet
  facet normal 0 -0.130516 -0.991446
    outer loop
      vertex 110.718 44.2235 5.10222
      vertex 118.718 45 5
      vertex 118.718 44.2235 5.10222
    endloop
  endfacet
  facet normal -0 -0.130516 -0.991446
    outer loop
      vertex 118.718 45 5
      vertex 110.718 44.2235 5.10222
      vertex 110.718 45 5
    endloop
  endfacet
  facet normal 0 -0.991449 0.130497
    outer loop
      vertex 110.718 42 8
      vertex 118.718 42.1022 8.77646
      vertex 110.718 42.1022 8.77646
    endloop
  endfacet
  facet normal 0 -0.991449 0.130497
    outer loop
      vertex 118.718 42.1022 8.77646
      vertex 110.718 42 8
      vertex 118.718 42 8
    endloop
  endfacet
  facet normal 0 -0.793316 0.608809
    outer loop
      vertex 110.718 42.4019 9.5
      vertex 118.718 42.8787 10.1213
      vertex 110.718 42.8787 10.1213
    endloop
  endfacet
  facet normal 0 -0.793316 0.608809
    outer loop
      vertex 118.718 42.8787 10.1213
      vertex 110.718 42.4019 9.5
      vertex 118.718 42.4019 9.5
    endloop
  endfacet
  facet normal 0 -0.382701 0.923872
    outer loop
      vertex 110.718 44.2235 10.8978
      vertex 118.718 43.5 10.5981
      vertex 118.718 44.2235 10.8978
    endloop
  endfacet
  facet normal 0 -0.382701 0.923872
    outer loop
      vertex 118.718 43.5 10.5981
      vertex 110.718 44.2235 10.8978
      vertex 110.718 43.5 10.5981
    endloop
  endfacet
  facet normal 0 -0.130491 0.99145
    outer loop
      vertex 110.718 45 11
      vertex 118.718 44.2235 10.8978
      vertex 118.718 45 11
    endloop
  endfacet
  facet normal 0 -0.130491 0.99145
    outer loop
      vertex 118.718 44.2235 10.8978
      vertex 110.718 45 11
      vertex 110.718 44.2235 10.8978
    endloop
  endfacet
  facet normal 1 0 0
    outer loop
      vertex 118.718 47.8978 8.77646
      vertex 118.718 47.8978 7.22354
      vertex 118.718 48 8
    endloop
  endfacet
  facet normal 1 0 0
    outer loop
      vertex 118.718 47.5981 9.5
      vertex 118.718 47.8978 7.22354
      vertex 118.718 47.8978 8.77646
    endloop
  endfacet
  facet normal 1 0 0
    outer loop
      vertex 118.718 47.5981 9.5
      vertex 118.718 47.5981 6.5
      vertex 118.718 47.8978 7.22354
    endloop
  endfacet
  facet normal 1 0 0
    outer loop
      vertex 118.718 47.1213 10.1213
      vertex 118.718 47.5981 6.5
      vertex 118.718 47.5981 9.5
    endloop
  endfacet
  facet normal 1 0 0
    outer loop
      vertex 118.718 47.1213 10.1213
      vertex 118.718 47.1213 5.87868
      vertex 118.718 47.5981 6.5
    endloop
  endfacet
  facet normal 1 0 0
    outer loop
      vertex 118.718 46.5 10.5981
      vertex 118.718 47.1213 5.87868
      vertex 118.718 47.1213 10.1213
    endloop
  endfacet
  facet normal 1 0 0
    outer loop
      vertex 118.718 46.5 10.5981
      vertex 118.718 46.5 5.40192
      vertex 118.718 47.1213 5.87868
    endloop
  endfacet
  facet normal 1 0 0
    outer loop
      vertex 118.718 45.7765 10.8978
      vertex 118.718 46.5 5.40192
      vertex 118.718 46.5 10.5981
    endloop
  endfacet
  facet normal 1 0 0
    outer loop
      vertex 118.718 45.7765 10.8978
      vertex 118.718 45.7765 5.10222
      vertex 118.718 46.5 5.40192
    endloop
  endfacet
  facet normal 1 0 0
    outer loop
      vertex 118.718 45 11
      vertex 118.718 45.7765 5.10222
      vertex 118.718 45.7765 10.8978
    endloop
  endfacet
  facet normal 1 0 0
    outer loop
      vertex 118.718 45 11
      vertex 118.718 45 5
      vertex 118.718 45.7765 5.10222
    endloop
  endfacet
  facet normal 1 -0 0
    outer loop
      vertex 118.718 44.2235 10.8978
      vertex 118.718 45 5
      vertex 118.718 45 11
    endloop
  endfacet
  facet normal 1 0 0
    outer loop
      vertex 118.718 44.2235 10.8978
      vertex 118.718 44.2235 5.10222
      vertex 118.718 45 5
    endloop
  endfacet
  facet normal 1 -0 0
    outer loop
      vertex 118.718 43.5 10.5981
      vertex 118.718 44.2235 5.10222
      vertex 118.718 44.2235 10.8978
    endloop
  endfacet
  facet normal 1 0 0
    outer loop
      vertex 118.718 43.5 10.5981
      vertex 118.718 43.5 5.40192
      vertex 118.718 44.2235 5.10222
    endloop
  endfacet
  facet normal 1 -0 0
    outer loop
      vertex 118.718 42.8787 10.1213
      vertex 118.718 43.5 5.40192
      vertex 118.718 43.5 10.5981
    endloop
  endfacet
  facet normal 1 0 0
    outer loop
      vertex 118.718 42.8787 10.1213
      vertex 118.718 42.8787 5.87868
      vertex 118.718 43.5 5.40192
    endloop
  endfacet
  facet normal 1 -0 0
    outer loop
      vertex 118.718 42.4019 9.5
      vertex 118.718 42.8787 5.87868
      vertex 118.718 42.8787 10.1213
    endloop
  endfacet
  facet normal 1 0 0
    outer loop
      vertex 118.718 42.4019 9.5
      vertex 118.718 42.4019 6.5
      vertex 118.718 42.8787 5.87868
    endloop
  endfacet
  facet normal 1 -0 0
    outer loop
      vertex 118.718 42.1022 8.77646
      vertex 118.718 42.4019 6.5
      vertex 118.718 42.4019 9.5
    endloop
  endfacet
  facet normal 1 0 0
    outer loop
      vertex 118.718 42.1022 8.77646
      vertex 118.718 42.1022 7.22354
      vertex 118.718 42.4019 6.5
    endloop
  endfacet
  facet normal 1 0 -0
    outer loop
      vertex 118.718 42.1022 7.22354
      vertex 118.718 42.1022 8.77646
      vertex 118.718 42 8
    endloop
  endfacet
  facet normal 0 -0.92388 0.382683
    outer loop
      vertex 110.718 42.1022 8.77646
      vertex 118.718 42.4019 9.5
      vertex 110.718 42.4019 9.5
    endloop
  endfacet
  facet normal 0 -0.92388 0.382683
    outer loop
      vertex 118.718 42.4019 9.5
      vertex 110.718 42.1022 8.77646
      vertex 118.718 42.1022 8.77646
    endloop
  endfacet
  facet normal -0.258817 0 0.965926
    outer loop
      vertex 0 60 29.6667
      vertex 110.718 0 59.3333
      vertex 110.718 60 59.3333
    endloop
  endfacet
  facet normal -0.258817 0 0.965926
    outer loop
      vertex 110.718 0 59.3333
      vertex 0 60 29.6667
      vertex 0 0 29.6667
    endloop
  endfacet
  facet normal 0 -0.130528 0.991445
    outer loop
      vertex 0 15.8217 4.93318
      vertex 8.1 15 4.825
      vertex 8.1 15.8217 4.93318
    endloop
  endfacet
  facet normal 0 -0.130528 0.991445
    outer loop
      vertex 8.1 15 4.825
      vertex 0 15.8217 4.93318
      vertex 0 15 4.825
    endloop
  endfacet
  facet normal 0 0.130536 -0.991444
    outer loop
      vertex 0 14.1782 11.0668
      vertex 8.1 15 11.175
      vertex 8.1 14.1782 11.0668
    endloop
  endfacet
  facet normal 0 0.130536 -0.991444
    outer loop
      vertex 8.1 15 11.175
      vertex 0 14.1782 11.0668
      vertex 0 15 11.175
    endloop
  endfacet
  facet normal 0 -0.991443 -0.130543
    outer loop
      vertex 0 18.175 8
      vertex 8.1 18.0668 8.82175
      vertex 0 18.0668 8.82175
    endloop
  endfacet
  facet normal 0 -0.991443 -0.130543
    outer loop
      vertex 8.1 18.0668 8.82175
      vertex 0 18.175 8
      vertex 8.1 18.175 8
    endloop
  endfacet
  facet normal 0 0.793408 -0.60869
    outer loop
      vertex 8.1 12.2504 9.5875
      vertex 0 12.7549 10.2451
      vertex 8.1 12.7549 10.2451
    endloop
  endfacet
  facet normal 0 0.793408 -0.60869
    outer loop
      vertex 0 12.7549 10.2451
      vertex 8.1 12.2504 9.5875
      vertex 0 12.2504 9.5875
    endloop
  endfacet
  facet normal 0 -0.923873 0.3827
    outer loop
      vertex 0 17.7496 6.4125
      vertex 8.1 18.0668 7.17825
      vertex 0 18.0668 7.17825
    endloop
  endfacet
  facet normal 0 -0.923873 0.3827
    outer loop
      vertex 8.1 18.0668 7.17825
      vertex 0 17.7496 6.4125
      vertex 8.1 17.7496 6.4125
    endloop
  endfacet
  facet normal 0 -0.60869 -0.793408
    outer loop
      vertex 0 16.5875 10.7496
      vertex 8.1 17.2451 10.2451
      vertex 8.1 16.5875 10.7496
    endloop
  endfacet
  facet normal -0 -0.60869 -0.793408
    outer loop
      vertex 8.1 17.2451 10.2451
      vertex 0 16.5875 10.7496
      vertex 0 17.2451 10.2451
    endloop
  endfacet
  facet normal 0 -0.382679 -0.923882
    outer loop
      vertex 0 15.8217 11.0668
      vertex 8.1 16.5875 10.7496
      vertex 8.1 15.8217 11.0668
    endloop
  endfacet
  facet normal -0 -0.382679 -0.923882
    outer loop
      vertex 8.1 16.5875 10.7496
      vertex 0 15.8217 11.0668
      vertex 0 16.5875 10.7496
    endloop
  endfacet
  facet normal 0 -0.793408 -0.60869
    outer loop
      vertex 0 17.7496 9.5875
      vertex 8.1 17.2451 10.2451
      vertex 0 17.2451 10.2451
    endloop
  endfacet
  facet normal 0 -0.793408 -0.60869
    outer loop
      vertex 8.1 17.2451 10.2451
      vertex 0 17.7496 9.5875
      vertex 8.1 17.7496 9.5875
    endloop
  endfacet
  facet normal -0 0.382711 0.923868
    outer loop
      vertex 0 14.1782 4.93318
      vertex 8.1 13.4125 5.25037
      vertex 8.1 14.1782 4.93318
    endloop
  endfacet
  facet normal 0 0.382711 0.923868
    outer loop
      vertex 8.1 13.4125 5.25037
      vertex 0 14.1782 4.93318
      vertex 0 13.4125 5.25037
    endloop
  endfacet
  facet normal 0 0.923873 -0.3827
    outer loop
      vertex 8.1 11.9332 8.82175
      vertex 0 12.2504 9.5875
      vertex 8.1 12.2504 9.5875
    endloop
  endfacet
  facet normal 0 0.923873 -0.3827
    outer loop
      vertex 0 12.2504 9.5875
      vertex 8.1 11.9332 8.82175
      vertex 0 11.9332 8.82175
    endloop
  endfacet
  facet normal 0 0.60869 -0.793408
    outer loop
      vertex 0 12.7549 10.2451
      vertex 8.1 13.4125 10.7496
      vertex 8.1 12.7549 10.2451
    endloop
  endfacet
  facet normal 0 0.60869 -0.793408
    outer loop
      vertex 8.1 13.4125 10.7496
      vertex 0 12.7549 10.2451
      vertex 0 13.4125 10.7496
    endloop
  endfacet
  facet normal 0 -0.382668 0.923886
    outer loop
      vertex 0 16.5875 5.25037
      vertex 8.1 15.8217 4.93318
      vertex 8.1 16.5875 5.25037
    endloop
  endfacet
  facet normal 0 -0.382668 0.923886
    outer loop
      vertex 8.1 15.8217 4.93318
      vertex 0 16.5875 5.25037
      vertex 0 15.8217 4.93318
    endloop
  endfacet
  facet normal 0 -0.79339 0.608713
    outer loop
      vertex 0 17.2451 5.75494
      vertex 8.1 17.7496 6.4125
      vertex 0 17.7496 6.4125
    endloop
  endfacet
  facet normal 0 -0.79339 0.608713
    outer loop
      vertex 8.1 17.7496 6.4125
      vertex 0 17.2451 5.75494
      vertex 8.1 17.2451 5.75494
    endloop
  endfacet
  facet normal 0 -0.991443 0.130543
    outer loop
      vertex 0 18.0668 7.17825
      vertex 8.1 18.175 8
      vertex 0 18.175 8
    endloop
  endfacet
  facet normal 0 -0.991443 0.130543
    outer loop
      vertex 8.1 18.175 8
      vertex 0 18.0668 7.17825
      vertex 8.1 18.0668 7.17825
    endloop
  endfacet
  facet normal 0 -0.130551 -0.991442
    outer loop
      vertex 0 15 11.175
      vertex 8.1 15.8217 11.0668
      vertex 8.1 15 11.175
    endloop
  endfacet
  facet normal -0 -0.130551 -0.991442
    outer loop
      vertex 8.1 15.8217 11.0668
      vertex 0 15 11.175
      vertex 0 15.8217 11.0668
    endloop
  endfacet
  facet normal 0 -0.923873 -0.3827
    outer loop
      vertex 0 18.0668 8.82175
      vertex 8.1 17.7496 9.5875
      vertex 0 17.7496 9.5875
    endloop
  endfacet
  facet normal 0 -0.923873 -0.3827
    outer loop
      vertex 8.1 17.7496 9.5875
      vertex 0 18.0668 8.82175
      vertex 8.1 18.0668 8.82175
    endloop
  endfacet
  facet normal -0 0.130512 0.991447
    outer loop
      vertex 0 15 4.825
      vertex 8.1 14.1782 4.93318
      vertex 8.1 15 4.825
    endloop
  endfacet
  facet normal 0 0.130512 0.991447
    outer loop
      vertex 8.1 14.1782 4.93318
      vertex 0 15 4.825
      vertex 0 14.1782 4.93318
    endloop
  endfacet
  facet normal 0 0.923873 0.3827
    outer loop
      vertex 8.1 12.2504 6.4125
      vertex 0 11.9332 7.17825
      vertex 8.1 11.9332 7.17825
    endloop
  endfacet
  facet normal 0 0.923873 0.3827
    outer loop
      vertex 0 11.9332 7.17825
      vertex 8.1 12.2504 6.4125
      vertex 0 12.2504 6.4125
    endloop
  endfacet
  facet normal 0 0.991443 -0.130543
    outer loop
      vertex 8.1 11.825 8
      vertex 0 11.9332 8.82175
      vertex 8.1 11.9332 8.82175
    endloop
  endfacet
  facet normal 0 0.991443 -0.130543
    outer loop
      vertex 0 11.9332 8.82175
      vertex 8.1 11.825 8
      vertex 0 11.825 8
    endloop
  endfacet
  facet normal -1 0 0
    outer loop
      vertex 8.1 18.0668 7.17825
      vertex 8.1 18.0668 8.82175
      vertex 8.1 18.175 8
    endloop
  endfacet
  facet normal -1 0 0
    outer loop
      vertex 8.1 17.7496 6.4125
      vertex 8.1 18.0668 8.82175
      vertex 8.1 18.0668 7.17825
    endloop
  endfacet
  facet normal -1 0 0
    outer loop
      vertex 8.1 17.7496 6.4125
      vertex 8.1 17.7496 9.5875
      vertex 8.1 18.0668 8.82175
    endloop
  endfacet
  facet normal -1 0 0
    outer loop
      vertex 8.1 17.2451 5.75494
      vertex 8.1 17.7496 9.5875
      vertex 8.1 17.7496 6.4125
    endloop
  endfacet
  facet normal -1 0 0
    outer loop
      vertex 8.1 17.2451 5.75494
      vertex 8.1 17.2451 10.2451
      vertex 8.1 17.7496 9.5875
    endloop
  endfacet
  facet normal -1 0 0
    outer loop
      vertex 8.1 16.5875 5.25037
      vertex 8.1 17.2451 10.2451
      vertex 8.1 17.2451 5.75494
    endloop
  endfacet
  facet normal -1 0 0
    outer loop
      vertex 8.1 16.5875 5.25037
      vertex 8.1 16.5875 10.7496
      vertex 8.1 17.2451 10.2451
    endloop
  endfacet
  facet normal -1 0 0
    outer loop
      vertex 8.1 15.8217 4.93318
      vertex 8.1 16.5875 10.7496
      vertex 8.1 16.5875 5.25037
    endloop
  endfacet
  facet normal -1 0 0
    outer loop
      vertex 8.1 15.8217 4.93318
      vertex 8.1 15.8217 11.0668
      vertex 8.1 16.5875 10.7496
    endloop
  endfacet
  facet normal -1 0 0
    outer loop
      vertex 8.1 15 4.825
      vertex 8.1 15.8217 11.0668
      vertex 8.1 15.8217 4.93318
    endloop
  endfacet
  facet normal -1 0 0
    outer loop
      vertex 8.1 15 4.825
      vertex 8.1 15 11.175
      vertex 8.1 15.8217 11.0668
    endloop
  endfacet
  facet normal -1 0 0
    outer loop
      vertex 8.1 14.1782 4.93318
      vertex 8.1 15 11.175
      vertex 8.1 15 4.825
    endloop
  endfacet
  facet normal -1 0 0
    outer loop
      vertex 8.1 14.1782 4.93318
      vertex 8.1 14.1782 11.0668
      vertex 8.1 15 11.175
    endloop
  endfacet
  facet normal -1 0 0
    outer loop
      vertex 8.1 13.4125 5.25037
      vertex 8.1 14.1782 11.0668
      vertex 8.1 14.1782 4.93318
    endloop
  endfacet
  facet normal -1 0 0
    outer loop
      vertex 8.1 13.4125 5.25037
      vertex 8.1 13.4125 10.7496
      vertex 8.1 14.1782 11.0668
    endloop
  endfacet
  facet normal -1 0 0
    outer loop
      vertex 8.1 12.7549 5.75494
      vertex 8.1 13.4125 10.7496
      vertex 8.1 13.4125 5.25037
    endloop
  endfacet
  facet normal -1 0 0
    outer loop
      vertex 8.1 12.7549 5.75494
      vertex 8.1 12.7549 10.2451
      vertex 8.1 13.4125 10.7496
    endloop
  endfacet
  facet normal -1 0 0
    outer loop
      vertex 8.1 12.2504 6.4125
      vertex 8.1 12.7549 10.2451
      vertex 8.1 12.7549 5.75494
    endloop
  endfacet
  facet normal -1 0 0
    outer loop
      vertex 8.1 12.2504 6.4125
      vertex 8.1 12.2504 9.5875
      vertex 8.1 12.7549 10.2451
    endloop
  endfacet
  facet normal -1 0 0
    outer loop
      vertex 8.1 11.9332 7.17825
      vertex 8.1 12.2504 9.5875
      vertex 8.1 12.2504 6.4125
    endloop
  endfacet
  facet normal -1 0 0
    outer loop
      vertex 8.1 11.9332 7.17825
      vertex 8.1 11.9332 8.82175
      vertex 8.1 12.2504 9.5875
    endloop
  endfacet
  facet normal -1 0 -0
    outer loop
      vertex 8.1 11.9332 8.82175
      vertex 8.1 11.9332 7.17825
      vertex 8.1 11.825 8
    endloop
  endfacet
  facet normal 0 0.382721 -0.923864
    outer loop
      vertex 0 13.4125 10.7496
      vertex 8.1 14.1782 11.0668
      vertex 8.1 13.4125 10.7496
    endloop
  endfacet
  facet normal 0 0.382721 -0.923864
    outer loop
      vertex 8.1 14.1782 11.0668
      vertex 0 13.4125 10.7496
      vertex 0 14.1782 11.0668
    endloop
  endfacet
  facet normal 0 -0.608743 0.793367
    outer loop
      vertex 0 17.2451 5.75494
      vertex 8.1 16.5875 5.25037
      vertex 8.1 17.2451 5.75494
    endloop
  endfacet
  facet normal 0 -0.608743 0.793367
    outer loop
      vertex 8.1 16.5875 5.25037
      vertex 0 17.2451 5.75494
      vertex 0 16.5875 5.25037
    endloop
  endfacet
  facet normal -0 0.608743 0.793367
    outer loop
      vertex 0 13.4125 5.25037
      vertex 8.1 12.7549 5.75494
      vertex 8.1 13.4125 5.25037
    endloop
  endfacet
  facet normal 0 0.608743 0.793367
    outer loop
      vertex 8.1 12.7549 5.75494
      vertex 0 13.4125 5.25037
      vertex 0 12.7549 5.75494
    endloop
  endfacet
  facet normal 0 0.991443 0.130543
    outer loop
      vertex 8.1 11.9332 7.17825
      vertex 0 11.825 8
      vertex 8.1 11.825 8
    endloop
  endfacet
  facet normal 0 0.991443 0.130543
    outer loop
      vertex 0 11.825 8
      vertex 8.1 11.9332 7.17825
      vertex 0 11.9332 7.17825
    endloop
  endfacet
  facet normal 0 0.79339 0.608713
    outer loop
      vertex 8.1 12.7549 5.75494
      vertex 0 12.2504 6.4125
      vertex 8.1 12.2504 6.4125
    endloop
  endfacet
  facet normal 0 0.79339 0.608713
    outer loop
      vertex 0 12.2504 6.4125
      vertex 8.1 12.7549 5.75494
      vertex 0 12.7549 5.75494
    endloop
  endfacet
  facet normal 0 -0.130512 0.991447
    outer loop
      vertex 0 45.8218 4.93318
      vertex 8.1 45 4.825
      vertex 8.1 45.8218 4.93318
    endloop
  endfacet
  facet normal 0 -0.130512 0.991447
    outer loop
      vertex 8.1 45 4.825
      vertex 0 45.8218 4.93318
      vertex 0 45 4.825
    endloop
  endfacet
  facet normal 0 0.130536 -0.991444
    outer loop
      vertex 0 44.1782 11.0668
      vertex 8.1 45 11.175
      vertex 8.1 44.1782 11.0668
    endloop
  endfacet
  facet normal 0 0.130536 -0.991444
    outer loop
      vertex 8.1 45 11.175
      vertex 0 44.1782 11.0668
      vertex 0 45 11.175
    endloop
  endfacet
  facet normal 0 -0.991443 -0.130543
    outer loop
      vertex 0 48.175 8
      vertex 8.1 48.0668 8.82175
      vertex 0 48.0668 8.82175
    endloop
  endfacet
  facet normal 0 -0.991443 -0.130543
    outer loop
      vertex 8.1 48.0668 8.82175
      vertex 0 48.175 8
      vertex 8.1 48.175 8
    endloop
  endfacet
  facet normal 0 0.793408 -0.60869
    outer loop
      vertex 8.1 42.2504 9.5875
      vertex 0 42.7549 10.2451
      vertex 8.1 42.7549 10.2451
    endloop
  endfacet
  facet normal 0 0.793408 -0.60869
    outer loop
      vertex 0 42.7549 10.2451
      vertex 8.1 42.2504 9.5875
      vertex 0 42.2504 9.5875
    endloop
  endfacet
  facet normal 0 -0.923873 0.3827
    outer loop
      vertex 0 47.7496 6.4125
      vertex 8.1 48.0668 7.17825
      vertex 0 48.0668 7.17825
    endloop
  endfacet
  facet normal 0 -0.923873 0.3827
    outer loop
      vertex 8.1 48.0668 7.17825
      vertex 0 47.7496 6.4125
      vertex 8.1 47.7496 6.4125
    endloop
  endfacet
  facet normal 0 -0.60869 -0.793408
    outer loop
      vertex 0 46.5875 10.7496
      vertex 8.1 47.2451 10.2451
      vertex 8.1 46.5875 10.7496
    endloop
  endfacet
  facet normal -0 -0.60869 -0.793408
    outer loop
      vertex 8.1 47.2451 10.2451
      vertex 0 46.5875 10.7496
      vertex 0 47.2451 10.2451
    endloop
  endfacet
  facet normal 0 -0.382721 -0.923864
    outer loop
      vertex 0 45.8218 11.0668
      vertex 8.1 46.5875 10.7496
      vertex 8.1 45.8218 11.0668
    endloop
  endfacet
  facet normal -0 -0.382721 -0.923864
    outer loop
      vertex 8.1 46.5875 10.7496
      vertex 0 45.8218 11.0668
      vertex 0 46.5875 10.7496
    endloop
  endfacet
  facet normal 0 -0.793408 -0.60869
    outer loop
      vertex 0 47.7496 9.5875
      vertex 8.1 47.2451 10.2451
      vertex 0 47.2451 10.2451
    endloop
  endfacet
  facet normal 0 -0.793408 -0.60869
    outer loop
      vertex 8.1 47.2451 10.2451
      vertex 0 47.7496 9.5875
      vertex 8.1 47.7496 9.5875
    endloop
  endfacet
  facet normal -0 0.382711 0.923868
    outer loop
      vertex 0 44.1782 4.93318
      vertex 8.1 43.4125 5.25037
      vertex 8.1 44.1782 4.93318
    endloop
  endfacet
  facet normal 0 0.382711 0.923868
    outer loop
      vertex 8.1 43.4125 5.25037
      vertex 0 44.1782 4.93318
      vertex 0 43.4125 5.25037
    endloop
  endfacet
  facet normal 0 0.923873 -0.3827
    outer loop
      vertex 8.1 41.9332 8.82175
      vertex 0 42.2504 9.5875
      vertex 8.1 42.2504 9.5875
    endloop
  endfacet
  facet normal 0 0.923873 -0.3827
    outer loop
      vertex 0 42.2504 9.5875
      vertex 8.1 41.9332 8.82175
      vertex 0 41.9332 8.82175
    endloop
  endfacet
  facet normal 0 0.60869 -0.793408
    outer loop
      vertex 0 42.7549 10.2451
      vertex 8.1 43.4125 10.7496
      vertex 8.1 42.7549 10.2451
    endloop
  endfacet
  facet normal 0 0.60869 -0.793408
    outer loop
      vertex 8.1 43.4125 10.7496
      vertex 0 42.7549 10.2451
      vertex 0 43.4125 10.7496
    endloop
  endfacet
  facet normal 0 -0.382711 0.923868
    outer loop
      vertex 0 46.5875 5.25037
      vertex 8.1 45.8218 4.93318
      vertex 8.1 46.5875 5.25037
    endloop
  endfacet
  facet normal 0 -0.382711 0.923868
    outer loop
      vertex 8.1 45.8218 4.93318
      vertex 0 46.5875 5.25037
      vertex 0 45.8218 4.93318
    endloop
  endfacet
  facet normal 0 -0.79339 0.608713
    outer loop
      vertex 0 47.2451 5.75494
      vertex 8.1 47.7496 6.4125
      vertex 0 47.7496 6.4125
    endloop
  endfacet
  facet normal 0 -0.79339 0.608713
    outer loop
      vertex 8.1 47.7496 6.4125
      vertex 0 47.2451 5.75494
      vertex 8.1 47.2451 5.75494
    endloop
  endfacet
  facet normal 0 -0.991443 0.130543
    outer loop
      vertex 0 48.0668 7.17825
      vertex 8.1 48.175 8
      vertex 0 48.175 8
    endloop
  endfacet
  facet normal 0 -0.991443 0.130543
    outer loop
      vertex 8.1 48.175 8
      vertex 0 48.0668 7.17825
      vertex 8.1 48.0668 7.17825
    endloop
  endfacet
  facet normal 0 -0.130536 -0.991444
    outer loop
      vertex 0 45 11.175
      vertex 8.1 45.8218 11.0668
      vertex 8.1 45 11.175
    endloop
  endfacet
  facet normal -0 -0.130536 -0.991444
    outer loop
      vertex 8.1 45.8218 11.0668
      vertex 0 45 11.175
      vertex 0 45.8218 11.0668
    endloop
  endfacet
  facet normal 0 -0.923873 -0.3827
    outer loop
      vertex 0 48.0668 8.82175
      vertex 8.1 47.7496 9.5875
      vertex 0 47.7496 9.5875
    endloop
  endfacet
  facet normal 0 -0.923873 -0.3827
    outer loop
      vertex 8.1 47.7496 9.5875
      vertex 0 48.0668 8.82175
      vertex 8.1 48.0668 8.82175
    endloop
  endfacet
  facet normal -0 0.130512 0.991447
    outer loop
      vertex 0 45 4.825
      vertex 8.1 44.1782 4.93318
      vertex 8.1 45 4.825
    endloop
  endfacet
  facet normal 0 0.130512 0.991447
    outer loop
      vertex 8.1 44.1782 4.93318
      vertex 0 45 4.825
      vertex 0 44.1782 4.93318
    endloop
  endfacet
  facet normal 0 0.923873 0.3827
    outer loop
      vertex 8.1 42.2504 6.4125
      vertex 0 41.9332 7.17825
      vertex 8.1 41.9332 7.17825
    endloop
  endfacet
  facet normal 0 0.923873 0.3827
    outer loop
      vertex 0 41.9332 7.17825
      vertex 8.1 42.2504 6.4125
      vertex 0 42.2504 6.4125
    endloop
  endfacet
  facet normal 0 0.991443 -0.130543
    outer loop
      vertex 8.1 41.825 8
      vertex 0 41.9332 8.82175
      vertex 8.1 41.9332 8.82175
    endloop
  endfacet
  facet normal 0 0.991443 -0.130543
    outer loop
      vertex 0 41.9332 8.82175
      vertex 8.1 41.825 8
      vertex 0 41.825 8
    endloop
  endfacet
  facet normal -1 0 0
    outer loop
      vertex 8.1 48.0668 7.17825
      vertex 8.1 48.0668 8.82175
      vertex 8.1 48.175 8
    endloop
  endfacet
  facet normal -1 0 0
    outer loop
      vertex 8.1 47.7496 6.4125
      vertex 8.1 48.0668 8.82175
      vertex 8.1 48.0668 7.17825
    endloop
  endfacet
  facet normal -1 0 0
    outer loop
      vertex 8.1 47.7496 6.4125
      vertex 8.1 47.7496 9.5875
      vertex 8.1 48.0668 8.82175
    endloop
  endfacet
  facet normal -1 0 0
    outer loop
      vertex 8.1 47.2451 5.75494
      vertex 8.1 47.7496 9.5875
      vertex 8.1 47.7496 6.4125
    endloop
  endfacet
  facet normal -1 0 0
    outer loop
      vertex 8.1 47.2451 5.75494
      vertex 8.1 47.2451 10.2451
      vertex 8.1 47.7496 9.5875
    endloop
  endfacet
  facet normal -1 0 0
    outer loop
      vertex 8.1 46.5875 5.25037
      vertex 8.1 47.2451 10.2451
      vertex 8.1 47.2451 5.75494
    endloop
  endfacet
  facet normal -1 0 0
    outer loop
      vertex 8.1 46.5875 5.25037
      vertex 8.1 46.5875 10.7496
      vertex 8.1 47.2451 10.2451
    endloop
  endfacet
  facet normal -1 0 0
    outer loop
      vertex 8.1 45.8218 4.93318
      vertex 8.1 46.5875 10.7496
      vertex 8.1 46.5875 5.25037
    endloop
  endfacet
  facet normal -1 0 0
    outer loop
      vertex 8.1 45.8218 4.93318
      vertex 8.1 45.8218 11.0668
      vertex 8.1 46.5875 10.7496
    endloop
  endfacet
  facet normal -1 0 0
    outer loop
      vertex 8.1 45 4.825
      vertex 8.1 45.8218 11.0668
      vertex 8.1 45.8218 4.93318
    endloop
  endfacet
  facet normal -1 0 0
    outer loop
      vertex 8.1 45 4.825
      vertex 8.1 45 11.175
      vertex 8.1 45.8218 11.0668
    endloop
  endfacet
  facet normal -1 0 0
    outer loop
      vertex 8.1 44.1782 4.93318
      vertex 8.1 45 11.175
      vertex 8.1 45 4.825
    endloop
  endfacet
  facet normal -1 0 0
    outer loop
      vertex 8.1 44.1782 4.93318
      vertex 8.1 44.1782 11.0668
      vertex 8.1 45 11.175
    endloop
  endfacet
  facet normal -1 0 0
    outer loop
      vertex 8.1 43.4125 5.25037
      vertex 8.1 44.1782 11.0668
      vertex 8.1 44.1782 4.93318
    endloop
  endfacet
  facet normal -1 0 0
    outer loop
      vertex 8.1 43.4125 5.25037
      vertex 8.1 43.4125 10.7496
      vertex 8.1 44.1782 11.0668
    endloop
  endfacet
  facet normal -1 0 0
    outer loop
      vertex 8.1 42.7549 5.75494
      vertex 8.1 43.4125 10.7496
      vertex 8.1 43.4125 5.25037
    endloop
  endfacet
  facet normal -1 0 0
    outer loop
      vertex 8.1 42.7549 5.75494
      vertex 8.1 42.7549 10.2451
      vertex 8.1 43.4125 10.7496
    endloop
  endfacet
  facet normal -1 0 0
    outer loop
      vertex 8.1 42.2504 6.4125
      vertex 8.1 42.7549 10.2451
      vertex 8.1 42.7549 5.75494
    endloop
  endfacet
  facet normal -1 0 0
    outer loop
      vertex 8.1 42.2504 6.4125
      vertex 8.1 42.2504 9.5875
      vertex 8.1 42.7549 10.2451
    endloop
  endfacet
  facet normal -1 0 0
    outer loop
      vertex 8.1 41.9332 7.17825
      vertex 8.1 42.2504 9.5875
      vertex 8.1 42.2504 6.4125
    endloop
  endfacet
  facet normal -1 0 0
    outer loop
      vertex 8.1 41.9332 7.17825
      vertex 8.1 41.9332 8.82175
      vertex 8.1 42.2504 9.5875
    endloop
  endfacet
  facet normal -1 0 -0
    outer loop
      vertex 8.1 41.9332 8.82175
      vertex 8.1 41.9332 7.17825
      vertex 8.1 41.825 8
    endloop
  endfacet
  facet normal 0 0.382721 -0.923864
    outer loop
      vertex 0 43.4125 10.7496
      vertex 8.1 44.1782 11.0668
      vertex 8.1 43.4125 10.7496
    endloop
  endfacet
  facet normal 0 0.382721 -0.923864
    outer loop
      vertex 8.1 44.1782 11.0668
      vertex 0 43.4125 10.7496
      vertex 0 44.1782 11.0668
    endloop
  endfacet
  facet normal 0 -0.608743 0.793367
    outer loop
      vertex 0 47.2451 5.75494
      vertex 8.1 46.5875 5.25037
      vertex 8.1 47.2451 5.75494
    endloop
  endfacet
  facet normal 0 -0.608743 0.793367
    outer loop
      vertex 8.1 46.5875 5.25037
      vertex 0 47.2451 5.75494
      vertex 0 46.5875 5.25037
    endloop
  endfacet
  facet normal -0 0.608743 0.793367
    outer loop
      vertex 0 43.4125 5.25037
      vertex 8.1 42.7549 5.75494
      vertex 8.1 43.4125 5.25037
    endloop
  endfacet
  facet normal 0 0.608743 0.793367
    outer loop
      vertex 8.1 42.7549 5.75494
      vertex 0 43.4125 5.25037
      vertex 0 42.7549 5.75494
    endloop
  endfacet
  facet normal 0 0.991443 0.130543
    outer loop
      vertex 8.1 41.9332 7.17825
      vertex 0 41.825 8
      vertex 8.1 41.825 8
    endloop
  endfacet
  facet normal 0 0.991443 0.130543
    outer loop
      vertex 0 41.825 8
      vertex 8.1 41.9332 7.17825
      vertex 0 41.9332 7.17825
    endloop
  endfacet
  facet normal 0 0.79339 0.608713
    outer loop
      vertex 8.1 42.7549 5.75494
      vertex 0 42.2504 6.4125
      vertex 8.1 42.2504 6.4125
    endloop
  endfacet
  facet normal 0 0.79339 0.608713
    outer loop
      vertex 0 42.2504 6.4125
      vertex 8.1 42.7549 5.75494
      vertex 0 42.7549 5.75494
    endloop
  endfacet
endsolid OpenSCAD_Model
