solid OpenSCAD_Model
  facet normal 0 0 -1
    outer loop
      vertex 0 -6 0
      vertex 108.229 66 0
      vertex 108.229 -6 0
    endloop
  endfacet
  facet normal -0 0 -1
    outer loop
      vertex 108.229 66 0
      vertex 0 -6 0
      vertex 0 66 0
    endloop
  endfacet
  facet normal 1 0 0
    outer loop
      vertex 108.229 0 99
      vertex 108.229 -6 99
      vertex 108.229 0 87
    endloop
  endfacet
  facet normal 1 0 0
    outer loop
      vertex 108.229 60 87
      vertex 108.229 66 99
      vertex 108.229 60 99
    endloop
  endfacet
  facet normal 1 0 0
    outer loop
      vertex 108.229 66 99
      vertex 108.229 60 87
      vertex 108.229 66 0
    endloop
  endfacet
  facet normal 1 -0 0
    outer loop
      vertex 108.229 0 87
      vertex 108.229 66 0
      vertex 108.229 60 87
    endloop
  endfacet
  facet normal 1 0 0
    outer loop
      vertex 108.229 0 87
      vertex 108.229 -6 0
      vertex 108.229 66 0
    endloop
  endfacet
  facet normal 1 0 0
    outer loop
      vertex 108.229 -6 0
      vertex 108.229 0 87
      vertex 108.229 -6 99
    endloop
  endfacet
  facet normal 0 -1 0
    outer loop
      vertex 108.229 -6 0
      vertex 0 -6 70
      vertex 0 -6 0
    endloop
  endfacet
  facet normal 0 -1 0
    outer loop
      vertex 0 -6 70
      vertex 108.229 -6 0
      vertex 108.229 -6 99
    endloop
  endfacet
  facet normal -0.25882 0 0.965926
    outer loop
      vertex 0 0 70
      vertex 108.229 -6 99
      vertex 108.229 0 99
    endloop
  endfacet
  facet normal -0.25882 0 0.965926
    outer loop
      vertex 108.229 -6 99
      vertex 0 0 70
      vertex 0 -6 70
    endloop
  endfacet
  facet normal -1 0 0
    outer loop
      vertex 0 66 0
      vertex 0 60 58
      vertex 0 66 70
    endloop
  endfacet
  facet normal -1 0 0
    outer loop
      vertex 0 66 0
      vertex 0 0 58
      vertex 0 60 58
    endloop
  endfacet
  facet normal -1 0 0
    outer loop
      vertex 0 -6 0
      vertex 0 0 58
      vertex 0 66 0
    endloop
  endfacet
  facet normal -1 0 0
    outer loop
      vertex 0 -6 70
      vertex 0 0 58
      vertex 0 -6 0
    endloop
  endfacet
  facet normal -1 0 0
    outer loop
      vertex 0 0 58
      vertex 0 -6 70
      vertex 0 0 70
    endloop
  endfacet
  facet normal -1 -0 0
    outer loop
      vertex 0 66 70
      vertex 0 60 58
      vertex 0 60 70
    endloop
  endfacet
  facet normal 0 1 -0
    outer loop
      vertex 108.229 0 87
      vertex 0 0 70
      vertex 108.229 0 99
    endloop
  endfacet
  facet normal -0 1 0
    outer loop
      vertex 0 0 70
      vertex 108.229 0 87
      vertex 0 0 58
    endloop
  endfacet
  facet normal 0 -1 0
    outer loop
      vertex 0 60 70
      vertex 108.229 60 87
      vertex 108.229 60 99
    endloop
  endfacet
  facet normal 0 -1 0
    outer loop
      vertex 108.229 60 87
      vertex 0 60 70
      vertex 0 60 58
    endloop
  endfacet
  facet normal -0.25882 0 0.965926
    outer loop
      vertex 0 66 70
      vertex 108.229 60 99
      vertex 108.229 66 99
    endloop
  endfacet
  facet normal -0.25882 0 0.965926
    outer loop
      vertex 108.229 60 99
      vertex 0 66 70
      vertex 0 60 70
    endloop
  endfacet
  facet normal 0 1 -0
    outer loop
      vertex 108.229 66 0
      vertex 0 66 70
      vertex 108.229 66 99
    endloop
  endfacet
  facet normal 0 1 0
    outer loop
      vertex 0 66 70
      vertex 108.229 66 0
      vertex 0 66 0
    endloop
  endfacet
  facet normal -0.25882 0 0.965926
    outer loop
      vertex 0 60 58
      vertex 108.229 0 87
      vertex 108.229 60 87
    endloop
  endfacet
  facet normal -0.25882 0 0.965926
    outer loop
      vertex 108.229 0 87
      vertex 0 60 58
      vertex 0 0 58
    endloop
  endfacet
endsolid OpenSCAD_Model
