solid OpenSCAD_Model
  facet normal 0 -1 0
    outer loop
      vertex 31 0 22
      vertex 39.5764 0 17.9527
      vertex 40.8042 0 22
    endloop
  endfacet
  facet normal 0 -1 0
    outer loop
      vertex 31 0 22
      vertex 39 0 12.1
      vertex 39.5764 0 17.9527
    endloop
  endfacet
  facet normal 0 -1 0
    outer loop
      vertex 31 0 22
      vertex 39.5764 0 6.24729
      vertex 39 0 12.1
    endloop
  endfacet
  facet normal 0 -1 0
    outer loop
      vertex 0 0 1
      vertex 39.5764 0 6.24729
      vertex 31 0 22
    endloop
  endfacet
  facet normal 0 -1 0
    outer loop
      vertex 0 0 0
      vertex 39.5764 0 6.24729
      vertex 0 0 1
    endloop
  endfacet
  facet normal 0 -1 -0
    outer loop
      vertex 39.5764 0 6.24729
      vertex 0 0 0
      vertex 41.2836 0 0.619496
    endloop
  endfacet
  facet normal 0 -1 -0
    outer loop
      vertex 41.2836 0 0.619496
      vertex 0 0 0
      vertex 41.6147 0 0
    endloop
  endfacet
  facet normal -0 0 1
    outer loop
      vertex 31 24 22
      vertex 40.8042 0 22
      vertex 40.8042 24 22
    endloop
  endfacet
  facet normal 0 0 1
    outer loop
      vertex 40.8042 0 22
      vertex 31 24 22
      vertex 31 0 22
    endloop
  endfacet
  facet normal -1 0 0
    outer loop
      vertex 0 0 0
      vertex 0 24 1
      vertex 0 24 0
    endloop
  endfacet
  facet normal -1 -0 0
    outer loop
      vertex 0 24 1
      vertex 0 0 0
      vertex 0 0 1
    endloop
  endfacet
  facet normal 0 1 -0
    outer loop
      vertex 39.5764 24 17.9527
      vertex 31 24 22
      vertex 40.8042 24 22
    endloop
  endfacet
  facet normal 0 1 -0
    outer loop
      vertex 39 24 12.1
      vertex 31 24 22
      vertex 39.5764 24 17.9527
    endloop
  endfacet
  facet normal 0 1 0
    outer loop
      vertex 39.5764 24 6.24729
      vertex 31 24 22
      vertex 39 24 12.1
    endloop
  endfacet
  facet normal 0 1 0
    outer loop
      vertex 39.5764 24 6.24729
      vertex 0 24 1
      vertex 31 24 22
    endloop
  endfacet
  facet normal 0 1 0
    outer loop
      vertex 0 24 0
      vertex 39.5764 24 6.24729
      vertex 41.2836 24 0.619496
    endloop
  endfacet
  facet normal 0 1 0
    outer loop
      vertex 0 24 0
      vertex 41.2836 24 0.619496
      vertex 41.6147 24 0
    endloop
  endfacet
  facet normal 0 1 0
    outer loop
      vertex 39.5764 24 6.24729
      vertex 0 24 0
      vertex 0 24 1
    endloop
  endfacet
  facet normal -0.560849 0 0.827918
    outer loop
      vertex 31 24 22
      vertex 16 12 11.8387
      vertex 31 0 22
    endloop
  endfacet
  facet normal -0.560852 6.29551e-06 0.827916
    outer loop
      vertex 31 24 22
      vertex 15.9231 12.7804 11.7866
      vertex 16 12 11.8387
    endloop
  endfacet
  facet normal -0.560858 1.72046e-05 0.827912
    outer loop
      vertex 31 24 22
      vertex 15.6955 13.5307 11.6324
      vertex 15.9231 12.7804 11.7866
    endloop
  endfacet
  facet normal -0.56086 2.18713e-05 0.827911
    outer loop
      vertex 31 24 22
      vertex 15.3259 14.2223 11.382
      vertex 15.6955 13.5307 11.6324
    endloop
  endfacet
  facet normal -0.560805 -0.000106672 0.827948
    outer loop
      vertex 31 24 22
      vertex 14.8284 14.8284 11.0451
      vertex 15.3259 14.2223 11.382
    endloop
  endfacet
  facet normal -0.560891 0.000116308 0.827889
    outer loop
      vertex 31 24 22
      vertex 14.2223 15.3259 10.6344
      vertex 14.8284 14.8284 11.0451
    endloop
  endfacet
  facet normal -0.560808 -0.00012041 0.827946
    outer loop
      vertex 31 24 22
      vertex 13.5307 15.6955 10.166
      vertex 14.2223 15.3259 10.6344
    endloop
  endfacet
  facet normal -0.560881 0.000104939 0.827896
    outer loop
      vertex 31 24 22
      vertex 12.7804 15.9231 9.65766
      vertex 13.5307 15.6955 10.166
    endloop
  endfacet
  facet normal -0.560848 -3.1082e-06 0.827919
    outer loop
      vertex 0 24 1
      vertex 12.7804 15.9231 9.65766
      vertex 31 24 22
    endloop
  endfacet
  facet normal -0.560824 5.21329e-05 0.827935
    outer loop
      vertex 12.7804 15.9231 9.65766
      vertex 0 24 1
      vertex 12 16 9.12903
    endloop
  endfacet
  facet normal -0.56083 3.87059e-05 0.827931
    outer loop
      vertex 12 16 9.12903
      vertex 0 24 1
      vertex 11.2196 15.9231 8.6004
    endloop
  endfacet
  facet normal -0.560851 -3.32286e-06 0.827917
    outer loop
      vertex 8.07686 12.7804 6.47142
      vertex 0 24 1
      vertex 8 12 6.41935
    endloop
  endfacet
  facet normal -0.560852 -4.53578e-06 0.827916
    outer loop
      vertex 8.30448 13.5307 6.62562
      vertex 0 24 1
      vertex 8.07686 12.7804 6.47142
    endloop
  endfacet
  facet normal -0.560848 1.06661e-06 0.827919
    outer loop
      vertex 8.67412 14.2223 6.87602
      vertex 0 24 1
      vertex 8.30448 13.5307 6.62562
    endloop
  endfacet
  facet normal -0.560847 1.73345e-06 0.827919
    outer loop
      vertex 9.17157 14.8284 7.213
      vertex 0 24 1
      vertex 8.67412 14.2223 6.87602
    endloop
  endfacet
  facet normal -0.560849 -1.64594e-06 0.827918
    outer loop
      vertex 9.77772 15.3259 7.62362
      vertex 0 24 1
      vertex 9.17157 14.8284 7.213
    endloop
  endfacet
  facet normal -0.560833 2.51848e-05 0.827929
    outer loop
      vertex 10.4693 15.6955 8.09208
      vertex 0 24 1
      vertex 9.77772 15.3259 7.62362
    endloop
  endfacet
  facet normal -0.560876 -5.44923e-05 0.8279
    outer loop
      vertex 11.2196 15.9231 8.6004
      vertex 0 24 1
      vertex 10.4693 15.6955 8.09208
    endloop
  endfacet
  facet normal -0.560852 -6.29551e-06 0.827916
    outer loop
      vertex 15.9231 11.2196 11.7866
      vertex 31 0 22
      vertex 16 12 11.8387
    endloop
  endfacet
  facet normal -0.560858 -1.72046e-05 0.827912
    outer loop
      vertex 15.6955 10.4693 11.6324
      vertex 31 0 22
      vertex 15.9231 11.2196 11.7866
    endloop
  endfacet
  facet normal -0.56086 -2.18718e-05 0.827911
    outer loop
      vertex 15.3259 9.77772 11.382
      vertex 31 0 22
      vertex 15.6955 10.4693 11.6324
    endloop
  endfacet
  facet normal -0.560805 0.000106666 0.827948
    outer loop
      vertex 14.8284 9.17157 11.0451
      vertex 31 0 22
      vertex 15.3259 9.77772 11.382
    endloop
  endfacet
  facet normal -0.560891 -0.000116315 0.827889
    outer loop
      vertex 14.2223 8.67412 10.6344
      vertex 31 0 22
      vertex 14.8284 9.17157 11.0451
    endloop
  endfacet
  facet normal -0.560808 0.000120403 0.827946
    outer loop
      vertex 13.5307 8.30448 10.166
      vertex 31 0 22
      vertex 14.2223 8.67412 10.6344
    endloop
  endfacet
  facet normal -0.560881 -0.000104936 0.827896
    outer loop
      vertex 12.7804 8.07686 9.65766
      vertex 31 0 22
      vertex 13.5307 8.30448 10.166
    endloop
  endfacet
  facet normal -0.560824 -5.21282e-05 0.827935
    outer loop
      vertex 0 0 1
      vertex 12.7804 8.07686 9.65766
      vertex 12 8 9.12903
    endloop
  endfacet
  facet normal -0.56083 -3.87085e-05 0.827931
    outer loop
      vertex 0 0 1
      vertex 12 8 9.12903
      vertex 11.2196 8.07686 8.6004
    endloop
  endfacet
  facet normal -0.560876 5.44911e-05 0.8279
    outer loop
      vertex 0 0 1
      vertex 11.2196 8.07686 8.6004
      vertex 10.4693 8.30448 8.09208
    endloop
  endfacet
  facet normal -0.560848 0 0.827919
    outer loop
      vertex 0 0 1
      vertex 8 12 6.41935
      vertex 0 24 1
    endloop
  endfacet
  facet normal -0.560851 3.32286e-06 0.827917
    outer loop
      vertex 8 12 6.41935
      vertex 0 0 1
      vertex 8.07686 11.2196 6.47142
    endloop
  endfacet
  facet normal -0.560852 4.53578e-06 0.827916
    outer loop
      vertex 8.07686 11.2196 6.47142
      vertex 0 0 1
      vertex 8.30448 10.4693 6.62562
    endloop
  endfacet
  facet normal -0.560848 3.10822e-06 0.827919
    outer loop
      vertex 12.7804 8.07686 9.65766
      vertex 0 0 1
      vertex 31 0 22
    endloop
  endfacet
  facet normal -0.560833 -2.51837e-05 0.827929
    outer loop
      vertex 9.77772 8.67412 7.62362
      vertex 0 0 1
      vertex 10.4693 8.30448 8.09208
    endloop
  endfacet
  facet normal -0.560849 1.64601e-06 0.827918
    outer loop
      vertex 9.17157 9.17157 7.213
      vertex 0 0 1
      vertex 9.77772 8.67412 7.62362
    endloop
  endfacet
  facet normal -0.560847 -1.73337e-06 0.827919
    outer loop
      vertex 8.67412 9.77772 6.87602
      vertex 0 0 1
      vertex 9.17157 9.17157 7.213
    endloop
  endfacet
  facet normal -0.560848 -1.06663e-06 0.827919
    outer loop
      vertex 8.30448 10.4693 6.62562
      vertex 0 0 1
      vertex 8.67412 9.77772 6.87602
    endloop
  endfacet
  facet normal 0 0 -1
    outer loop
      vertex 41.6147 0 0
      vertex 16 12 0
      vertex 41.6147 24 0
    endloop
  endfacet
  facet normal 0 0 -1
    outer loop
      vertex 41.6147 0 0
      vertex 15.9231 11.2196 0
      vertex 16 12 0
    endloop
  endfacet
  facet normal 0 0 -1
    outer loop
      vertex 41.6147 0 0
      vertex 15.6955 10.4693 0
      vertex 15.9231 11.2196 0
    endloop
  endfacet
  facet normal 0 0 -1
    outer loop
      vertex 41.6147 0 0
      vertex 15.3259 9.77772 0
      vertex 15.6955 10.4693 0
    endloop
  endfacet
  facet normal 0 0 -1
    outer loop
      vertex 41.6147 0 0
      vertex 14.8284 9.17157 0
      vertex 15.3259 9.77772 0
    endloop
  endfacet
  facet normal 0 0 -1
    outer loop
      vertex 41.6147 0 0
      vertex 14.2223 8.67412 0
      vertex 14.8284 9.17157 0
    endloop
  endfacet
  facet normal 0 0 -1
    outer loop
      vertex 41.6147 0 0
      vertex 13.5307 8.30448 0
      vertex 14.2223 8.67412 0
    endloop
  endfacet
  facet normal 0 0 -1
    outer loop
      vertex 41.6147 0 0
      vertex 12.7804 8.07686 0
      vertex 13.5307 8.30448 0
    endloop
  endfacet
  facet normal 0 0 -1
    outer loop
      vertex 0 0 0
      vertex 12.7804 8.07686 0
      vertex 41.6147 0 0
    endloop
  endfacet
  facet normal 0 0 -1
    outer loop
      vertex 12.7804 8.07686 0
      vertex 0 0 0
      vertex 12 8 0
    endloop
  endfacet
  facet normal -0 0 -1
    outer loop
      vertex 8.07686 11.2196 0
      vertex 0 0 0
      vertex 8 12 0
    endloop
  endfacet
  facet normal -0 0 -1
    outer loop
      vertex 8.30448 10.4693 0
      vertex 0 0 0
      vertex 8.07686 11.2196 0
    endloop
  endfacet
  facet normal -0 0 -1
    outer loop
      vertex 8.67412 9.77772 0
      vertex 0 0 0
      vertex 8.30448 10.4693 0
    endloop
  endfacet
  facet normal -0 0 -1
    outer loop
      vertex 9.17157 9.17157 0
      vertex 0 0 0
      vertex 8.67412 9.77772 0
    endloop
  endfacet
  facet normal -0 0 -1
    outer loop
      vertex 9.77772 8.67412 0
      vertex 0 0 0
      vertex 9.17157 9.17157 0
    endloop
  endfacet
  facet normal -0 0 -1
    outer loop
      vertex 10.4693 8.30448 0
      vertex 0 0 0
      vertex 9.77772 8.67412 0
    endloop
  endfacet
  facet normal -0 0 -1
    outer loop
      vertex 11.2196 8.07686 0
      vertex 0 0 0
      vertex 10.4693 8.30448 0
    endloop
  endfacet
  facet normal -0 0 -1
    outer loop
      vertex 12 8 0
      vertex 0 0 0
      vertex 11.2196 8.07686 0
    endloop
  endfacet
  facet normal 0 0 -1
    outer loop
      vertex 15.9231 12.7804 0
      vertex 41.6147 24 0
      vertex 16 12 0
    endloop
  endfacet
  facet normal 0 0 -1
    outer loop
      vertex 15.6955 13.5307 0
      vertex 41.6147 24 0
      vertex 15.9231 12.7804 0
    endloop
  endfacet
  facet normal 0 0 -1
    outer loop
      vertex 15.3259 14.2223 0
      vertex 41.6147 24 0
      vertex 15.6955 13.5307 0
    endloop
  endfacet
  facet normal 0 0 -1
    outer loop
      vertex 14.8284 14.8284 0
      vertex 41.6147 24 0
      vertex 15.3259 14.2223 0
    endloop
  endfacet
  facet normal 0 0 -1
    outer loop
      vertex 14.2223 15.3259 0
      vertex 41.6147 24 0
      vertex 14.8284 14.8284 0
    endloop
  endfacet
  facet normal 0 0 -1
    outer loop
      vertex 13.5307 15.6955 0
      vertex 41.6147 24 0
      vertex 14.2223 15.3259 0
    endloop
  endfacet
  facet normal 0 0 -1
    outer loop
      vertex 12.7804 15.9231 0
      vertex 41.6147 24 0
      vertex 13.5307 15.6955 0
    endloop
  endfacet
  facet normal 0 0 -1
    outer loop
      vertex 0 24 0
      vertex 12.7804 15.9231 0
      vertex 12 16 0
    endloop
  endfacet
  facet normal 0 0 -1
    outer loop
      vertex 0 24 0
      vertex 12 16 0
      vertex 11.2196 15.9231 0
    endloop
  endfacet
  facet normal 0 0 -1
    outer loop
      vertex 0 24 0
      vertex 8 12 0
      vertex 0 0 0
    endloop
  endfacet
  facet normal 0 0 -1
    outer loop
      vertex 8 12 0
      vertex 0 24 0
      vertex 8.07686 12.7804 0
    endloop
  endfacet
  facet normal 0 0 -1
    outer loop
      vertex 8.07686 12.7804 0
      vertex 0 24 0
      vertex 8.30448 13.5307 0
    endloop
  endfacet
  facet normal 0 0 -1
    outer loop
      vertex 12.7804 15.9231 0
      vertex 0 24 0
      vertex 41.6147 24 0
    endloop
  endfacet
  facet normal 0 0 -1
    outer loop
      vertex 10.4693 15.6955 0
      vertex 0 24 0
      vertex 11.2196 15.9231 0
    endloop
  endfacet
  facet normal 0 0 -1
    outer loop
      vertex 9.77772 15.3259 0
      vertex 0 24 0
      vertex 10.4693 15.6955 0
    endloop
  endfacet
  facet normal 0 0 -1
    outer loop
      vertex 9.17157 14.8284 0
      vertex 0 24 0
      vertex 9.77772 15.3259 0
    endloop
  endfacet
  facet normal 0 0 -1
    outer loop
      vertex 8.67412 14.2223 0
      vertex 0 24 0
      vertex 9.17157 14.8284 0
    endloop
  endfacet
  facet normal 0 0 -1
    outer loop
      vertex 8.30448 13.5307 0
      vertex 0 24 0
      vertex 8.67412 14.2223 0
    endloop
  endfacet
  facet normal 0.956939 -0 0.290289
    outer loop
      vertex 39.5764 0 6.24729
      vertex 41.2836 24 0.619496
      vertex 39.5764 24 6.24729
    endloop
  endfacet
  facet normal 0.956939 0 0.290289
    outer loop
      vertex 41.2836 24 0.619496
      vertex 39.5764 0 6.24729
      vertex 41.2836 0 0.619496
    endloop
  endfacet
  facet normal 0.881938 -0 0.471366
    outer loop
      vertex 41.2836 0 0.619496
      vertex 41.6147 24 0
      vertex 41.2836 24 0.619496
    endloop
  endfacet
  facet normal 0.881938 0 0.471366
    outer loop
      vertex 41.6147 24 0
      vertex 41.2836 0 0.619496
      vertex 41.6147 0 0
    endloop
  endfacet
  facet normal 0.995185 -0 0.0980101
    outer loop
      vertex 39 0 12.1
      vertex 39.5764 24 6.24729
      vertex 39 24 12.1
    endloop
  endfacet
  facet normal 0.995185 0 0.0980101
    outer loop
      vertex 39.5764 24 6.24729
      vertex 39 0 12.1
      vertex 39.5764 0 6.24729
    endloop
  endfacet
  facet normal 0.995185 0 -0.0980103
    outer loop
      vertex 39.5764 0 17.9527
      vertex 39 24 12.1
      vertex 39.5764 24 17.9527
    endloop
  endfacet
  facet normal 0.995185 0 -0.0980103
    outer loop
      vertex 39 24 12.1
      vertex 39.5764 0 17.9527
      vertex 39 0 12.1
    endloop
  endfacet
  facet normal 0.956936 0 -0.290299
    outer loop
      vertex 40.8042 0 22
      vertex 39.5764 24 17.9527
      vertex 40.8042 24 22
    endloop
  endfacet
  facet normal 0.956936 0 -0.290299
    outer loop
      vertex 39.5764 24 17.9527
      vertex 40.8042 0 22
      vertex 39.5764 0 17.9527
    endloop
  endfacet
  facet normal -0.99518 -0.0980643 0
    outer loop
      vertex 16 12 0
      vertex 15.9231 12.7804 11.7866
      vertex 15.9231 12.7804 0
    endloop
  endfacet
  facet normal -0.99518 -0.0980643 0
    outer loop
      vertex 15.9231 12.7804 11.7866
      vertex 16 12 0
      vertex 16 12 11.8387
    endloop
  endfacet
  facet normal 0.0980643 -0.99518 0
    outer loop
      vertex 12 16 0
      vertex 11.2196 15.9231 8.6004
      vertex 11.2196 15.9231 0
    endloop
  endfacet
  facet normal 0.0980643 -0.99518 0
    outer loop
      vertex 11.2196 15.9231 8.6004
      vertex 12 16 0
      vertex 12 16 9.12903
    endloop
  endfacet
  facet normal 0.63439 0.773013 -0
    outer loop
      vertex 9.77772 8.67412 0
      vertex 9.17157 9.17157 7.213
      vertex 9.77772 8.67412 7.62362
    endloop
  endfacet
  facet normal 0.63439 0.773013 0
    outer loop
      vertex 9.17157 9.17157 7.213
      vertex 9.77772 8.67412 0
      vertex 9.17157 9.17157 0
    endloop
  endfacet
  facet normal -0.634459 -0.772956 0
    outer loop
      vertex 14.8284 14.8284 0
      vertex 14.2223 15.3259 10.6344
      vertex 14.2223 15.3259 0
    endloop
  endfacet
  facet normal -0.634459 -0.772956 0
    outer loop
      vertex 14.2223 15.3259 10.6344
      vertex 14.8284 14.8284 0
      vertex 14.8284 14.8284 11.0451
    endloop
  endfacet
  facet normal 0.772988 -0.634421 0
    outer loop
      vertex 8.67412 14.2223 6.87602
      vertex 9.17157 14.8284 0
      vertex 9.17157 14.8284 7.213
    endloop
  endfacet
  facet normal 0.772988 -0.634421 0
    outer loop
      vertex 9.17157 14.8284 0
      vertex 8.67412 14.2223 6.87602
      vertex 8.67412 14.2223 0
    endloop
  endfacet
  facet normal 0.47134 -0.881952 0
    outer loop
      vertex 10.4693 15.6955 0
      vertex 9.77772 15.3259 7.62362
      vertex 9.77772 15.3259 0
    endloop
  endfacet
  facet normal 0.47134 -0.881952 0
    outer loop
      vertex 9.77772 15.3259 7.62362
      vertex 10.4693 15.6955 0
      vertex 10.4693 15.6955 8.09208
    endloop
  endfacet
  facet normal -0.881952 0.47134 0
    outer loop
      vertex 15.3259 9.77772 11.382
      vertex 15.6955 10.4693 0
      vertex 15.3259 9.77772 0
    endloop
  endfacet
  facet normal -0.881952 0.47134 0
    outer loop
      vertex 15.6955 10.4693 0
      vertex 15.3259 9.77772 11.382
      vertex 15.6955 10.4693 11.6324
    endloop
  endfacet
  facet normal -0.881957 -0.471329 0
    outer loop
      vertex 15.6955 13.5307 0
      vertex 15.3259 14.2223 11.382
      vertex 15.3259 14.2223 0
    endloop
  endfacet
  facet normal -0.881957 -0.471329 0
    outer loop
      vertex 15.3259 14.2223 11.382
      vertex 15.6955 13.5307 0
      vertex 15.6955 13.5307 11.6324
    endloop
  endfacet
  facet normal -0.956941 -0.290283 0
    outer loop
      vertex 15.9231 12.7804 0
      vertex 15.6955 13.5307 11.6324
      vertex 15.6955 13.5307 0
    endloop
  endfacet
  facet normal -0.956941 -0.290283 0
    outer loop
      vertex 15.6955 13.5307 11.6324
      vertex 15.9231 12.7804 0
      vertex 15.9231 12.7804 11.7866
    endloop
  endfacet
  facet normal -0.772956 -0.634459 0
    outer loop
      vertex 15.3259 14.2223 0
      vertex 14.8284 14.8284 11.0451
      vertex 14.8284 14.8284 0
    endloop
  endfacet
  facet normal -0.772956 -0.634459 0
    outer loop
      vertex 14.8284 14.8284 11.0451
      vertex 15.3259 14.2223 0
      vertex 15.3259 14.2223 11.382
    endloop
  endfacet
  facet normal -0.290283 -0.956941 0
    outer loop
      vertex 13.5307 15.6955 0
      vertex 12.7804 15.9231 9.65766
      vertex 12.7804 15.9231 0
    endloop
  endfacet
  facet normal -0.290283 -0.956941 0
    outer loop
      vertex 12.7804 15.9231 9.65766
      vertex 13.5307 15.6955 0
      vertex 13.5307 15.6955 10.166
    endloop
  endfacet
  facet normal -0.0980643 -0.99518 0
    outer loop
      vertex 12.7804 15.9231 0
      vertex 12 16 9.12903
      vertex 12 16 0
    endloop
  endfacet
  facet normal -0.0980643 -0.99518 0
    outer loop
      vertex 12 16 9.12903
      vertex 12.7804 15.9231 0
      vertex 12.7804 15.9231 9.65766
    endloop
  endfacet
  facet normal -0.471329 -0.881957 0
    outer loop
      vertex 14.2223 15.3259 0
      vertex 13.5307 15.6955 10.166
      vertex 13.5307 15.6955 0
    endloop
  endfacet
  facet normal -0.471329 -0.881957 0
    outer loop
      vertex 13.5307 15.6955 10.166
      vertex 14.2223 15.3259 0
      vertex 14.2223 15.3259 10.6344
    endloop
  endfacet
  facet normal 0.956934 -0.290307 0
    outer loop
      vertex 8.07686 12.7804 6.47142
      vertex 8.30448 13.5307 0
      vertex 8.30448 13.5307 6.62562
    endloop
  endfacet
  facet normal 0.956934 -0.290307 0
    outer loop
      vertex 8.30448 13.5307 0
      vertex 8.07686 12.7804 6.47142
      vertex 8.07686 12.7804 0
    endloop
  endfacet
  facet normal 0.881936 -0.471369 0
    outer loop
      vertex 8.30448 13.5307 6.62562
      vertex 8.67412 14.2223 0
      vertex 8.67412 14.2223 6.87602
    endloop
  endfacet
  facet normal 0.881936 -0.471369 0
    outer loop
      vertex 8.67412 14.2223 0
      vertex 8.30448 13.5307 6.62562
      vertex 8.30448 13.5307 0
    endloop
  endfacet
  facet normal 0.995185 -0.0980137 0
    outer loop
      vertex 8 12 6.41935
      vertex 8.07686 12.7804 0
      vertex 8.07686 12.7804 6.47142
    endloop
  endfacet
  facet normal 0.995185 -0.0980137 0
    outer loop
      vertex 8.07686 12.7804 0
      vertex 8 12 6.41935
      vertex 8 12 0
    endloop
  endfacet
  facet normal 0.634428 -0.772982 0
    outer loop
      vertex 9.77772 15.3259 0
      vertex 9.17157 14.8284 7.213
      vertex 9.17157 14.8284 0
    endloop
  endfacet
  facet normal 0.634428 -0.772982 0
    outer loop
      vertex 9.17157 14.8284 7.213
      vertex 9.77772 15.3259 0
      vertex 9.77772 15.3259 7.62362
    endloop
  endfacet
  facet normal 0.290283 -0.956941 0
    outer loop
      vertex 11.2196 15.9231 0
      vertex 10.4693 15.6955 8.09208
      vertex 10.4693 15.6955 0
    endloop
  endfacet
  facet normal 0.290283 -0.956941 0
    outer loop
      vertex 10.4693 15.6955 8.09208
      vertex 11.2196 15.9231 0
      vertex 11.2196 15.9231 8.6004
    endloop
  endfacet
  facet normal -0.290307 0.956934 0
    outer loop
      vertex 13.5307 8.30448 0
      vertex 12.7804 8.07686 9.65766
      vertex 13.5307 8.30448 10.166
    endloop
  endfacet
  facet normal -0.290307 0.956934 0
    outer loop
      vertex 12.7804 8.07686 9.65766
      vertex 13.5307 8.30448 0
      vertex 12.7804 8.07686 0
    endloop
  endfacet
  facet normal -0.634421 0.772988 0
    outer loop
      vertex 14.8284 9.17157 0
      vertex 14.2223 8.67412 10.6344
      vertex 14.8284 9.17157 11.0451
    endloop
  endfacet
  facet normal -0.634421 0.772988 0
    outer loop
      vertex 14.2223 8.67412 10.6344
      vertex 14.8284 9.17157 0
      vertex 14.2223 8.67412 0
    endloop
  endfacet
  facet normal 0.47138 0.88193 -0
    outer loop
      vertex 10.4693 8.30448 0
      vertex 9.77772 8.67412 7.62362
      vertex 10.4693 8.30448 8.09208
    endloop
  endfacet
  facet normal 0.47138 0.88193 0
    outer loop
      vertex 9.77772 8.67412 7.62362
      vertex 10.4693 8.30448 0
      vertex 9.77772 8.67412 0
    endloop
  endfacet
  facet normal 0.0980137 0.995185 -0
    outer loop
      vertex 12 8 0
      vertex 11.2196 8.07686 8.6004
      vertex 12 8 9.12903
    endloop
  endfacet
  facet normal 0.0980137 0.995185 0
    outer loop
      vertex 11.2196 8.07686 8.6004
      vertex 12 8 0
      vertex 11.2196 8.07686 0
    endloop
  endfacet
  facet normal 0.773013 0.63439 -0
    outer loop
      vertex 9.17157 9.17157 0
      vertex 8.67412 9.77772 6.87602
      vertex 9.17157 9.17157 7.213
    endloop
  endfacet
  facet normal 0.773013 0.63439 0
    outer loop
      vertex 8.67412 9.77772 6.87602
      vertex 9.17157 9.17157 0
      vertex 8.67412 9.77772 0
    endloop
  endfacet
  facet normal 0.956934 0.290307 -0
    outer loop
      vertex 8.30448 10.4693 0
      vertex 8.07686 11.2196 6.47142
      vertex 8.30448 10.4693 6.62562
    endloop
  endfacet
  facet normal 0.956934 0.290307 0
    outer loop
      vertex 8.07686 11.2196 6.47142
      vertex 8.30448 10.4693 0
      vertex 8.07686 11.2196 0
    endloop
  endfacet
  facet normal 0.995185 0.0980137 -0
    outer loop
      vertex 8.07686 11.2196 0
      vertex 8 12 6.41935
      vertex 8.07686 11.2196 6.47142
    endloop
  endfacet
  facet normal 0.995185 0.0980137 0
    outer loop
      vertex 8 12 6.41935
      vertex 8.07686 11.2196 0
      vertex 8 12 0
    endloop
  endfacet
  facet normal -0.471369 0.881936 0
    outer loop
      vertex 14.2223 8.67412 0
      vertex 13.5307 8.30448 10.166
      vertex 14.2223 8.67412 10.6344
    endloop
  endfacet
  facet normal -0.471369 0.881936 0
    outer loop
      vertex 13.5307 8.30448 10.166
      vertex 14.2223 8.67412 0
      vertex 13.5307 8.30448 0
    endloop
  endfacet
  facet normal -0.772982 0.634428 0
    outer loop
      vertex 14.8284 9.17157 11.0451
      vertex 15.3259 9.77772 0
      vertex 14.8284 9.17157 0
    endloop
  endfacet
  facet normal -0.772982 0.634428 0
    outer loop
      vertex 15.3259 9.77772 0
      vertex 14.8284 9.17157 11.0451
      vertex 15.3259 9.77772 11.382
    endloop
  endfacet
  facet normal -0.956941 0.290283 0
    outer loop
      vertex 15.6955 10.4693 11.6324
      vertex 15.9231 11.2196 0
      vertex 15.6955 10.4693 0
    endloop
  endfacet
  facet normal -0.956941 0.290283 0
    outer loop
      vertex 15.9231 11.2196 0
      vertex 15.6955 10.4693 11.6324
      vertex 15.9231 11.2196 11.7866
    endloop
  endfacet
  facet normal -0.99518 0.0980643 0
    outer loop
      vertex 15.9231 11.2196 11.7866
      vertex 16 12 0
      vertex 15.9231 11.2196 0
    endloop
  endfacet
  facet normal -0.99518 0.0980643 0
    outer loop
      vertex 16 12 0
      vertex 15.9231 11.2196 11.7866
      vertex 16 12 11.8387
    endloop
  endfacet
  facet normal 0.290307 0.956934 -0
    outer loop
      vertex 11.2196 8.07686 0
      vertex 10.4693 8.30448 8.09208
      vertex 11.2196 8.07686 8.6004
    endloop
  endfacet
  facet normal 0.290307 0.956934 0
    outer loop
      vertex 10.4693 8.30448 8.09208
      vertex 11.2196 8.07686 0
      vertex 10.4693 8.30448 0
    endloop
  endfacet
  facet normal -0.0980137 0.995185 0
    outer loop
      vertex 12.7804 8.07686 0
      vertex 12 8 9.12903
      vertex 12.7804 8.07686 9.65766
    endloop
  endfacet
  facet normal -0.0980137 0.995185 0
    outer loop
      vertex 12 8 9.12903
      vertex 12.7804 8.07686 0
      vertex 12 8 0
    endloop
  endfacet
  facet normal 0.88193 0.47138 -0
    outer loop
      vertex 8.67412 9.77772 0
      vertex 8.30448 10.4693 6.62562
      vertex 8.67412 9.77772 6.87602
    endloop
  endfacet
  facet normal 0.88193 0.47138 0
    outer loop
      vertex 8.30448 10.4693 6.62562
      vertex 8.67412 9.77772 0
      vertex 8.30448 10.4693 0
    endloop
  endfacet
endsolid OpenSCAD_Model
